<?xml version="1.0" encoding="utf-8"?>
<!-- Generator: Adobe Illustrator 22.0.1, SVG Export Plug-In . SVG Version: 6.00 Build 0)  -->
<svg version="1.1" id="Layer_1" xmlns="http://www.w3.org/2000/svg" xmlns:xlink="http://www.w3.org/1999/xlink" x="0px" y="0px"
	 viewBox="0 0 4000 4000" style="enable-background:new 0 0 4000 4000;" xml:space="preserve">
<style type="text/css">
	.st0{fill:#FFFFFF;}
	.st1{filter:url(#Adobe_OpacityMaskFilter);}
	.st2{fill:url(#SVGID_2_);}
	.st3{mask:url(#SVGID_1_);fill-rule:evenodd;clip-rule:evenodd;fill:#BCCAD9;}
	.st4{filter:url(#Adobe_OpacityMaskFilter_1_);}
	.st5{fill:url(#SVGID_4_);}
	.st6{mask:url(#SVGID_3_);fill-rule:evenodd;clip-rule:evenodd;fill:#BCCAD9;}
	.st7{filter:url(#Adobe_OpacityMaskFilter_2_);}
	.st8{fill:url(#SVGID_6_);}
	.st9{mask:url(#SVGID_5_);fill-rule:evenodd;clip-rule:evenodd;fill:#BCCAD9;}
	.st10{filter:url(#Adobe_OpacityMaskFilter_3_);}
	.st11{fill:url(#SVGID_8_);}
	.st12{mask:url(#SVGID_7_);fill-rule:evenodd;clip-rule:evenodd;fill:#BCCAD9;}
	.st13{filter:url(#Adobe_OpacityMaskFilter_4_);}
	.st14{fill:url(#SVGID_10_);}
	.st15{mask:url(#SVGID_9_);fill-rule:evenodd;clip-rule:evenodd;fill:#BCCAD9;}
	.st16{filter:url(#Adobe_OpacityMaskFilter_5_);}
	.st17{fill:url(#SVGID_12_);}
	.st18{mask:url(#SVGID_11_);fill-rule:evenodd;clip-rule:evenodd;fill:#BCCAD9;}
	.st19{filter:url(#Adobe_OpacityMaskFilter_6_);}
	.st20{fill:url(#SVGID_14_);}
	.st21{mask:url(#SVGID_13_);fill-rule:evenodd;clip-rule:evenodd;fill:#BCCAD9;}
	.st22{filter:url(#Adobe_OpacityMaskFilter_7_);}
	.st23{fill:url(#SVGID_16_);}
	.st24{mask:url(#SVGID_15_);fill-rule:evenodd;clip-rule:evenodd;fill:#BCCAD9;}
	.st25{filter:url(#Adobe_OpacityMaskFilter_8_);}
	.st26{fill:url(#SVGID_18_);}
	.st27{mask:url(#SVGID_17_);fill-rule:evenodd;clip-rule:evenodd;fill:#BCCAD9;}
	.st28{filter:url(#Adobe_OpacityMaskFilter_9_);}
	.st29{fill:url(#SVGID_20_);}
	.st30{mask:url(#SVGID_19_);fill-rule:evenodd;clip-rule:evenodd;fill:#BCCAD9;}
	.st31{filter:url(#Adobe_OpacityMaskFilter_10_);}
	.st32{fill:url(#SVGID_22_);}
	.st33{mask:url(#SVGID_21_);fill-rule:evenodd;clip-rule:evenodd;fill:#BCCAD9;}
	.st34{filter:url(#Adobe_OpacityMaskFilter_11_);}
	.st35{fill:url(#SVGID_24_);}
	.st36{mask:url(#SVGID_23_);fill-rule:evenodd;clip-rule:evenodd;fill:#BCCAD9;}
	.st37{filter:url(#Adobe_OpacityMaskFilter_12_);}
	.st38{fill:url(#SVGID_26_);}
	.st39{mask:url(#SVGID_25_);fill-rule:evenodd;clip-rule:evenodd;fill:#BCCAD9;}
	.st40{fill:#B90000;}
	.st41{fill:#000021;}
	.st42{opacity:0.2;}
	.st43{fill:#FF001F;}
	.st44{opacity:0.6;}
	.st45{fill:#FCFCFC;}
	.st46{opacity:0.3;}
	.st47{fill:#5B6575;}
	.st48{opacity:0.35;}
	.st49{fill:#F0ECE1;}
	.st50{fill:#F4CE11;}
	.st51{fill:#FC8012;}
	.st52{fill:#D11851;}
	.st53{fill:#503B60;}
	.st54{fill:#FFD9C9;}
	.st55{fill:#FF477B;}
	.st56{fill:#F5E4D3;}
	.st57{fill:#937869;}
	.st58{fill:#262422;}
	.st59{fill:#1C1C1E;}
	.st60{fill:#FAC7B9;}
	.st61{fill:#2B2B2B;}
	.st62{fill:#795D56;}
	.st63{fill:#E8AB13;}
</style>
<g>
	<g>
		<g>
			<circle class="st0" cx="2000" cy="2000" r="1950"/>
			<defs>
				<filter id="Adobe_OpacityMaskFilter" filterUnits="userSpaceOnUse" x="50" y="127.5" width="3528.3" height="3822.5">
					<feColorMatrix  type="matrix" values="1 0 0 0 0  0 1 0 0 0  0 0 1 0 0  0 0 0 1 0"/>
				</filter>
			</defs>
			<mask maskUnits="userSpaceOnUse" x="50" y="127.5" width="3528.3" height="3822.5" id="SVGID_1_">
				<g class="st1">
					
						<linearGradient id="SVGID_2_" gradientUnits="userSpaceOnUse" x1="-4216.7842" y1="7187.3066" x2="2991.3716" y2="1531.0823" gradientTransform="matrix(1 0 0 1 266.9128 -625.5431)">
						<stop  offset="0" style="stop-color:#FFFFFF"/>
						<stop  offset="1" style="stop-color:#000000"/>
					</linearGradient>
					<rect x="50" y="127.5" class="st2" width="3528.3" height="3822.5"/>
				</g>
			</mask>
			<path class="st3" d="M2524.7,3582.1c-332,0-644.5-83.2-917.8-230c-14.8,61.2-70,106.7-135.7,106.7
				c-77.1,0-139.6-62.5-139.6-139.6c0-43.5,19.9-82.3,51-107.9c-204.8-149-379.4-337.1-512.8-553.3c-27.6,16.9-60,26.6-94.6,26.6
				c-100.1,0-181.2-81.1-181.2-181.2c0-77,48-142.7,115.7-169C632.4,2133.2,587.8,1916,582,1689.2c-15.5,3-31.5,4.6-47.9,4.6
				c-136.6,0-247.4-110.8-247.4-247.4c0-136.6,110.8-247.4,247.4-247.4c34.4,0,67.1,7,96.9,19.7
				c109.8-464.9,401.2-902.9,865.3-1091.2C663.8,347.2,50,1105.2,50,2006.6C50,3079.9,920.1,3950,1993.4,3950
				c654.1,0,1232.7-323.1,1584.9-818.4c-193.4,200.9-427.1,349.8-716.9,414.7c0.2,2.8,0.3,5.7,0.3,8.6
				c0,75.1-60.8,135.9-135.9,135.9c-66.2,0-121.3-47.3-133.4-109.9C2570.1,3581.7,2547.6,3582.1,2524.7,3582.1"/>
		</g>
		<g>
			<defs>
				<filter id="Adobe_OpacityMaskFilter_1_" filterUnits="userSpaceOnUse" x="316.6" y="1228.9" width="435.1" height="435.1">
					<feColorMatrix  type="matrix" values="1 0 0 0 0  0 1 0 0 0  0 0 1 0 0  0 0 0 1 0"/>
				</filter>
			</defs>
			<mask maskUnits="userSpaceOnUse" x="316.6" y="1228.9" width="435.1" height="435.1" id="SVGID_3_">
				<g class="st4">
					
						<linearGradient id="SVGID_4_" gradientUnits="userSpaceOnUse" x1="912.7831" y1="1906.908" x2="6.5822" y2="2204.1086" gradientTransform="matrix(1 0 0 1 272.5722 -674.079)">
						<stop  offset="0" style="stop-color:#FFFFFF"/>
						<stop  offset="1" style="stop-color:#000000"/>
					</linearGradient>
					<rect x="316.6" y="1228.9" class="st5" width="435.1" height="435.1"/>
				</g>
			</mask>
			<path class="st6" d="M534.1,1228.9c120.1,0,217.5,97.4,217.5,217.5c0,120.1-97.4,217.6-217.5,217.6
				c-120.1,0-217.6-97.4-217.6-217.6C316.6,1326.3,414,1228.9,534.1,1228.9"/>
			<defs>
				<filter id="Adobe_OpacityMaskFilter_2_" filterUnits="userSpaceOnUse" x="622.8" y="2351.1" width="304.5" height="304.6">
					<feColorMatrix  type="matrix" values="1 0 0 0 0  0 1 0 0 0  0 0 1 0 0  0 0 0 1 0"/>
				</filter>
			</defs>
			<mask maskUnits="userSpaceOnUse" x="622.8" y="2351.1" width="304.5" height="304.6" id="SVGID_5_">
				<g class="st7">
					
						<linearGradient id="SVGID_6_" gradientUnits="userSpaceOnUse" x1="871.3195" y1="2917.3921" x2="368.2929" y2="3237.6714" gradientTransform="matrix(1 0 0 1 279.0746 -653.025)">
						<stop  offset="0" style="stop-color:#FFFFFF"/>
						<stop  offset="1" style="stop-color:#000000"/>
					</linearGradient>
					<rect x="622.8" y="2351" class="st8" width="304.5" height="304.6"/>
				</g>
			</mask>
			<path class="st9" d="M775.1,2351.1c84.1,0,152.3,68.2,152.3,152.3c0,84.1-68.2,152.3-152.3,152.3c-84.1,0-152.3-68.2-152.3-152.3
				C622.8,2419.2,691,2351.1,775.1,2351.1"/>
			<defs>
				<filter id="Adobe_OpacityMaskFilter_3_" filterUnits="userSpaceOnUse" x="1144.9" y="2543.2" width="130.5" height="130.5">
					<feColorMatrix  type="matrix" values="1 0 0 0 0  0 1 0 0 0  0 0 1 0 0  0 0 0 1 0"/>
				</filter>
			</defs>
			<mask maskUnits="userSpaceOnUse" x="1144.9" y="2543.2" width="130.5" height="130.5" id="SVGID_7_">
				<g class="st10">
					
						<linearGradient id="SVGID_8_" gradientUnits="userSpaceOnUse" x1="1050.7626" y1="3154.853" x2="869.8987" y2="3301.8049" gradientTransform="matrix(1 0 0 1 290.1586 -652.64)">
						<stop  offset="0" style="stop-color:#FFFFFF"/>
						<stop  offset="1" style="stop-color:#000000"/>
					</linearGradient>
					<rect x="1144.9" y="2543.2" class="st11" width="130.5" height="130.5"/>
				</g>
			</mask>
			<path class="st12" d="M1210.1,2543.2c36,0,65.3,29.2,65.3,65.3c0,36-29.2,65.3-65.3,65.3c-36,0-65.3-29.2-65.3-65.3
				C1144.9,2572.4,1174.1,2543.2,1210.1,2543.2"/>
			<defs>
				<filter id="Adobe_OpacityMaskFilter_4_" filterUnits="userSpaceOnUse" x="919.9" y="1743.8" width="203" height="203.1">
					<feColorMatrix  type="matrix" values="1 0 0 0 0  0 1 0 0 0  0 0 1 0 0  0 0 0 1 0"/>
				</filter>
			</defs>
			<mask maskUnits="userSpaceOnUse" x="919.9" y="1743.8" width="203" height="203.1" id="SVGID_9_">
				<g class="st13">
					
						<linearGradient id="SVGID_10_" gradientUnits="userSpaceOnUse" x1="986.3911" y1="2353.814" x2="651.0385" y2="2567.6479" gradientTransform="matrix(1 0 0 1 285.3831 -668.0724)">
						<stop  offset="0" style="stop-color:#FFFFFF"/>
						<stop  offset="1" style="stop-color:#000000"/>
					</linearGradient>
					<rect x="919.9" y="1743.8" class="st14" width="203" height="203.1"/>
				</g>
			</mask>
			<path class="st15" d="M1021.5,1743.8c56.1,0,101.5,45.4,101.5,101.5c0,56.1-45.4,101.5-101.5,101.5
				c-56.1,0-101.5-45.5-101.5-101.5C919.9,1789.3,965.4,1743.8,1021.5,1743.8"/>
		</g>
		<g>
			<defs>
				<filter id="Adobe_OpacityMaskFilter_5_" filterUnits="userSpaceOnUse" x="2864.3" y="775.4" width="435.1" height="435.1">
					<feColorMatrix  type="matrix" values="1 0 0 0 0  0 1 0 0 0  0 0 1 0 0  0 0 0 1 0"/>
				</filter>
			</defs>
			<mask maskUnits="userSpaceOnUse" x="2864.3" y="775.4" width="435.1" height="435.1" id="SVGID_11_">
				<g class="st16">
					
						<linearGradient id="SVGID_12_" gradientUnits="userSpaceOnUse" x1="2045.5273" y1="2831.4067" x2="1139.3264" y2="3128.6074" gradientTransform="matrix(-0.7472 0.6646 -0.6646 -0.7472 6147.4775 2341.3809)">
						<stop  offset="0" style="stop-color:#FFFFFF"/>
						<stop  offset="1" style="stop-color:#000000"/>
					</linearGradient>
					<polygon class="st17" points="3099.8,685.9 2774.7,975 3063.9,1300.1 3389,1010.9 					"/>
				</g>
			</mask>
			<path class="st18" d="M3226.5,1155.5c-89.8,79.9-227.3,71.8-307.1-17.9c-79.9-89.8-71.8-227.3,17.9-307.1
				c89.8-79.9,227.3-71.8,307.1,18C3324.3,938.2,3316.3,1075.7,3226.5,1155.5"/>
			<defs>
				<filter id="Adobe_OpacityMaskFilter_6_" filterUnits="userSpaceOnUse" x="2047.1" y="211.2" width="304.6" height="304.6">
					<feColorMatrix  type="matrix" values="1 0 0 0 0  0 1 0 0 0  0 0 1 0 0  0 0 0 1 0"/>
				</filter>
			</defs>
			<mask maskUnits="userSpaceOnUse" x="2047.1" y="211.2" width="304.6" height="304.6" id="SVGID_13_">
				<g class="st19">
					
						<linearGradient id="SVGID_14_" gradientUnits="userSpaceOnUse" x1="2004.0637" y1="3841.8909" x2="1501.0371" y2="4162.1704" gradientTransform="matrix(-0.7472 0.6646 -0.6646 -0.7472 6128.6255 2329.9719)">
						<stop  offset="0" style="stop-color:#FFFFFF"/>
						<stop  offset="1" style="stop-color:#000000"/>
					</linearGradient>
					<polygon class="st20" points="2211.9,148.5 1984.4,350.9 2186.8,578.5 2414.3,376.1 					"/>
				</g>
			</mask>
			<path class="st21" d="M2300.6,477.3c-62.8,55.9-159.1,50.3-215-12.6c-55.9-62.8-50.3-159.1,12.6-215
				c62.8-55.9,159.1-50.3,215,12.6C2369,325.1,2363.4,421.4,2300.6,477.3"/>
			<defs>
				<filter id="Adobe_OpacityMaskFilter_7_" filterUnits="userSpaceOnUse" x="1739.2" y="508.8" width="130.5" height="130.5">
					<feColorMatrix  type="matrix" values="1 0 0 0 0  0 1 0 0 0  0 0 1 0 0  0 0 0 1 0"/>
				</filter>
			</defs>
			<mask maskUnits="userSpaceOnUse" x="1739.2" y="508.8" width="130.5" height="130.5" id="SVGID_15_">
				<g class="st22">
					
						<linearGradient id="SVGID_16_" gradientUnits="userSpaceOnUse" x1="2183.5068" y1="4079.3518" x2="2002.6429" y2="4226.3037" gradientTransform="matrix(-0.7472 0.6646 -0.6646 -0.7472 6120.0884 2337.0513)">
						<stop  offset="0" style="stop-color:#FFFFFF"/>
						<stop  offset="1" style="stop-color:#000000"/>
					</linearGradient>
					<polygon class="st23" points="1809.8,481.9 1712.3,568.7 1799,666.2 1896.6,579.5 					"/>
				</g>
			</mask>
			<path class="st24" d="M1847.8,622.8c-26.9,23.9-68.2,21.5-92.1-5.4c-24-26.9-21.5-68.2,5.4-92.1c26.9-24,68.2-21.5,92.1,5.4
				C1877.1,557.6,1874.7,598.9,1847.8,622.8"/>
			<defs>
				<filter id="Adobe_OpacityMaskFilter_8_" filterUnits="userSpaceOnUse" x="2351.1" y="917.3" width="203.1" height="203.1">
					<feColorMatrix  type="matrix" values="1 0 0 0 0  0 1 0 0 0  0 0 1 0 0  0 0 0 1 0"/>
				</filter>
			</defs>
			<mask maskUnits="userSpaceOnUse" x="2351.1" y="917.3" width="203.1" height="203.1" id="SVGID_17_">
				<g class="st25">
					
						<linearGradient id="SVGID_18_" gradientUnits="userSpaceOnUse" x1="2119.1353" y1="3278.3127" x2="1783.7827" y2="3492.1467" gradientTransform="matrix(-0.7472 0.6646 -0.6646 -0.7472 6133.9136 2345.4077)">
						<stop  offset="0" style="stop-color:#FFFFFF"/>
						<stop  offset="1" style="stop-color:#000000"/>
					</linearGradient>
					<polygon class="st26" points="2461,875.5 2309.3,1010.5 2444.2,1162.2 2595.9,1027.2 					"/>
				</g>
			</mask>
			<path class="st27" d="M2520.1,1094.7c-41.9,37.3-106.1,33.5-143.3-8.4c-37.3-41.9-33.5-106.1,8.4-143.3
				c41.9-37.3,106.1-33.5,143.3,8.4C2565.7,993.3,2562,1057.4,2520.1,1094.7"/>
		</g>
		<defs>
			<filter id="Adobe_OpacityMaskFilter_9_" filterUnits="userSpaceOnUse" x="3353.1" y="1881.1" width="304.6" height="304.6">
				<feColorMatrix  type="matrix" values="1 0 0 0 0  0 1 0 0 0  0 0 1 0 0  0 0 0 1 0"/>
			</filter>
		</defs>
		<mask maskUnits="userSpaceOnUse" x="3353.1" y="1881.1" width="304.6" height="304.6" id="SVGID_19_">
			<g class="st28">
				
					<linearGradient id="SVGID_20_" gradientUnits="userSpaceOnUse" x1="2138.1641" y1="1726.1219" x2="1635.1373" y2="2046.4014" gradientTransform="matrix(-0.7472 0.6646 -0.6646 -0.7472 6128.6255 2329.9719)">
					<stop  offset="0" style="stop-color:#FFFFFF"/>
					<stop  offset="1" style="stop-color:#000000"/>
				</linearGradient>
				<polygon class="st29" points="3518,1818.4 3290.4,2020.9 3492.8,2248.4 3720.4,2046 				"/>
			</g>
		</mask>
		<path class="st30" d="M3606.6,2147.2c-62.8,55.9-159.1,50.3-215-12.6c-55.9-62.8-50.3-159.1,12.6-215
			c62.8-55.9,159.1-50.3,215,12.6C3675.1,1995.1,3669.5,2091.3,3606.6,2147.2"/>
		<defs>
			<filter id="Adobe_OpacityMaskFilter_10_" filterUnits="userSpaceOnUse" x="974.2" y="1205.9" width="130.6" height="130.6">
				<feColorMatrix  type="matrix" values="1 0 0 0 0  0 1 0 0 0  0 0 1 0 0  0 0 0 1 0"/>
			</filter>
		</defs>
		<mask maskUnits="userSpaceOnUse" x="974.2" y="1205.9" width="130.6" height="130.6" id="SVGID_21_">
			<g class="st31">
				
					<linearGradient id="SVGID_22_" gradientUnits="userSpaceOnUse" x1="668.9997" y1="2342.123" x2="488.1358" y2="2489.0752" gradientTransform="matrix(0.907 0.4211 -0.4211 0.907 1582.3287 -1176.1868)">
					<stop  offset="0" style="stop-color:#FFFFFF"/>
					<stop  offset="1" style="stop-color:#000000"/>
				</linearGradient>
				<polygon class="st32" points="952.8,1302.9 1071.1,1357.8 1126.1,1239.5 1007.7,1184.5 				"/>
			</g>
		</mask>
		<path class="st33" d="M1066.9,1212c32.7,15.2,46.9,54,31.7,86.7c-15.2,32.7-54,46.9-86.7,31.7c-32.7-15.2-46.9-54-31.7-86.7
			C995.4,1211,1034.2,1196.8,1066.9,1212"/>
		<defs>
			<filter id="Adobe_OpacityMaskFilter_11_" filterUnits="userSpaceOnUse" x="3017.3" y="1409.9" width="203.1" height="203.1">
				<feColorMatrix  type="matrix" values="1 0 0 0 0  0 1 0 0 0  0 0 1 0 0  0 0 0 1 0"/>
			</filter>
		</defs>
		<mask maskUnits="userSpaceOnUse" x="3017.3" y="1409.9" width="203.1" height="203.1" id="SVGID_23_">
			<g class="st34">
				
					<linearGradient id="SVGID_24_" gradientUnits="userSpaceOnUse" x1="2780.5295" y1="1646.5139" x2="2445.177" y2="1860.348" gradientTransform="matrix(0.907 0.4211 -0.4211 0.907 1584.4961 -1192.1951)">
					<stop  offset="0" style="stop-color:#FFFFFF"/>
					<stop  offset="1" style="stop-color:#000000"/>
				</linearGradient>
				<polygon class="st35" points="2984,1560.8 3168.2,1646.3 3253.7,1462.2 3069.5,1376.6 				"/>
			</g>
		</mask>
		<path class="st36" d="M3161.6,1419.4c50.9,23.6,72.9,84,49.3,134.8c-23.6,50.9-84,73-134.8,49.3c-50.9-23.6-72.9-84-49.3-134.8
			C3050.4,1417.9,3110.7,1395.8,3161.6,1419.4"/>
		<defs>
			<filter id="Adobe_OpacityMaskFilter_12_" filterUnits="userSpaceOnUse" x="1361.6" y="3222.8" width="203.1" height="203.1">
				<feColorMatrix  type="matrix" values="1 0 0 0 0  0 1 0 0 0  0 0 1 0 0  0 0 0 1 0"/>
			</filter>
		</defs>
		<mask maskUnits="userSpaceOnUse" x="1361.6" y="3222.8" width="203.1" height="203.1" id="SVGID_25_">
			<g class="st37">
				
					<linearGradient id="SVGID_26_" gradientUnits="userSpaceOnUse" x1="4390.8052" y1="2213.397" x2="4055.4526" y2="2427.2312" gradientTransform="matrix(-0.7472 0.6646 -0.6646 -0.7472 6133.9136 2345.4077)">
					<stop  offset="0" style="stop-color:#FFFFFF"/>
					<stop  offset="1" style="stop-color:#000000"/>
				</linearGradient>
				<polygon class="st38" points="1471.5,3181 1319.8,3316 1454.7,3467.7 1606.4,3332.8 				"/>
			</g>
		</mask>
		<path class="st39" d="M1530.6,3400.2c-41.9,37.3-106.1,33.5-143.3-8.4c-37.3-41.9-33.5-106.1,8.4-143.3
			c41.9-37.3,106.1-33.5,143.3,8.4C1576.2,3298.8,1572.5,3363,1530.6,3400.2"/>
	</g>
	<g>
		<g>
			<g>
				<path class="st40" d="M1869.3,1552.2c0,0-81.3-10.3-149.3,79.4c-68.1,89.7-152,274.4-152,274.4s20.8,65.3,82.3,58.8
					c0,0,216.2-159.9,271-233.9"/>
			</g>
		</g>
		<g>
			<g>
				<path class="st41" d="M1869,1554.6c-19.9,5.1-37.9,12.1-54.8,20.3c-16.8,8.5-32.8,18.1-47,30.5c-3.4,3.2-7,6.3-10.4,9.6
					c-3.2,3.5-6.5,6.9-9.7,10.4c-3.3,3.4-6,7.4-9.1,11l-4.5,5.6l-4.3,6.1c-11.6,15.8-22.3,32.9-33,49.9
					c-21.1,34.2-41.1,69.6-60.1,105.4c-19,35.8-37.1,72.4-54.1,109.1l0.7-11.1c0.4,1.1,1.2,3.2,1.9,4.9c0.8,1.8,1.6,3.6,2.5,5.3
					c1.8,3.5,3.8,6.9,6,10.1c4.4,6.4,9.6,12.1,15.3,16.6c5.7,4.7,12.1,7.7,18.8,9.6c6.7,2.2,14,2,21.4,1.7l-7.6,2.9
					c23.7-17.7,47.5-35.8,70.8-54.3c23.2-18.6,45.8-38,68.9-56.7c23.1-18.6,46.5-36.9,69.9-55.1c23.4-18.3,46.6-36.5,68.7-56.7
					l0.1-0.1c1-0.9,2.5-0.8,3.4,0.2c0.7,0.8,0.8,1.9,0.3,2.8c-3.8,6.6-7.5,13.4-11.9,19.7c-4.5,6.2-8.8,12.5-13.6,18.4
					c-4.8,5.9-9.6,11.8-14.6,17.6c-5,5.7-10.1,11.3-15.3,16.8c-20.8,22-42.8,42.7-65.7,62.2c-23,19.4-47.1,37.4-70.9,55.7
					c-23.8,18.3-47.5,36.6-71.7,54.6l-0.5,0.4c-2.1,1.6-4.6,2.4-7.1,2.6c-10.8,0.6-22,0.7-32.9-2.6c-10.8-3-21.2-8.1-29.6-15
					c-8.6-6.8-15.8-14.9-21.7-23.5c-3-4.3-5.6-8.8-8-13.4c-1.2-2.3-2.3-4.7-3.4-7.1c-1.1-2.5-2-4.6-3.1-7.9c-1.3-3.7-1-7.6,0.6-10.9
					l0.1-0.2c8.7-18.8,17.4-37.3,26.4-55.8c9-18.5,18-36.9,27.3-55.3c18.6-36.7,37.7-73.2,59.2-108.7l8.3-13.2
					c2.7-4.4,5.6-8.8,8.5-13.1l8.7-13c3-4.3,6.2-8.5,9.3-12.8l4.7-6.4l5.2-6.3c3.6-4.1,6.8-8.5,10.7-12.4l11.6-11.6
					c4.1-3.7,8.4-7.1,12.6-10.7c17.3-13.5,36.6-25.3,58-31.4c21.3-5.7,44.2-7.3,65.1,0.8c1.3,0.5,1.9,1.9,1.4,3.1
					c-0.3,0.8-0.9,1.3-1.6,1.5L1869,1554.6z"/>
			</g>
		</g>
		<g class="st42">
			<g>
				<path class="st41" d="M1647.7,1909.4c-83.2-40.6,190.4-329.3,238.8-250.7c48.4,78.5-35,143.9-35,143.9s0,0,0,0
					c29.9-26.9,55.4-52.3,69.8-71.7l-52-178.7c0,0-81.3-10.3-149.3,79.4c-68.1,89.7-152,274.4-152,274.4s20.8,65.3,82.3,58.8
					c0,0,35-25.9,80.3-61.6C1702.5,1916.6,1673.4,1921.9,1647.7,1909.4z"/>
			</g>
		</g>
	</g>
	<g>
		<g>
			<g>
				<g>
					<path class="st43" d="M1966.5,2960.4c-0.2,116.8,36.1,455.5,466.5,415.1c27.2-2.6,40.1-33.3,21.6-52.2
						c-45.2-46.4-99.1-135.5-77-286.8c2.4-16.3-8.8-31.6-25.8-35.2l-344.7-71.5C1986.3,2925.5,1966.6,2940.4,1966.5,2960.4z"/>
				</g>
			</g>
		</g>
		<g class="st44">
			<g>
				<g>
					<path class="st45" d="M2454.6,3323.3c-45.2-46.4-99.1-135.5-77-286.8c2.4-16.3-8.8-31.6-25.8-35.2l-344.7-71.5
						c-9.8-2-19.4,0.2-26.8,5.3l319.3,66.3c17.1,3.5,28.2,18.9,25.8,35.2c-22.1,151.2,31.7,240.3,77,286.8
						c18.5,19,5.6,49.7-21.6,52.2c-14.5,1.4-28.5,2.3-42.1,2.8c29.1,1.2,60.5,0.4,94.3-2.8C2460.2,3373,2473.1,3342.3,2454.6,3323.3
						z"/>
				</g>
			</g>
		</g>
		<g class="st46">
			<g>
				<g>
					<path class="st41" d="M1966.5,2960.4c0,22,1.2,51.8,6.2,85.5c32.5,222,374.6,220.2,404-2.2c0.3-2.5,0.7-5.1,1.1-7.7
						c2.4-16.1-9.1-31.2-26-34.7l-344.7-71.5C1986.3,2925.5,1966.6,2940.4,1966.5,2960.4z"/>
				</g>
			</g>
		</g>
		<g>
			<g>
				<g>
					<path class="st41" d="M2364.8,3406.5c-118.8,0-215.2-30.9-287.1-92.3c-122.5-104.5-140.6-266.5-140.4-353.8l0,0
						c0-17.9,8.6-34.7,23.4-45.9c14.9-11.2,34.1-15.5,52.8-11.6l344.7,71.5c31.7,6.6,53,35.5,48.6,65.9
						c-20.3,138.7,26.6,220.3,69.5,264.3c16,16.4,20.7,39.6,12.2,60.5c-8.6,21.1-28.7,35.6-52.6,37.9
						C2411.4,3405.3,2387.7,3406.5,2364.8,3406.5z M1995.9,2960.4c-0.1,62.9,11.5,219.2,121.2,312.8c73,62.3,178.4,87.5,313,74.9
						c0.6-0.1,2.6-0.2,3.5-2.6c0.8-2-0.2-3-0.6-3.5c-51.4-52.8-107.8-149.2-84.4-309.2c0.3-2.1-1-4-3.1-4.4l-344.7-71.5
						c-1.3-0.3-2.4,0-3.4,0.7C1996.4,2958.3,1995.9,2959.3,1995.9,2960.4L1995.9,2960.4z"/>
				</g>
			</g>
		</g>
		<g>
			<g>
				<g>
					<path class="st43" d="M2228.4,2006.2c77.8-91,331.9-333.3,640-47.6c19.5,18.1,9,49.6-18,53.4c-66.2,9.4-167.5,46.9-251.2,177.7
						c-9,14.1-27.9,19.4-43.6,12.1l-316.1-148C2220.5,2045,2215.1,2021.8,2228.4,2006.2z"/>
				</g>
			</g>
		</g>
		<g class="st44">
			<g>
				<g>
					<path class="st45" d="M2239.6,2054l2.9,1.4c83.7-94.8,327.8-313,623.1-49.4c14.9-10.9,18-33.2,2.8-47.3
						c-308.1-285.7-562.3-43.4-640,47.6C2215.1,2021.8,2220.6,2045,2239.6,2054z"/>
				</g>
			</g>
		</g>
		<g>
			<g>
				<g>
					<path class="st41" d="M2570.2,2232.7c-9.3,0-18.8-2-27.6-6.1l-316.1-148c-17.1-8-29.3-22.7-33.3-40.2
						c-4.1-17.5,0.4-35.6,12.4-49.6l0,0c58.1-68,180.2-183.4,345.3-192.4c115.8-6.3,229.4,41.6,338.2,142.5
						c17.1,15.8,23.1,39,15.7,60.5c-7.3,21.3-26.5,36.6-49.9,39.9c-62.8,8.9-153.7,44.7-230.4,164.7
						C2612.7,2222.4,2591.7,2232.7,2570.2,2232.7z M2570.7,1851.2c-5.5,0-11,0.2-16.5,0.4c-147.7,8-261.1,122.9-303,171.9l0,0
						c-0.8,0.9-1,2-0.8,3.1c0.3,1.2,1,2.1,2.2,2.6l316.1,148c1.9,0.9,4.2,0.2,5.4-1.6c88.5-138.3,196.7-180.1,272-190.8
						c0.7-0.1,2.1-0.3,2.8-2.3c0.8-2.4-0.6-3.7-1-4.1C2756.8,1893.9,2663.7,1851.2,2570.7,1851.2z M2228.4,2006.2L2228.4,2006.2
						L2228.4,2006.2z"/>
				</g>
			</g>
		</g>
		<g>
			<g>
				<g>
					<g>
						<path class="st47" d="M2633.3,2277.3l179.9,85.3c0,0,175,350.7-179.9,594.2l-209.1,8.7L2633.3,2277.3z"/>
					</g>
				</g>
				<g>
					<g>
						<path class="st41" d="M2419.2,2969.3l1.4-4.7l210.3-692.3l185.1,87.8l0.6,1.1c0.4,0.9,44.1,89.8,43.5,207.3
							c-0.6,108.6-40,264.6-224.6,391.3l-0.9,0.6L2419.2,2969.3z M2635.7,2282.4l-206.4,679.4l202.7-8.4
							c181.3-124.8,220.1-278.2,220.6-385c0.6-109-37.3-192.7-42.3-203.2L2635.7,2282.4z"/>
					</g>
				</g>
			</g>
		</g>
		<g class="st44">
			<g>
				<g>
					<path class="st45" d="M2802.5,2362.7l-179.9-85.3l-4.9,16.1l132.4,62.8c0,0,175,350.7-179.9,594.2l-154,6.4l-2.6,8.7l209.1-8.7
						C2977.5,2713.4,2802.5,2362.7,2802.5,2362.7z"/>
				</g>
			</g>
		</g>
		<g class="st48">
			<g>
				<g>
					<path class="st41" d="M2495,2240.9l179.9,85.3c0,0,175,350.7-179.9,594.2l-209.1,8.7L2495,2240.9z"/>
				</g>
			</g>
		</g>
		<g>
			<g>
				<g>
					<path class="st41" d="M2405.8,2993.2c-8.8,0-17.2-3.8-22.8-10.3c-5.8-6.8-7.9-15.8-5.6-24.2l191.2-701
						c2.2-8,8.1-14.7,16.1-18.2c8-3.5,17.2-3.4,25.1,0.2l179.6,81.5c27.9,12.7,48.9,34.8,59.1,62.2c17.1,45.9,43.8,139,30.6,246.3
						c-16.1,131.1-85,243-204.7,332.6c-18.9,14.1-42.7,22.4-67.2,23.3l-200.1,7.6C2406.6,2993.2,2406.2,2993.2,2405.8,2993.2z
						 M2616.5,2304.1L2444,2936.5l160.7-6.1c12.1-0.5,23.9-4.5,33.1-11.4c245.4-183.7,190.3-423,155.3-517.4
						c-5-13.5-15.4-24.4-29.2-30.7L2616.5,2304.1z"/>
				</g>
			</g>
		</g>
		<g>
			<g>
				<path class="st43" d="M295.3,2146.4c0,0,120.9,295.6,653.5,622.7l115.6-903.8C1064.5,1865.4,606.8,1841.7,295.3,2146.4z"/>
			</g>
		</g>
		<g class="st44">
			<g>
				<g>
					<path class="st45" d="M1065.7,1921.6l6.3-49.2c0,0-457.6-23.6-769.1,281.1c0,0,6.3,15.3,22.2,42.8
						C596.1,1937.2,972.9,1921.4,1065.7,1921.6z"/>
				</g>
			</g>
		</g>
		<g>
			<g>
				<path class="st41" d="M948.9,2796.7c-5.6,0-11.2-1.5-16-4.5c-434.9-267.1-599.4-512.4-649.9-605.5c0,0,0,0,0,0
					c-14.8-27.3-9-60.1,14.5-81.4c316.1-287.5,750.3-268.5,768.7-267.6c8.1,0.4,15.7,4,20.9,9.8c5.2,5.9,7.6,13.5,6.7,21.1
					L978,2772.4c-1.2,9.5-7.5,17.7-16.7,21.7C957.3,2795.9,953.1,2796.7,948.9,2796.7z M335.2,2161.7
					c36.6,67.4,185.1,302.1,590.2,559.7l106-828.6c-103.8,1.6-443.1,24.9-693.2,252.4C333.5,2149.4,332.3,2156.2,335.2,2161.7
					L335.2,2161.7z"/>
			</g>
		</g>
		<g>
			<g>
				<path class="st49" d="M1064.5,1865.4c0,0-277.5,295.6-115.6,903.8c0,0,669.1,260.5,1433.8,238.7c0,0,401.6-357.4,224-814.7
					C2606.6,2193.1,2156.1,1849.6,1064.5,1865.4z"/>
			</g>
		</g>
		<g>
			<g>
				<g>
					<path class="st41" d="M2292.2,3036.7c-724.1,0-1348.1-239.5-1354.6-242c-8.6-3.3-15-10.3-17.2-18.8
						c-85.3-320.3-48.4-554.6-2.5-694.8c50.4-153.8,121.6-230.8,124.6-234c5.5-5.8,13.3-9.2,21.5-9.3
						c568.5-8.2,961.2,82.2,1190.8,159.6c250.9,84.5,365.5,170.7,370.3,174.3c4.1,3.1,7.3,7.3,9.1,12
						c75.5,194.3,59.3,402.1-46.7,600.7c-79.6,149.1-180.4,239.7-184.7,243.5c-5.2,4.7-12.1,7.3-19.3,7.5
						C2353,3036.3,2322.5,3036.7,2292.2,3036.7z M973.8,2748.7c98.3,35.9,711,248.7,1396.4,231.8c24.5-23.8,103.1-104.6,165.7-222.6
						c97.8-184.2,113.3-368.5,46.1-547.8c-26.6-18.4-139.5-91.4-350.7-162.1c-222.7-74.5-602.7-161.7-1152.4-155.2
						c-18.9,23.7-68.8,93.2-105.9,207.9C930.6,2231.6,896.9,2449.7,973.8,2748.7z"/>
				</g>
			</g>
		</g>
		<g>
			<g>
				<path class="st43" d="M3305.2,3204.5c242.4,30.9,468-73.4,468-73.4l-118-22.9l279.6-59.2l-187.4-204.1l109.4,47.6
					c0,0-115.5-210.1-329.9-320.9C2867.2,2230.8,2559.5,3109.5,3305.2,3204.5z"/>
			</g>
		</g>
		<g class="st44">
			<g>
				<g>
					<path class="st45" d="M3647.7,3157.8l34.8,6.8c54.3-16.9,88.2-32.3,90.5-33.3L3647.7,3157.8z"/>
				</g>
			</g>
		</g>
		<g class="st44">
			<g>
				<g>
					<path class="st45" d="M3526.8,2628.2c129.4,66.8,222.6,169.7,276.3,240.9l53.7,23.4c0,0-53.5-97.3-155.3-194.4
						c-46.3-43.2-102.2-85.9-167.1-119.4c-376.8-194.7-638.7,8.6-655.1,236.4C2927.1,2609.1,3177.7,2447.8,3526.8,2628.2z"/>
				</g>
			</g>
		</g>
		<g>
			<g>
				<g>
					<path class="st50" d="M3223.1,3024.4c-17,0-33.8-1-49.9-3.1c-175.3-22.3-246.8-128.9-240-224.6
						c6.3-87.5,81.9-180.5,209.8-180.5c50.1,0,103,14.2,157.3,42.3c113.3,58.6,173.8,166.8,176.3,171.4l33.7,61.4l-15.8-6.9
						l45.5,49.6l-67.9,14.4l17.1,3.3l-65.9,30.5C3419.5,2983.9,3330.6,3024.4,3223.1,3024.4z"/>
				</g>
			</g>
			<g>
				<g>
					<path class="st51" d="M3142.9,2639.9c42.8,0,91.7,11.7,145.2,39.3c107.9,55.8,166.1,161.5,166.1,161.5l-55.1-24l94.3,102.7
						l-140.7,29.8l59.4,11.5c0,0-86.2,39.8-189,39.8c-15.2,0-30.8-0.9-46.6-2.9C2861.6,2957.7,2919.9,2639.9,3142.9,2639.9
						 M3142.9,2592.6c-63.9,0-123,22-166.2,61.8c-40.4,37.3-64.8,87.2-68.6,140.7c-7.6,106.7,70.3,225.3,261.7,249.7
						c17.2,2.2,35.2,3.3,53.3,3.3c113.3,0,207.3-42.9,211.2-44.7l90.9-42l61.2-13l-41-44.6l-46.6-84.7
						c-2.7-4.8-66.6-119.3-186.6-181.3C3254.3,2607.8,3197.3,2592.6,3142.9,2592.6L3142.9,2592.6z"/>
				</g>
			</g>
		</g>
		<g class="st46">
			<g>
				<path class="st41" d="M2860,1976.7c0,0-122,0-215.5,36.3c-61,23.7-127.6,31.5-192.5,20.1l-214-37.8l37.8,38.8l234.3,80.8
					l81.1,54l54.3-18.6c0,0,24.2-77.9,128.7-116.8l85.7-19l-3.6-16.5L2860,1976.7z"/>
			</g>
		</g>
		<g>
			<g class="st46">
				<g>
					<path class="st41" d="M931,2643.5l47.8,83.8c0,0,865.8,276.9,1437.2,212.4c0,0,92.9-80.3,166-246.2
						c43.3-121.2,66.4-274.6,29.6-454.9c0,0-3.9,33.2-14.6,83.9c-63.6,301.2-355.8,511-681.3,489.2
						c-326.4-21.8-794.4-75.8-976.4-208.4L931,2643.5z"/>
				</g>
			</g>
		</g>
		<g class="st46">
			<g>
				<path class="st41" d="M963.2,1976.7c0,0-111.4,176.7-138.4,381c-10.7,80.9-109.7,122-181.1,75.7
					c-129.1-83.7-284.5-201-320.2-299.5l1.5,62.3c0,0,269,401.1,610,549.3c0,0-132.1-442.4,44.2-741.9L963.2,1976.7z"/>
			</g>
		</g>
		<g>
			<g>
				<path class="st41" d="M3308.7,3180.3l28.6,3.5l14.3,1.8l14.5,0.9l29,1.8l29.1,0.2c4.9,0,9.7,0.2,14.6,0.2l14.6-0.5
					c9.7-0.4,19.5-0.5,29.3-1.2c19.5-1.6,39.1-2.9,58.6-5.4c39-4.7,78-11,116.7-19.6c38.8-8.3,77.1-18.6,115.2-30.8l0,0v0
					l-123.9,4.1l0,0l-5.7-1.7c-15-4.5-23.4-19.6-18.6-33.7c3.5-10.4,13.1-17.4,23.8-18.6l286-32.3l0,0l-202.5-191.8l0,0l-3.4-5.2
					c-5.5-8.4-2.6-19.4,6.3-24.6c6.6-3.8,14.6-3.3,20.6,0.5l101,64.7l0,0l0,0c-24.5-32.1-50.3-62.7-77.8-91.8
					c-27.2-29.3-55.8-57.1-85.9-83.1c-30.3-25.7-61-50.9-94.5-72.1l-12.2-8.3l-12.7-7.6c-8.5-5-16.8-10.3-25.4-15.1
					c-17.6-9-34.5-18.6-52.8-26.8c-72.1-33.4-148.7-56.9-226.3-62.8c-38.7-2.4-77.5-0.7-114.9,7.1c-18.7,3.7-36.9,9.4-54.7,15.8
					c-17.6,6.8-34.6,15.1-50.8,24.5c-64.5,38.3-113.3,99.7-135.4,169c-22,69.3-17.8,145.8,13.9,211.5
					c31.2,66.1,88.3,119.4,155.9,156.4c33.8,18.6,70.4,33.4,108.4,44.9C3229.4,3165.7,3268.7,3174.4,3308.7,3180.3z M3301.7,3228.8
					c-85-9.6-171-30.1-248-71.6c-38.3-20.7-74.5-46-105.1-76.9c-15.7-15.1-29.3-32.1-42-49.6c-12.5-17.6-23.2-36.4-32.4-55.8
					c-9-19.5-16-39.8-21.4-60.4c-5.3-20.7-8.3-41.8-9.8-62.9c-2.4-42.3,2.8-85,15.9-125.5c12.7-40.6,32.9-79.1,59.5-113.4
					c13.4-17,28.2-33.2,44.6-47.9c16.5-14.6,34.2-27.9,53-39.8c19-11.6,38.9-21.9,59.7-30.4c20.9-8.2,42.3-15.3,64.3-20.1
					c21.9-4.9,44.3-8.4,66.7-9.7c22.4-1.9,44.8-1.4,67.1-0.2c44.4,3.2,88,11.8,129.6,24.7c41.7,12.6,81.4,29.7,119.4,49
					c19.2,9.2,37.3,20.9,55.7,31.6c9,5.7,17.6,11.9,26.4,17.9l13.1,9.1l12.5,9.7c8.3,6.5,16.6,13,24.6,19.8l23.4,20.9
					c8,6.8,15,14.4,22.5,21.6c7.5,7.2,14.6,14.7,21.5,22.4c6.8,7.7,14,15.2,20.5,23.1l19.6,23.7l18.4,24.5
					c6.1,8.2,11.7,16.6,17.6,24.9c22.4,33.8,42.9,68.6,58.4,105.5v0l0,0l-117.7-30.6l23.5-29.3l0,0l172.3,216.3l0,0l0,0l-273.1,86.2
					l-0.5-54l0,0l112.1,49.9v0l0,0c-34.6,19.5-71.6,35.1-109.3,49c-37.9,13.5-76.8,24.7-116.6,33.3c-39.7,9.1-80.4,14.2-121.5,17.3
					l-30.9,1.6l-31-0.2l-15.5-0.1l-15.5-1L3301.7,3228.8z"/>
			</g>
		</g>
		<g class="st46">
			<g>
				<path class="st41" d="M3862.4,2970.1l-116.9,24.8l118,22.9c0,0-225.6,104.3-468,73.4c-396.9-50.6-495.3-323.1-401.2-515.7
					c-213.5,173.6-174.3,567.2,310.9,629c242.4,30.9,468-73.4,468-73.4l-118-22.9l279.6-59.2L3862.4,2970.1z"/>
			</g>
		</g>
	</g>
	<g>
		<g>
			<g class="st46">
				<g>
					<path class="st41" d="M2132.4,1935.7c0,0,90.9,220.5-302,243.7c0,0,14.6,46.5,34.8,72.2c20.2,25.8-94.4,117.7-180.3,16.7
						c-85.9-101-79.8-271.7,88.9-339.4S2132.4,1935.7,2132.4,1935.7z"/>
				</g>
			</g>
			<g class="st46">
				<g>
					<path class="st41" d="M1868.1,2245.4c0,0,59.1,50.6,52.7,100c-6.4,49.4-149,89.7-237.9,86.8c0,0-76.9-138.8,98.9-125.9
						L1868.1,2245.4z"/>
				</g>
			</g>
			<g>
				<g>
					<g>
						<g>
							<g>
								<path class="st52" d="M1868.1,2211.1c0,0,59.1,50.6,52.7,100c-6.4,49.4-149,89.7-237.9,86.8c0,0-76.9-138.8,98.9-125.9
									L1868.1,2211.1z"/>
							</g>
						</g>
						<g>
							<g>
								<path class="st41" d="M1691.9,2400.1c-3.1,0-6.1,0-9-0.1l-1.1,0l-0.5-1c-1.3-2.4-32.1-58.9-7.7-96.9
									c16.1-25.1,52.3-35.9,107.7-31.9l87-61.4l1.2,1c2.4,2.1,59.8,51.9,53.4,101.8C1916.4,2361.6,1780.3,2400.1,1691.9,2400.1z
									 M1684.2,2396c93.6,2.6,228.9-39.6,234.8-85.2c5.7-44-42.8-89.9-50.9-97.3l-85.6,60.5l-0.7-0.1c-54.2-4-89.5,6.1-104.8,30
									C1655.4,2337.6,1680.2,2388.4,1684.2,2396z"/>
							</g>
						</g>
					</g>
					<g class="st48">
						<g>
							<g>
								<path class="st53" d="M1868.1,2211.1l-86.3,61c-2.8-0.2-5.6-0.4-8.2-0.5c17.3,21.3,22.1,51,1.4,75.1
									c-23.6,27.5-60.4,39.8-96.6,41.7c2.6,6,4.6,9.6,4.6,9.6c89,2.8,231.6-37.4,237.9-86.8
									C1927.2,2261.7,1868.1,2211.1,1868.1,2211.1z"/>
							</g>
						</g>
						<g>
							<g>
								<path class="st41" d="M1691.9,2400.1c-3.1,0-6.1,0-9-0.1l-1.1,0l-0.5-1c-0.1-0.1-2.1-3.8-4.7-9.7l-1.1-2.6l2.8-0.2
									c40.5-2.2,74.3-16.7,95.2-41c21.8-25.3,12.9-54.9-1.4-72.6l-2.8-3.4l4.4,0.2c2.5,0.1,5,0.3,7.6,0.5l87-61.4l1.2,1
									c2.4,2.1,59.8,51.9,53.4,101.8C1916.4,2361.6,1780.3,2400.1,1691.9,2400.1z M1684.2,2396c93.5,2.6,228.9-39.6,234.8-85.2
									c5.7-44-42.8-89.9-50.9-97.3l-85.6,60.5l-0.7-0.1c-1.3-0.1-2.6-0.2-3.9-0.3c17.4,24.1,17.1,52.8-1.3,74.2
									c-21.1,24.5-54.8,39.5-95.1,42.2C1682.6,2392.9,1683.6,2394.9,1684.2,2396z"/>
							</g>
						</g>
					</g>
					<g>
						<g>
							<path class="st41" d="M1690.9,2413.5c-2.9,0-5.7,0-8.4-0.1c-5.4-0.2-10.3-3.2-12.9-7.9c-1.5-2.7-35.9-65.9-7.3-110.6
								c18.4-28.8,57.2-41.7,115.1-38.4l81.9-57.8c5.8-4.1,13.5-3.7,18.8,0.9c2.7,2.3,65.3,56.7,58,113.6
								C1927.9,2376.8,1775.4,2413.5,1690.9,2413.5z M1759.9,2286.6c-36.7,0-61.3,8.4-71.8,24.7c-13.3,20.7-3.5,53.7,4.4,71.5
								c90.2,0,208.8-40.3,213.1-73.6c3.6-28.2-21.9-61-38.9-78.3l-76,53.7c-2.9,2.1-6.4,3.1-10,2.8
								C1773.4,2286.9,1766.5,2286.6,1759.9,2286.6z"/>
						</g>
					</g>
				</g>
				<g>
					<g>
						<path class="st41" d="M1835,2312.6c-3.5-4.9-7.9-9-12.5-12.4c-4.6-3.4-9.5-6.2-14.6-8.1c-5.1-1.9-10.2-3.4-15.4-4
							c-2.5-0.5-5.2-0.5-7.8-0.7c-2.6-0.1-5.2,0.1-7.7,0.1l-0.6,0c-8.7,0.1-15.8-6.9-15.9-15.6c-0.1-8.7,6.9-15.8,15.6-15.9
							c2.3,0,4.5,0.5,6.5,1.3c3.2,1.4,6.4,2.7,9.5,4.2c3.1,1.7,6.1,3.1,9,5.1c5.8,3.6,11,8.1,15.7,12.8c4.6,4.8,8.5,10.1,11.6,15.7
							C1831.5,2300.8,1833.9,2306.6,1835,2312.6z"/>
					</g>
				</g>
			</g>
			<g>
				<g>
					<path class="st40" d="M2132.4,1890.8c0,0,90.9,220.5-302,243.7c0,0,14.6,46.5,34.8,72.2c20.2,25.8-94.4,117.7-180.3,16.7
						s-79.8-271.7,88.9-339.4C1942.5,1816.3,2132.4,1890.8,2132.4,1890.8z"/>
				</g>
				<g>
					<path class="st41" d="M1775.2,2271.7c-29.1,0-61.8-11.8-91.8-47.1c-46.5-54.7-65.2-129.4-49-195.1
						c16.2-65.7,65.5-118,138.7-147.4c167.5-67.2,358.2,6.1,360.1,6.8l0.8,0.3l0.3,0.8c0.3,0.7,27.2,67.8-12.8,131.6
						c-42,66.9-139,105.4-288.4,114.6c3.3,9.8,16.6,47.3,33.7,69.2c7.3,9.3,0,25.5-18.1,40.2
						C1833.2,2258.4,1806.2,2271.7,1775.2,2271.7z M1931.2,1857.7c-50.2,0-104.5,7.2-156.6,28.1c-72,28.9-120.4,80.3-136.3,144.7
						c-15.9,64.5,2.5,137.9,48.2,191.6c59.9,70.5,130.7,44.3,159.8,20.6c15.8-12.9,23.2-27.5,17.5-34.8
						c-20.2-25.7-34.6-70.9-35.2-72.8l-0.8-2.4l2.5-0.1c149.5-8.8,246.3-46.8,287.8-112.9c36.7-58.4,15.7-119.7,12.8-127.3
						C2121.7,1888.9,2035.6,1857.7,1931.2,1857.7z"/>
				</g>
			</g>
			<g class="st44">
				<g>
					<g>
						<path class="st45" d="M1712.5,2227.3c-85.9-101-79.8-271.7,88.9-339.4c72.6-29.1,149.2-31.9,212.9-25.6
							c-68.8-10.4-159.3-12.4-244.3,21.7c-168.7,67.7-174.8,238.4-88.9,339.4c30,35.3,63.6,47,93.7,46.3
							C1753.8,2263.7,1732.4,2250.7,1712.5,2227.3z"/>
					</g>
				</g>
			</g>
			<g>
				<g>
					<path class="st41" d="M1775.6,2284.7c-33.5,0-70.2-13.5-102.4-51.4c-50-58.8-69.3-136.1-51.8-207
						c17.3-70,69.4-125.6,146.7-156.6c172.3-69.2,361.9,3.7,369.9,6.8c3.9,1.5,7,4.6,8.6,8.4c1.2,3,29.8,74.3-13.8,143.8
						c-42.6,68-137.1,108.2-281.1,119.6c5.8,14.8,15,35.3,25.6,48.8c12.3,15.7,4.4,38.8-20.2,58.9
						C1837.9,2271.8,1808.3,2284.7,1775.6,2284.7z M1931.2,1871.1c-48.7,0-101.3,7-151.7,27.1c-87,34.9-117.8,92.9-128.3,135.5
						c-14.9,60.4,2.5,129.2,45.4,179.7c42.3,49.8,87.9,43.5,111.3,35.3c27.4-9.6,42.6-27.2,44.2-33.9
						c-21.1-27.8-35.7-73.7-36.4-75.7c-1.4-4.5-0.7-9.4,2-13.3c2.7-3.9,7-6.3,11.7-6.6c142.6-8.4,238.4-45.2,277.1-106.3
						c29.1-46.1,18.9-93.4,13.8-110.1C2098.1,1895,2021.6,1871.1,1931.2,1871.1z"/>
				</g>
			</g>
			<g>
				<g>
					<path class="st41" d="M1780.2,2107.5c3.8,3.2,8.2,5.4,12.6,7.2c4.4,1.8,8.9,3,13.4,3.9c4.5,0.8,9.1,1.2,13.5,1.3
						c2.2,0.1,4.5-0.1,6.7-0.1l6.6-0.5c8.7-0.7,16.4,5.8,17.1,14.5c0.7,8.7-5.8,16.4-14.5,17.1c-2.8,0.2-5.5-0.3-7.9-1.4l-0.1-0.1
						c-2.6-1.2-5.1-2.3-7.6-3.6c-2.5-1.4-4.9-2.6-7.3-4.1c-4.8-2.9-9.3-6.1-13.4-9.6c-4.1-3.6-7.9-7.4-11.2-11.5
						C1784.9,2116.7,1782,2112.3,1780.2,2107.5z"/>
				</g>
			</g>
			<g class="st46">
				<g>
					<path class="st41" d="M2126.6,1890.8c0,0-158.3-62.1-314.2-21.4l0,0c0,0,7.8-0.8,20.2-1.3c-41,7.9-81.5,23-117,47.5
						c0,0-93.3,59.9-40.3,106.1c43.6,37.9,93.7-18.1,118.1,4.2c11.3,10.3,7,29.2-7.2,34.9c-1.6,0.6-3.1,1.2-4.5,1.9
						c-79,32.7-31.8,38.2-16.5,64.5c10,17.2-36.7,103.5-89.9,91.6c1.3,1.6,2.5,3.2,3.8,4.7c85.9,101,200.5,9.1,180.3-16.7
						c-20.2-25.8-34.8-72.2-34.8-72.2C2217.5,2111.2,2126.6,1890.8,2126.6,1890.8z"/>
				</g>
			</g>
			<g>
				<g>
					<path class="st40" d="M1756,1913.2c-5.8,21.6-2.2,41,8.1,57.7l0,0c230.4,76.3,368-79.9,368.3-80.2c1.2-2.8,2.3-5.6,3.4-8.5
						c82.2-220.9-130.6-363.7-130.6-363.7c-9.8-7.2-219.5-49.8-271.5,106.5S1792.4,1777.2,1756,1913.2z"/>
				</g>
			</g>
			<g class="st42">
				<g>
					<path class="st41" d="M2045.6,1529.9c-2.6-1.9-126.4-17.6-150.6-20.1c-61.9,6.8-131.1,34.4-158.1,115.3
						c-52,156.3,58.7,152.1,22.3,288.1c-5.8,21.6-5.2,43.2,5.2,59.8c31.6,10.5,63.7,15,91.7,17.7c133.1-13.3,209.5-99.8,209.7-100
						c1.2-2.8,2.8-5.5,3.4-8.5C2107.1,1669.8,2045.6,1529.9,2045.6,1529.9z"/>
				</g>
			</g>
			<g>
				<g>
					<path class="st41" d="M2120.4,1902.8c-1.3-6.4,0.4-23.9,1-25.7c32.1-86.4,21.3-170.4-32.3-249.9
						c-38.2-56.6-85.7-90.9-91.9-95.2c-10.1-3.7-97.6-22-169.3,10.1c-39.3,17.5-66.1,47.1-79.7,88.1c-25.5,76.7-9.5,110.4,7.4,146.2
						c15.8,33.5,33.8,71.4,15.2,141.1c0,0,0,0,0,0c-3.9,14.6-2.6,28.4,3.7,41l-28,8.8c-13.1-21-12-33.1-5.4-57.7
						c15.7-58.8,2.3-87.2-13.3-120c-17.9-37.8-38.2-80.6-8.8-169c19-57.2,59-95.9,118.9-115c76.5-24.4,162.2-8,175.7,0.6l0,0
						c2.3,1.5,56.2,38.1,100.3,103.1c59.1,87.1,71.6,183.5,36.2,278.6c-1.1,3.1-2.3,6.1-3.6,9c-0.6,1.6-1.6,3-2.7,4.3 M1756,1913.4
						L1756,1913.4L1756,1913.4z M1997.8,1532.2L1997.8,1532.2L1997.8,1532.2z M1996.1,1531.1
						C1996.1,1531.1,1996.1,1531.1,1996.1,1531.1C1996.1,1531.1,1996.1,1531.1,1996.1,1531.1z"/>
				</g>
			</g>
			<g>
				<g>
					<path class="st54" d="M1694,1973.9c0,0-3,67.2-76.8,51.5s-48.5-57.6-101.5-42.9c-53,14.6-58.1-51.5-5.6-78.8
						c52.5-27.3,104.1-5,107.1,9.6C1620.3,1927.8,1694,1973.9,1694,1973.9z"/>
				</g>
				<g>
					<path class="st41" d="M1638.1,2029.7c-6.6,0-13.7-0.8-21.3-2.4c-36.6-7.8-49.4-22.1-58.8-32.6c-9.8-10.9-15.7-17.5-41.7-10.3
						c-20.7,5.7-36.6-0.1-42.6-15.4c-7.6-19.4,3.9-50.5,35.7-67c36.3-18.9,72.8-14.3,93-4.7c9.6,4.6,15.8,10.3,16.9,15.7
						c2.1,10.1,46.5,41,75.9,59.3l1,0.6l-0.1,1.1c0,1.2-1.5,28.7-22.3,44.8C1664.2,2026,1652.3,2029.7,1638.1,2029.7z
						 M1534.4,1977.4c13.4,0,19.2,6.5,26.5,14.6c9.5,10.6,21.4,23.9,56.7,31.4c22.6,4.8,40.6,2.2,53.6-7.8
						c17.1-13.2,20.2-35.5,20.7-40.7c-11.2-7-73.7-46.8-76.6-61.2c-0.8-4-6.5-9-14.8-12.9c-19.4-9.2-54.4-13.5-89.5,4.7
						c-29.9,15.5-40.8,44.3-33.8,62.1c5.2,13.3,19.4,18.2,37.9,13.1C1523.1,1978.4,1529.3,1977.4,1534.4,1977.4z"/>
				</g>
			</g>
			<g class="st44">
				<g>
					<g>
						<path class="st45" d="M1518.1,1931.2c52.5-27.3,104.1-5,107.1,9.6c2.2,10.8,43.2,38.8,64.4,52.6c4.1-10.6,4.5-19.6,4.5-19.6
							s-73.8-46-76.8-60.6c-3-14.6-54.5-36.9-107.1-9.6c-37.1,19.2-45.4,57.8-28.5,73.7C1484.1,1961.1,1496,1942.7,1518.1,1931.2z"
							/>
					</g>
				</g>
			</g>
			<g>
				<g>
					<path class="st41" d="M1638.2,2043.1c-7.6,0-15.6-0.9-24.2-2.7c-40.8-8.7-56-25.6-66-36.8c-8.4-9.4-10.2-11.4-28.2-6.4
						c-32.9,9.1-52.2-7-58.7-23.5c-9.9-25.3,3-63.6,41.9-83.8c40.6-21.1,80.8-16.4,104.9-4.9c9.3,4.4,20.8,12,23.9,23.6
						c5.7,8.5,40.5,33.6,70.2,52.1c4.7,2.9,7.5,8.2,7.2,13.7c-0.1,1.4-1.9,34.9-27.5,54.7C1670,2038.5,1655.4,2043.1,1638.2,2043.1z
						 M1534.4,1964.1c17.7,0,27,8.4,36.5,19c8.7,9.7,18.5,20.6,49.5,27.2c18.5,3.9,32.8,2.2,42.5-5.2c8.6-6.5,12.5-16.6,14.3-23.7
						c-65.2-41.6-73-57.5-74.7-63.6c-6-6.9-44-22-85.3-0.5c-24.5,12.7-31.8,34.5-27.5,45.3c3.3,8.3,13.7,7.3,21.9,5.1
						C1520.6,1965.2,1528,1964.1,1534.4,1964.1z M1602.9,1918.3L1602.9,1918.3L1602.9,1918.3z M1632.3,1910.1
						C1632.3,1910.1,1632.3,1910.1,1632.3,1910.1C1632.3,1910.1,1632.3,1910.1,1632.3,1910.1z"/>
				</g>
			</g>
			<g>
				<g>
					<path class="st40" d="M1983.9,1633.1c0,0-76.8-26.9-161.6,45.8c-84.9,72.7-205.1,234.4-205.1,234.4s6.6,67.7,67.7,74.2
						c0,0,243.4-109.9,312.1-170.2"/>
				</g>
			</g>
			<g class="st44">
				<g>
					<g>
						<path class="st45" d="M1983.5,1822.4c-0.4,0.1-72.4,14.8-141.9,51.1c-41.1,21.5-78,54.6-107.7,85.7
							C1803.1,1926.3,1926.4,1865.4,1983.5,1822.4z"/>
					</g>
				</g>
			</g>
			<g>
				<g>
					<path class="st41" d="M1983.2,1635.3c-20.4,0.8-39.3,3.8-57.5,8.3c-18.1,4.7-35.7,10.7-52.1,19.8c-4,2.4-8.1,4.7-12.1,7.2
						c-3.8,2.7-7.7,5.4-11.6,8c-3.9,2.6-7.4,5.9-11.1,8.8l-5.5,4.5l-5.4,5c-14.6,12.9-28.6,27.3-42.5,41.5
						c-27.7,28.8-54.4,58.9-80.5,89.6c-26,30.8-51.2,62.5-75.3,94.5l3-10.6c0.1,1.1,0.5,3.4,0.9,5.1c0.4,1.9,0.8,3.8,1.4,5.7
						c1,3.8,2.3,7.5,3.7,11.1c2.9,7.2,6.8,13.7,11.4,19.3c4.5,5.7,10.1,10,16.3,13.2c6,3.5,13.2,4.9,20.4,6.1l-8,1.3
						c26.8-12.2,53.7-24.8,80.1-37.9c26.5-13.2,52.4-27.3,78.8-40.6c26.4-13.2,52.9-26.1,79.4-38.8c26.6-12.9,52.9-25.7,78.5-40.7
						l0.2-0.1c1.1-0.7,2.6-0.3,3.2,0.9c0.5,0.9,0.4,2-0.3,2.8c-5,5.6-10.1,11.4-15.7,16.6c-5.6,5-11.2,10.3-17.1,15
						c-5.9,4.8-11.8,9.4-17.9,14c-6.1,4.5-12.2,8.8-18.4,13.1c-24.8,17-50.5,32.5-76.8,46.6c-26.4,14-53.5,26.4-80.5,39.2
						c-27,12.7-53.8,25.6-81,38l-0.6,0.3c-2.4,1.1-5,1.4-7.4,1c-10.6-1.6-21.5-3.9-31.4-9.4c-9.8-5.1-18.8-12.3-25.6-20.8
						c-6.9-8.4-12.3-17.7-16.2-27.3c-2-4.8-3.6-9.7-5-14.7c-0.7-2.5-1.3-5-1.8-7.5c-0.5-2.7-1-4.9-1.3-8.3
						c-0.4-3.9,0.7-7.6,2.8-10.5l0.1-0.2c12.4-16.4,24.7-32.5,37.3-48.6c12.6-16,25.2-32.1,38.1-47.9c25.7-31.7,52-63.1,80.2-93
						l10.8-11.1c3.6-3.7,7.2-7.4,11-10.9l11.2-10.8c3.8-3.6,7.8-7,11.7-10.4l5.9-5.2l6.4-5c4.3-3.2,8.4-6.8,13-9.7l13.7-8.9
						c4.7-2.7,9.6-5.2,14.5-7.7c19.6-9.5,40.8-16.9,62.9-18.3c21.9-1,44.5,2.2,63.1,14.4c1.1,0.7,1.4,2.2,0.7,3.3
						c-0.4,0.7-1.2,1.1-1.9,1.1L1983.2,1635.3z"/>
				</g>
			</g>
			<g class="st42">
				<g>
					<path class="st41" d="M1694,1933.3c-72.3-56.8,253.8-279.6,284.3-193.3c30.6,86.3-64.1,132.2-64.1,132.2s0,0,0,0
						c34.6-19.8,64.8-39.1,82.8-54.9l-13.1-184.2c0,0-76.8-26.9-161.6,45.8c-84.9,72.7-205.1,234.4-205.1,234.4s6.6,67.7,67.7,74.2
						c0,0,39.4-17.8,90.9-42.9C1745.8,1951.6,1716.3,1950.7,1694,1933.3z"/>
				</g>
			</g>
			<g>
				<g>
					<g>
						<g>
							
								<ellipse transform="matrix(3.789803e-02 -0.9993 0.9993 3.789803e-02 364.5575 2905.8181)" class="st54" cx="1691.3" cy="1263.6" rx="108.9" ry="92.6"/>
						</g>
					</g>
					<g>
						<g>
							<path class="st41" d="M1690.3,1374.5c-1,0-2.1,0-3.1-0.1c-52.1-2-92.6-53.3-90.3-114.4c1.1-29.5,12-57,30.5-77.2
								c18.6-20.3,42.9-31,68.1-30c52.1,2,92.6,53.3,90.3,114.4c-1.1,29.5-12,57-30.5,77.2
								C1737.4,1363.9,1714.4,1374.5,1690.3,1374.5z M1692.4,1156.6c-23,0-45,10.2-62.1,28.8c-17.9,19.6-28.4,46.1-29.5,74.7
								c-2.2,58.9,36.6,108.4,86.5,110.3c24.2,0.9,47.2-9.3,65.1-28.8c17.9-19.6,28.4-46.1,29.5-74.7
								c2.2-58.9-36.6-108.4-86.5-110.3C1694.4,1156.7,1693.4,1156.6,1692.4,1156.6z"/>
						</g>
					</g>
				</g>
				<g>
					<g>
						<path class="st41" d="M1690.3,1388.2c-1.2,0-2.5,0-3.7-0.1c-59.6-2.3-106-60-103.4-128.6c1.2-32.8,13.4-63.3,34.1-85.9
							c21.4-23.3,49.3-35.6,78.8-34.5c59.6,2.3,106,60,103.4,128.6c-1.2,32.8-13.4,63.3-34.1,85.9
							C1744.9,1376,1718.3,1388.2,1690.3,1388.2z M1692.4,1170.3c-19.2,0-37.6,8.6-52,24.4c-15.7,17.2-24.9,40.6-25.9,65.9
							c-1.9,51.4,30.9,94.5,73.3,96.1c19.9,0.8,39.4-7.9,54.5-24.3c15.7-17.2,24.9-40.6,25.9-65.9c1.9-51.4-30.9-94.5-73.3-96.1
							C1694.1,1170.4,1693.2,1170.3,1692.4,1170.3z"/>
					</g>
				</g>
				<g>
					<g>
						<g>
							<path class="st54" d="M2348.9,1488.4C2348.9,1488.4,2348.8,1488.4,2348.9,1488.4c-30.2,52.1-90.4,73.6-134.6,48.1
								c-10.1-5.8-18.5-13.6-25-22.8c-79.5,93.3-193,156-350.6,97.9c-146.4-53.9-182.7-160.9-177-264.7
								c7.5-135.2,86.3-264.9,86.3-264.9l55.2-92.6l539.2,224.1c-8.9,26.5-24,72.4-47,124.4c9.6,1.5,19,4.7,27.8,9.8
								C2367.4,1373.3,2379,1436.3,2348.9,1488.4z"/>
						</g>
					</g>
					<g>
						<g>
							<path class="st41" d="M1955.9,1636.1c-37.7,0-77-7.5-117.9-22.6c-125.5-46.2-185.5-135.9-178.3-266.6
								c7.4-134.1,85.8-264.5,86.6-265.8l56-94.1l1.6,0.7l540.9,224.8l-1.3,3.9c-8.8,26.4-23.5,70.4-45.3,120.1
								c9.2,1.7,17.9,5,26,9.6c21.9,12.7,36.7,34.6,41.7,61.7c4.9,27-0.5,56-15.3,81.6l-0.2,0.3c-30.6,52.7-92.1,74.5-137.1,48.5
								c-9.4-5.5-17.6-12.6-24.2-21.3C2120.8,1596.2,2042.7,1636,1955.9,1636.1z M1804,991.9l-54.3,91.2c-0.8,1.3-78.7,130.9-86,264
								c-7.1,128.8,52,217.2,175.7,262.7c134,49.4,251.3,16.6,348.4-97.4l1.6-1.9l1.5,2.1c6.5,9.1,14.7,16.6,24.4,22.2
								c43.2,25,102.4,3.7,131.9-47.3l0.2-0.3c14.2-24.7,19.4-52.7,14.7-78.7c-4.7-26-18.9-46.9-39.8-59c-8.3-4.8-17.5-8-27.1-9.6
								l-2.5-0.4l1-2.3c22.3-50.5,37.3-95.3,46.2-122.1l0.2-0.5L1804,991.9z M2349.1,1488.6L2349.1,1488.6l-0.2-0.3L2349.1,1488.6z"
								/>
						</g>
					</g>
				</g>
				<g class="st42">
					<g>
						<path class="st41" d="M2347.8,1489.5c-30.1,52.1-90.3,73.5-134.5,48c-10.1-5.8-18.5-13.6-25-22.8
							c-79.5,93.3-193,156-350.6,97.9c-146.4-53.9-182.7-160.9-177-264.7c0,0,0,0,0,0.1c28.8,119.9,127.4,222.6,273.5,230.2
							c146.1,7.5,249.7-110.1,249.7-110.1C2263.3,1547.9,2344.8,1491.6,2347.8,1489.5z"/>
					</g>
				</g>
				<g>
					<g>
						<path class="st41" d="M1955.4,1651c-39.4,0-80.5-7.9-123.2-23.6c-88.3-32.5-146.2-86.7-172.2-161.2
							c-59.2-169.6,68.1-382.3,73.6-391.3l55.1-92.5c4-6.7,12.3-9.4,19.5-6.5l539.2,224.1c7.6,3.2,11.5,11.6,8.8,19.4l-0.7,2.2
							c-8,24.1-20.9,62.6-39.6,106.8c4.9,1.8,9.5,4,14.1,6.6c25.5,14.7,42.6,40,48.3,71.1c5.5,30.2-0.5,62.5-16.9,90.9l0,0
							c-34.4,59.5-104.3,83.6-156,53.8c-6.2-3.6-12-7.8-17.2-12.7C2119.5,1613.3,2041.6,1651,1955.4,1651z M1808.7,1010.1l-48.2,81
							c-1.3,2.2-125.2,209.3-70.8,364.9c22.8,65.1,74.4,112.9,153.4,142c128.1,47.2,240.2,15.8,333.2-93.4c3.1-3.7,7.7-5.7,12.6-5.5
							c4.8,0.2,9.3,2.6,12.1,6.6c5.4,7.5,12.1,13.7,20.1,18.3c36.7,21.2,87.5,2.2,113.2-42.3c0,0,0,0,0,0
							c12.7-22,17.4-46.7,13.2-69.6c-4-22-15.8-39.6-33.2-49.6c-6.9-4-14.4-6.6-22.4-7.9c-4.8-0.8-9-3.7-11.3-8
							c-2.3-4.3-2.5-9.4-0.6-13.8c19.1-43.2,32.8-82.3,41.9-109.2L1808.7,1010.1z"/>
					</g>
				</g>
				<g>
					<g>
						<path class="st41" d="M1976.7,1407.9c0,0-3.7,19.9-15.1,40.9c-15.4,28.4-44.9,58.8-98.5,45.4c-5.8-1.5-11.1-3.2-15.8-5.3
							c-67.6-28.9-34.8-111.4-34.8-111.4S1893.8,1423.1,1976.7,1407.9z"/>
					</g>
				</g>
				<g>
					<g>
						<g>
							<path class="st55" d="M1961.6,1448.8c-15.4,28.4-44.9,58.8-98.5,45.4c-5.8-1.5-11.1-3.2-15.8-5.3c1-22.3,27-43.1,61.3-48
								C1928.9,1438,1947.9,1441.3,1961.6,1448.8z"/>
						</g>
					</g>
					<g>
						<g>
							<path class="st41" d="M1888.2,1499.4c-7.8,0-16.3-1-25.5-3.3c-5.8-1.4-11.2-3.2-16.1-5.4l-1.3-0.5l0.1-1.4
								c1.1-23.5,28.2-44.9,63-49.9c19.9-2.8,39.7,0.1,54.2,8.1l1.7,0.9l-0.9,1.7C1950.3,1473.7,1927.2,1499.4,1888.2,1499.4z
								 M1849.4,1487.7c4.4,1.8,9.2,3.4,14.3,4.6c51.4,12.9,80.1-15.7,95.3-42.7c-13.6-6.9-31.7-9.3-50-6.7
								C1876.6,1447.5,1851.4,1466.6,1849.4,1487.7z"/>
						</g>
					</g>
				</g>
				<g>
					<g>
						<path class="st41" d="M1887.9,1510c-8.9,0-18.2-1.2-27.8-3.6c-6.3-1.6-12.3-3.6-17.7-5.9c-62.3-26.6-54.4-95.1-41.5-127.6
							c1.3-3.4,4.1-6,7.5-7.2c3.4-1.2,7.2-0.9,10.4,0.9c0.8,0.4,78.5,43.1,155.9,28.9c4.1-0.8,8.3,0.6,11.2,3.5
							c2.9,2.9,4.2,7.1,3.5,11.2c-0.2,0.9-4.2,22.1-16.4,44.6C1953,1491,1923.5,1510,1887.9,1510z M1820.2,1395.4
							c-5.2,21.8-9.2,64.3,32.1,81.9c4.2,1.8,8.9,3.4,13.9,4.6c36.9,9.2,65.2-4,84.4-39.2c3.8-7.1,6.7-14,8.9-19.9
							C1900,1427.8,1845,1406.9,1820.2,1395.4z"/>
					</g>
				</g>
				<g>
					<g>
						<g>
							<path class="st41" d="M1767.2,1247.1c11.6-34.2,40.3-55.3,63.9-47.3c23.6,8,33.4,42.3,21.7,76.4
								c-11.6,34.2-40.2,55.3-63.9,47.3C1765.3,1315.5,1755.6,1281.3,1767.2,1247.1z"/>
						</g>
					</g>
				</g>
				<g>
					<g>
						<g>
							<path class="st0" d="M1809.2,1247.5c4.2-12.4,14.2-20.2,22.4-17.4c8.1,2.8,11.3,15,7.1,27.4c-4.2,12.4-14.2,20.2-22.4,17.4
								C1808.1,1272.2,1804.9,1259.9,1809.2,1247.5z"/>
						</g>
					</g>
					<g>
						<g>
							<path class="st41" d="M1819.6,1277.4c-1.3,0-2.7-0.2-4-0.6c-9.1-3.1-12.9-16.5-8.3-29.9l0,0c4.6-13.4,15.7-21.7,24.8-18.6
								c4.6,1.6,7.9,5.6,9.4,11.5c1.4,5.5,1,12.1-1.1,18.4C1836.5,1269.6,1827.8,1277.4,1819.6,1277.4z M1811,1248.1
								c-3.9,11.3-1.2,22.5,5.9,25c7.1,2.4,16-4.8,19.9-16.2c1.9-5.6,2.3-11.4,1-16.2c-1.2-4.5-3.6-7.6-6.9-8.7
								C1823.8,1229.5,1814.9,1236.8,1811,1248.1L1811,1248.1z"/>
						</g>
					</g>
				</g>
				<g>
					<g>
						<path class="st41" d="M2115.6,1315.9c-9.6,1.2-18.7,2.5-27.7,4c-8.9,1.5-17.6,3.4-25.9,5.6c-8.4,2.1-16.3,5.1-23.9,8.3
							c-7.7,3.2-14.5,7.4-21.3,11.8l-6-22.9c4.6,0.6,8.4,1.5,12.5,2.5c4,0.9,8,2.2,11.9,3.5c7.9,2.7,15.6,5.9,22.8,10.1
							c7.3,4.2,14.2,9.1,20.2,15.1c5.9,6.1,10.9,13.2,13.4,21.1c-6.7-4.9-13.3-8.5-20.1-11.4c-6.8-2.9-13.9-5.1-21-7.1
							c-7.1-2-14.3-3.5-21.5-5c-3.6-0.8-7.3-1.3-10.9-2c-3.5-0.6-7.4-1.1-10.6-1.5l-0.9-0.1c-6.8-0.9-11.6-7.1-10.7-13.9
							c0.5-3.7,2.6-6.9,5.6-8.8c4.4-2.8,8.5-6.2,13.2-8.3c2.3-1.2,4.6-2.4,7-3.5l7.2-2.7c9.7-3.3,19.7-5.4,29.6-5.8
							c9.9-0.6,19.8,0,29.4,1.8C2097.7,1308.4,2107.1,1311.2,2115.6,1315.9z"/>
					</g>
				</g>
				<path class="st55" d="M1965.7,1446.9c0,0-97.3-32.5-132.9,39.1c-35.6,71.7,41.1,86.8,63.5,56.6S1935.4,1470.5,1965.7,1446.9z"/>
				<path class="st56" d="M2232.1,1201.5c0,0-56.3,144.2-6.9,230.8c0,0,90.7-45.3,123.6-74.2c0,0,4.1-2.7,17.9,1.4
					c13.7,4.1,31.6,5.5,31.6,5.5l9.6-19.2l-4.1-22c0,0,19.2,8.2,24.7,6.9c5.5-1.4,15.1-5.5,15.1-5.5l5.5-17.9l-6.9-22l-13.7-15.1
					l13.7-12.4l30.2-1.4l8.2-19.2l-17.9-17.9l-19.2-17.9c0,0,12.4-13.7,44,1.4c31.6,15.1,38.5,15.1,38.5,15.1s-11-42.6-46.7-60.4
					c-35.7-17.9-59.9-46.3-61.6-56.1s42.3,38.3,86.3,31.4s52.2-31.6,52.2-31.6s-23.4-16.5-37.1-24.7c-13.7-8.2-8.2-28.8-59.1-38.5
					c-50.8-9.6-27.5,2.7-65.9-13.7c0,0,27.5-24.7,53.6-11c26.1,13.7,49.5,17.9,57.7,12.4c8.2-5.5-16.5-34.3-22-38.5
					c-5.5-4.1-19.2-15.1-67.3-33s-81-144.2-129.1-171.7c-48.1-27.5-61.8-38.5-46.7-6.9c15.1,31.6,17.9,48.1,17.9,48.1
					s-6.9,16.5-15.1,9.6c-8.2-6.9-12.4-16.5-24.7-27.5c-12.4-11-30.2-38.5-42.6-44c-12.4-5.5-45.3-30.2-72.8-34.3
					c-27.5-4.1-52.2-6.9-52.2-6.9s-41.2-12.4,9.6,19.2s57.7,45.3,60.4,49.5c2.7,4.1,2.7,13.7,2.7,13.7s-13.7,5.5-28.8,5.5
					c-15.1,0-22-1.4-27.5-5.5c-5.5-4.1-2.7,1.4-26.1-16.5c-23.4-17.9-15.1-27.5-37.1-31.6c-22-4.1-8.2-13.7-41.2-4.1
					c-33,9.6-33,8.2-37.1,12.4c-4.1,4.1-31.6,19.2-31.6,19.2l33,23.4c-31.6,12.4-17.9,13.7-35.7,13.7s-16.5-1.4-22,0
					c-5.5,1.4,1.4,1.4-11,1.4c-12.4,0-30.2-1.4-34.3-9.6c-4.1-8.2-37.1-54.9-37.1-54.9s-19.2-4.1-26.1-4.1s-23.4-5.5-35.7,1.4
					c-12.4,6.9-12.4-11,11,13.7c23.4,24.7,16.5,15.1,27.5,27.5c11,12.4,12.4,5.5,11,12.4c-1.4,6.9-8.2,15.1-15.1,17.9
					s-28.8,4.1-38.5,11s-11,0-35.7,17.9c-24.7,17.9-26.1,23.4-26.1,23.4l30.2-6.9c0,0-5.5,23.4-8.2,27.5
					c-2.7,4.1-19.2,17.9-26.1,35.7c-6.9,17.9-8.2,23.4-8.2,30.2c0,6.9,22,9.6,22,9.6s4.1,12.4,4.1,20.6s-4.1,28.8-4.1,35.7
					c0,6.9-1.4,46.7-1.4,53.6c0,6.9,8.2,147,8.2,147l81-190.9C1756.9,1039.5,1763.7,1145.2,2232.1,1201.5z"/>
				<path class="st57" d="M2165.7,1196.1c0,0-157.5-26.6-163-29.3c-5.5-2.7-177.7-63.2-177.7-63.2l-74.2-47.6l-35.7-115.4l135.5,120
					c-39.4-49.5-27.5-206-28.4-174s41.2,139.2,75.1,176.7c33.9,37.5,112.6,24.7,112.6,24.7c-33-16.5-50.4-88.8-50.4-88.8
					c52.2,96.2,156.6,80.6,156.6,80.6c-20.1-54.9,5.5-153.8,5.5-153.8s0.9,93.4,27.5,150.2s183.2,44,183.2,44s-42.1,87,22,133.7
					c64.1,46.7,159.3-55.9,159.3-55.9l-51.3,9.2c0,0,5.5,11.9,8.2,15.6c2.7,3.7,14.7,17.4,14.7,17.4l-17.4,11.9l-30.2,8.2v26.6
					l11,22.9c0,0-12.8,18.3-20.1,21.1c-7.3,2.7-22,12.8-22,12.8l-7.3,15.6l-33-4.6c0,0-25.6-0.9-40.3,15.6
					c-14.7,16.5-104.4,55.9-104.4,55.9c-31.2-44.1,3.1-203.5,7-221c0.2-1,0.3-1.6,0.3-1.6L2165.7,1196.1z"/>
				<path class="st41" d="M2218.4,1454.9l-8.1-14.1c-41.8-73.2-15.5-180.1-1.4-224.8c-98.6-12.5-183.7-28.3-253.2-46.9
					c-60.2-16.1-109.1-34.5-145.3-54.7c-24.4-13.5-40.4-26.4-50.8-37.6l-96.7,227.8l-4.3-73.2c-1.4-23.5-8.3-141-8.3-148
					c0-3.7,0.3-15.2,0.7-27.3c0.3-10.8,0.7-23.1,0.7-26.3c0-4.5,1-11.2,2.1-18.9c0.9-5.8,2-13.8,2-16.8c0-1.5-0.3-3.5-0.7-5.7
					c-20.6-5.3-25.3-15.9-25.3-24.5c0-10.2,2.3-18.1,9.4-36.4c5.4-14.1,15.2-25.6,22-33l-25.3,5.8l6.8-27.1
					c1.4-5.7,6.4-14.1,32.7-33.1c16.6-12,24.8-14.7,32.4-16.6c2.3-0.6,2.3-0.6,3.4-1.3c9.3-6.7,22.9-9.2,33.7-11.2
					c3-0.6,7-1.3,8.4-1.8c0.1,0,0.1-0.1,0.2-0.1c-0.8-0.8-1.7-1.8-2.6-2.8c-4.1-4.6-5-5.3-6.6-6.7c-2.9-2.5-6.9-5.9-20.5-20.4
					c-3.2-3.4-5.6-5.5-7.3-6.9c-5.9-0.9-10.8-4-13.6-8.2c-5.1-7.7-3.6-17.8,3.6-23.5c4.6-3.7,9.5-4.5,14.4-3.8
					c13.2-5.6,27.1-3.5,35.8-2.2c1.6,0.2,3.7,0.6,4.5,0.6c8,0,24.7,3.4,29.6,4.5l6.6,1.4l3.9,5.5c7.4,10.4,30.5,43.4,37.2,55
					c2,0.8,7.6,2.3,20.2,2.3c1.5,0,2.8,0,3.9,0c1-0.4,2-0.6,2.9-0.9c5.4-1.3,8.2-1.2,12.4-0.9c2.5,0.2,6.2,0.4,13.7,0.4
					c0.4,0,0.8,0,1.2,0l-30.7-21.7l24-13.2c11.1-6.1,24.9-14.2,28.1-16.7c5.9-5.8,10-6.9,21.9-10.1c5-1.4,12-3.3,22.2-6.2
					c21.2-6.2,30.7-7,42,1c1.6,1.2,2.7,1.9,7.2,2.8c18.1,3.4,24.3,10.8,30.5,20c2.9,4.3,5.9,8.7,13.8,14.8
					c13.7,10.5,16.6,11.5,17.6,11.9c2.3,0.8,4.9,1.9,8.4,4.5c1.2,0.9,4.2,2.1,17.2,2.1c1.9,0,3.9-0.1,5.8-0.3
					c-9-9.6-25.5-21.9-49.2-36.6c-10.5-6.6-18-11.8-22.9-15.9c-12.4-10.6-11.8-20.2-9-26.3c7-15.6,26.5-10.9,34.8-8.5
					c5.9,0.7,27.4,3.2,51.3,6.8c23.1,3.5,46.9,17.8,64.2,28.2c5.4,3.2,10.5,6.3,13,7.4c11.2,5,21.5,17.4,32.4,30.5
					c5,6,10.2,12.3,14,15.8c-1.3-3-2.8-6.1-4.4-9.5c-5.3-11-13.2-27.6-1.2-38.6c10.7-9.9,24.5-3.1,30.4-0.3
					c6.6,3.2,15.2,8.2,26.2,14.6c4.7,2.7,9.8,5.7,15.4,8.9c27.4,15.7,47.6,52.8,68.9,92.1c18.2,33.5,38.8,71.4,57.7,78.4
					c48.8,18.1,64.4,29.9,71.1,34.9l0.5,0.4c3,2.3,31.1,29.4,30.5,49.3c-0.2,7.1-3.6,13.4-9.3,17.2c-1,0.7-2.1,1.3-3.2,1.8
					c5.3,4.8,9.1,9.9,12.5,15c1.5,2.2,3,4.5,3.8,4.9c14.1,8.5,37.2,24.7,38.2,25.4l10.4,7.4l-4,12.1c-1.2,3.5-13.1,34.9-65.8,43.1
					c-2.1,0.3-4.1,0.6-6.2,0.7c31.5,23.4,41.7,61.4,42.2,63.2l5.5,21.5h-22.2c-2.4,0-9,0-34.7-11.6l9.7,9.7l-17.1,39.8l-28.5,1.3
					l2,2.1l9.6,30.7l-9.4,30.5l-7.3,3.1c-1.8,0.8-11.2,4.7-17.7,6.4c-1.2,0.3-3.3,0.8-6.9,0.6l0.1,0.3l-17.4,34.7l-11.5-0.9
					c-0.8-0.1-19.9-1.6-35.2-6.2c-2.6-0.8-4.5-1.2-5.8-1.4c-36.8,29.8-119.4,71.3-123,73.1L2218.4,1454.9z M2248.1,1207.8
					c-0.7,1.8-46.5,121.9-15,201.2c26.9-14.1,81.5-43.7,104.5-63.8l0.8-0.7l0.9-0.6c4.9-3.3,14.6-6.1,32.3-0.8
					c5.3,1.6,11.5,2.7,16.7,3.5l1.6-3.3l-9-47.9l29.6,12.7c5.6,2.4,12.4,4.7,15.7,5.4c1-0.3,2.2-0.7,3.4-1.2l1.5-4.9l-4.1-13.3
					l-22.8-25.1l31.1-28l23.7-1.1l-8.1-8.1l-31.4-29.1l11.3-12.6c2-2.2,19.6-20.1,56-6.1c-4.3-4.2-9.4-8.1-15.2-11
					c-35.1-17.6-67.6-49-70.8-68.7c-1.2-7.5,1.8-14.6,8-18.5c10.7-6.8,20.1-0.3,30.1,6.5c13.9,9.5,39.7,27.2,62.5,23.6
					c14.7-2.3,24.1-6.8,29.9-11c-7-4.7-15-10.1-21-13.6c-7.5-4.5-11.5-10.5-14.7-15.4c-5.1-7.6-10.3-15.5-38.7-20.9
					c-20.3-3.8-27.5-3.9-32.2-4c-10.7-0.1-15.3-1.4-37.3-10.9l-24.7-10.6l20-18c13.5-12.2,44.1-28.7,73.1-13.4
					c9.3,4.9,17.4,8.1,24,10c-2.6-3.2-5.1-5.9-6.7-7.3l-0.5-0.3c-5-3.8-18.2-13.8-62.4-30.1c-31-11.5-52.8-51.7-75.9-94.2
					c-17.3-31.8-36.8-67.8-55.8-78.7c-4.7-2.7-9.1-5.2-13.2-7.6c7.6,19.1,9.6,29.6,9.8,31.1l0.8,4.9l-1.9,4.6
					c-2.2,5.3-8.8,18.1-21.4,21.2c-7.1,1.7-14.6-0.1-20.5-5c-5.3-4.4-9-9.2-12.7-13.9c-3.5-4.5-7.1-9.1-12.5-13.9
					c-5.8-5.2-11.8-12.4-18.2-20c-5.9-7.1-15.9-19.1-20-21.1c-4.4-2-9.9-5.2-16.7-9.4c-14.1-8.5-35.3-21.2-51.6-23.7
					c-0.9-0.1-1.8-0.3-2.7-0.4c27,19.4,33.7,30,37,35.2l0.3,0.5c4.9,7.3,5.6,17.7,5.6,23.3v11.6l-10.8,4.3
					c-1.7,0.7-17.3,6.7-35.2,6.7c-16.2,0-27.6-1.4-37.5-8.7c-4.8-1.7-10.3-4.4-26.5-16.8c-12.4-9.5-17.8-17.5-21.4-22.9
					c-3-4.5-3-4.5-8.4-5.5c-10.2-1.9-15.6-5-19.8-7.8c-1.9,0.3-5.8,1.1-13.5,3.3c-10.5,3.1-17.6,5-22.8,6.4c-3,0.8-6,1.6-7.5,2.1
					c-1.2,1.1-3.8,3.3-11.4,8.1l37.1,26.3l-29.6,11.6c-12.9,5-16.8,7.8-18.9,9.2c-7.5,5.2-12.3,5.7-23.1,5.7
					c-8.7,0-13.3-0.3-16.1-0.5c-0.4,0-0.7-0.1-1-0.1c-3.8,2-7.9,2-15.8,2c-17.2,0-41.1-2-49.7-19.1c-2.1-4.2-17.5-26.7-31.8-47.2
					c-6.1-1.2-11.7-2.1-14.6-2.3c2.1,2.1,3.3,3.1,4.3,3.9c2.7,2.3,4.6,4,9.9,10c2.7,3.1,4,3.9,4,3.9l0.2,0.1
					c7.6,3.4,10.2,9.1,11.1,13.2c0.8,3.9,0.2,7.1-0.4,10c-2.5,12.7-13.3,25.5-25.6,30.4c-4,1.6-8.7,2.5-14.8,3.6
					c-5.5,1-16.9,3.2-20.1,5.4c-6.3,4.5-11.3,5.8-15,6.7c-1.7,0.4-3.5,0.9-6.2,2.1l-3.6,15.5c-6.2,26.4-9.4,31.2-10.7,33.1
					c-1.5,2.3-3.5,4.3-6.2,7.2c-5.3,5.6-14.3,15-18.2,25.1c-2.9,7.4-4.6,12.2-5.6,15.7c1.8,0.4,3.7,0.8,5.5,1l10.7,1.4l3.4,10.2
					c0.8,2.5,5,15.5,5,26c0,5.6-1.2,13.5-2.4,21.8c-0.7,4.7-1.7,11.9-1.7,13.9c0,3.7-0.3,15.2-0.7,27.3c-0.3,10.8-0.7,23.1-0.7,26.3
					c0,3.6,1.8,35.6,4,72.7l80.6-189.9l4.6,71.2c1.7,5.6,36.6,96.1,460.3,147.1l22,2.6L2248.1,1207.8z M2528.1,1201L2528.1,1201
					L2528.1,1201z M1773.9,1037.2C1773.9,1037.2,1773.9,1037.2,1773.9,1037.2C1773.9,1037.2,1773.9,1037.2,1773.9,1037.2z
					 M2473.1,1001C2473.2,1001,2473.2,1001,2473.1,1001L2473.1,1001z M1913.8,751.1C1913.7,751.2,1913.7,751.2,1913.8,751.1
					C1913.7,751.2,1913.7,751.2,1913.8,751.1z"/>
			</g>
			<g>
				<g>
					<path class="st40" d="M1983.9,1633.1c0,0-76.8-26.9-161.6,45.8c-84.9,72.7-205.1,234.4-205.1,234.4s6.6,67.7,67.7,74.2
						c0,0,243.4-109.9,312.1-170.2"/>
				</g>
			</g>
			<g>
				<g>
					<path class="st41" d="M1983.2,1635.3c-20.4,0.8-39.3,3.8-57.5,8.3c-18.1,4.7-35.7,10.7-52.1,19.8c-4,2.4-8.1,4.7-12.1,7.2
						c-3.8,2.7-7.7,5.4-11.6,8c-3.9,2.6-7.4,5.9-11.1,8.8l-5.5,4.5l-5.4,5c-14.6,12.9-28.6,27.3-42.5,41.5
						c-27.7,28.8-54.4,58.9-80.5,89.6c-26,30.8-51.2,62.5-75.3,94.5l3-10.6c0.1,1.1,0.5,3.4,0.9,5.1c0.4,1.9,0.8,3.8,1.4,5.7
						c1,3.8,2.3,7.5,3.7,11.1c2.9,7.2,6.8,13.7,11.4,19.3c4.5,5.7,10.1,10,16.3,13.2c6,3.5,13.2,4.9,20.4,6.1l-8,1.3
						c26.8-12.2,53.7-24.8,80.1-37.9c26.5-13.2,52.4-27.3,78.8-40.6c26.4-13.2,52.9-26.1,79.4-38.8c26.6-12.9,52.9-25.7,78.5-40.7
						l0.2-0.1c1.1-0.7,2.6-0.3,3.2,0.9c0.5,0.9,0.4,2-0.3,2.8c-5,5.6-10.1,11.4-15.7,16.6c-5.6,5-11.2,10.3-17.1,15
						c-5.9,4.8-11.8,9.4-17.9,14c-6.1,4.5-12.2,8.8-18.4,13.1c-24.8,17-50.5,32.5-76.8,46.6c-26.4,14-53.5,26.4-80.5,39.2
						c-27,12.7-53.8,25.6-81,38l-0.6,0.3c-2.4,1.1-5,1.4-7.4,1c-10.6-1.6-21.5-3.9-31.4-9.4c-9.8-5.1-18.8-12.3-25.6-20.8
						c-6.9-8.4-12.3-17.7-16.2-27.3c-2-4.8-3.6-9.7-5-14.7c-0.7-2.5-1.3-5-1.8-7.5c-0.5-2.7-1-4.9-1.3-8.3
						c-0.4-3.9,0.7-7.6,2.8-10.5l0.1-0.2c12.4-16.4,24.7-32.5,37.3-48.6c12.6-16,25.2-32.1,38.1-47.9c25.7-31.7,52-63.1,80.2-93
						l10.8-11.1c3.6-3.7,7.2-7.4,11-10.9l11.2-10.8c3.8-3.6,7.8-7,11.7-10.4l5.9-5.2l6.4-5c4.3-3.2,8.4-6.8,13-9.7l13.7-8.9
						c4.7-2.7,9.6-5.2,14.5-7.7c19.6-9.5,40.8-16.9,62.9-18.3c21.9-1,44.5,2.2,63.1,14.4c1.1,0.7,1.4,2.2,0.7,3.3
						c-0.4,0.7-1.2,1.1-1.9,1.1L1983.2,1635.3z"/>
				</g>
			</g>
			<g class="st42">
				<g>
					<path class="st41" d="M1694,1933.3c-72.3-56.8,253.8-279.6,284.3-193.3c30.6,86.3-64.1,132.2-64.1,132.2s0,0,0,0
						c34.6-19.8,64.8-39.1,82.8-54.9l-13.1-184.2c0,0-76.8-26.9-161.6,45.8c-84.9,72.7-205.1,234.4-205.1,234.4s6.6,67.7,67.7,74.2
						c0,0,39.4-17.8,90.9-42.9C1745.8,1951.6,1716.3,1950.7,1694,1933.3z"/>
				</g>
			</g>
		</g>
	</g>
	<g>
		<g>
			<g class="st46">
				<g>
					<path class="st41" d="M1430.5,1869.8c0,0,99.6,241.4-330.8,266.9c0,0,16,50.9,38.2,79.1c22.1,28.2-103.4,128.9-197.5,18.3
						c-94-110.6-87.4-297.6,97.4-371.7S1430.5,1869.8,1430.5,1869.8z"/>
				</g>
			</g>
			<g class="st46">
				<g>
					<path class="st41" d="M1141,2208.9c0,0,64.7,55.4,57.8,109.5c-7,54.1-163.1,98.2-260.6,95.1c0,0-84.2-152,108.3-137.9
						L1141,2208.9z"/>
				</g>
			</g>
			<g>
				<g>
					<g>
						<g>
							<g>
								<path class="st58" d="M1141,2171.4c0,0,64.7,55.4,57.8,109.5c-7,54.1-163.1,98.2-260.6,95.1c0,0-84.2-152,108.3-137.9
									L1141,2171.4z"/>
							</g>
						</g>
						<g>
							<g>
								<path class="st41" d="M948,2378.4c-3.4,0-6.6-0.1-9.8-0.2l-1.2,0l-0.6-1.1c-1.4-2.6-35.1-64.5-8.4-106.2
									c17.6-27.5,57.3-39.3,118-34.9l95.3-67.3l1.3,1.1c2.7,2.3,65.5,56.8,58.5,111.5C1193.9,2336.2,1044.8,2378.4,948,2378.4z
									 M939.6,2373.9c102.5,2.9,250.7-43.4,257.1-93.3c6.2-48.2-46.9-98.5-55.8-106.5l-93.7,66.2l-0.8-0.1
									c-59.4-4.4-98,6.7-114.8,32.9C908.1,2309.9,935.2,2365.5,939.6,2373.9z"/>
							</g>
						</g>
					</g>
					<g class="st48">
						<g>
							<g>
								<path class="st53" d="M1141,2171.4l-94.5,66.8c-3.1-0.2-6.1-0.4-9-0.6c18.9,23.4,24.2,55.8,1.5,82.3
									c-25.9,30.1-66.2,43.6-105.8,45.7c2.9,6.5,5,10.5,5,10.5c97.4,3.1,253.6-41,260.6-95.1
									C1205.8,2226.8,1141,2171.4,1141,2171.4z"/>
							</g>
						</g>
						<g>
							<g>
								<path class="st41" d="M948,2378.4c-3.4,0-6.6-0.1-9.8-0.2l-1.2,0l-0.6-1.1c-0.1-0.2-2.3-4.1-5.1-10.7l-1.2-2.8l3.1-0.2
									c44.3-2.4,81.4-18.3,104.3-45c23.9-27.7,14.1-60.2-1.5-79.5l-3-3.7l4.8,0.2c2.7,0.1,5.5,0.3,8.3,0.5l95.3-67.3l1.3,1.1
									c2.7,2.3,65.5,56.8,58.5,111.5C1193.9,2336.2,1044.8,2378.4,948,2378.4z M939.6,2373.9c102.4,2.9,250.7-43.4,257.1-93.3
									c6.2-48.2-46.9-98.5-55.8-106.5l-93.7,66.2l-0.8-0.1c-1.5-0.1-2.9-0.2-4.3-0.3c19.1,26.4,18.7,57.9-1.4,81.2
									c-23.1,26.9-60,43.2-104.2,46.3C937.8,2370.5,938.9,2372.7,939.6,2373.9z"/>
							</g>
						</g>
					</g>
					<g>
						<g>
							<path class="st41" d="M947,2393c-3.2,0-6.3,0-9.2-0.1c-5.9-0.2-11.3-3.5-14.2-8.7c-1.6-2.9-39.3-72.2-8-121.2
								c20.2-31.5,62.6-45.7,126.1-42l89.6-63.3c6.3-4.4,14.8-4,20.6,1c2.9,2.5,71.5,62.1,63.5,124.5
								C1206.5,2352.8,1039.5,2393,947,2393z M1022.6,2254.1c-40.2,0-67.2,9.2-78.6,27c-14.6,22.7-3.8,58.8,4.9,78.3
								c98.8,0,228.6-44.1,233.3-80.6c4-30.9-24-66.8-42.6-85.7l-83.3,58.8c-3.2,2.2-7,3.3-10.9,3
								C1037.3,2254.4,1029.7,2254.1,1022.6,2254.1z"/>
						</g>
					</g>
				</g>
				<g>
					<g>
						<path class="st41" d="M1104.8,2282.5c-3.8-5.4-8.6-9.8-13.6-13.6c-5.1-3.7-10.4-6.8-16-8.9c-5.6-2.1-11.2-3.8-16.9-4.4
							c-2.8-0.5-5.7-0.5-8.5-0.7c-2.8-0.1-5.7,0.1-8.4,0.1l-0.6,0c-9.5,0.1-17.3-7.6-17.4-17.1c-0.1-9.5,7.6-17.3,17.1-17.4
							c2.5,0,4.9,0.5,7.1,1.4c3.6,1.5,7.1,2.9,10.4,4.6c3.4,1.9,6.7,3.4,9.8,5.6c6.4,3.9,12.1,8.9,17.2,14
							c5.1,5.2,9.3,11.1,12.7,17.2C1100.9,2269.6,1103.5,2276,1104.8,2282.5z"/>
					</g>
				</g>
			</g>
			<g>
				<g>
					<path class="st59" d="M1430.5,1820.6c0,0,99.6,241.4-330.8,266.9c0,0,16,50.9,38.2,79.1c22.1,28.2-103.4,128.9-197.5,18.3
						c-94-110.6-87.4-297.6,97.4-371.7C1222.5,1739,1430.5,1820.6,1430.5,1820.6z"/>
				</g>
				<g>
					<path class="st41" d="M1039.3,2237.8c-31.9,0-67.7-12.9-100.5-51.6c-50.9-59.9-71.5-141.8-53.7-213.7
						c17.8-71.9,71.7-129.3,151.9-161.4c183.4-73.6,392.3,6.7,394.3,7.5l0.9,0.3l0.3,0.9c0.3,0.7,29.8,74.3-14,144.1
						c-45.9,73.2-152.2,115.5-315.8,125.5c3.6,10.8,18.2,51.9,36.9,75.8c8,10.2,0,27.9-19.8,44.1
						C1102.8,2223.2,1073.3,2237.8,1039.3,2237.8z M1210.1,1784.3c-54.9,0-114.5,7.9-171.5,30.7c-78.8,31.6-131.8,87.9-149.3,158.5
						c-17.5,70.6,2.8,151,52.8,209.9c65.7,77.2,143.2,48.5,175,22.5c17.3-14.1,25.4-30.2,19.2-38.1c-22.1-28.2-37.9-77.7-38.5-79.8
						l-0.8-2.6l2.8-0.2c163.7-9.7,269.8-51.3,315.2-123.7c40.1-63.9,17.2-131.1,14.1-139.4
						C1418.8,1818.5,1324.4,1784.3,1210.1,1784.3z"/>
				</g>
			</g>
			<g class="st44">
				<g>
					<g>
						<path class="st45" d="M970.6,2189.1c-94-110.6-87.4-297.6,97.4-371.7c79.6-31.9,163.4-35,233.1-28.1
							c-75.3-11.4-174.4-13.6-267.6,23.8c-184.8,74.1-191.4,261.1-97.4,371.7c32.9,38.7,69.6,51.5,102.6,50.7
							C1015.8,2229,992.4,2214.7,970.6,2189.1z"/>
					</g>
				</g>
			</g>
			<g>
				<g>
					<path class="st41" d="M1039.7,2252.1c-36.6,0-76.8-14.8-112.1-56.3c-54.7-64.4-75.9-149.1-56.7-226.7
						c19-76.7,76-137.6,160.6-171.5c188.8-75.7,396.4,4,405.2,7.4c4.3,1.7,7.7,5,9.4,9.2c1.4,3.3,32.6,81.4-15.2,157.5
						c-46.7,74.4-150.2,118.5-307.8,131c6.4,16.2,16.4,38.7,28,53.5c13.5,17.2,4.8,42.5-22.1,64.5
						C1107.9,2237.9,1075.5,2252.1,1039.7,2252.1z M1210.1,1799c-53.3,0-111,7.6-166.1,29.7c-95.3,38.2-129,101.8-140.5,148.4
						c-16.3,66.1,2.7,141.5,49.7,196.8c46.3,54.5,96.3,47.6,121.9,38.7c30-10.5,46.7-29.8,48.4-37.2c-23.1-30.5-39.1-80.8-39.8-82.9
						c-1.6-4.9-0.7-10.3,2.2-14.6c2.9-4.3,7.7-6.9,12.9-7.2c156.2-9.2,261.1-49.5,303.4-116.5c31.9-50.5,20.7-102.3,15.1-120.6
						C1392.9,1825.2,1309.1,1799,1210.1,1799z"/>
				</g>
			</g>
			<g>
				<g>
					<path class="st41" d="M1044.8,2058c4.2,3.5,9,6,13.8,7.9c4.8,2,9.8,3.3,14.7,4.2c5,0.9,9.9,1.4,14.8,1.5
						c2.4,0.1,4.9-0.1,7.3-0.1l7.3-0.6c9.6-0.8,18,6.3,18.8,15.9c0.8,9.6-6.3,18-15.9,18.8c-3.1,0.3-6.1-0.3-8.7-1.5l-0.1-0.1
						c-2.8-1.3-5.6-2.6-8.3-3.9c-2.7-1.5-5.4-2.8-8-4.5c-5.2-3.1-10.2-6.6-14.7-10.5c-4.5-3.9-8.7-8.1-12.3-12.6
						C1049.9,2068,1046.7,2063.1,1044.8,2058z"/>
				</g>
			</g>
			<g class="st46">
				<g>
					<path class="st41" d="M1424.1,1820.6c0,0-173.3-68-344.1-23.4l0,0c0,0,8.5-0.8,22.1-1.4c-44.9,8.7-89.3,25.2-128.1,52
						c0,0-102.2,65.6-44.1,116.2c47.7,41.6,102.6-19.9,129.3,4.6c12.3,11.3,7.7,31.9-7.8,38.2c-1.7,0.7-3.4,1.4-5,2
						c-86.5,35.8-34.8,41.8-18,70.6c11,18.9-40.2,113.3-98.5,100.3c1.4,1.7,2.7,3.5,4.1,5.1c94,110.6,219.6,10,197.5-18.3
						c-22.1-28.2-38.2-79.1-38.2-79.1C1523.7,2062,1424.1,1820.6,1424.1,1820.6z"/>
				</g>
			</g>
			<g>
				<g>
					<path class="st60" d="M725.6,1441.9c0,0-46.3-30.4-99.9-8.9s-51.2,191.5,120.7,119.3C918.3,1480.1,725.6,1441.9,725.6,1441.9z"
						/>
				</g>
				<g>
					<path class="st41" d="M671.7,1572.2c-23.9,0-40.1-7.2-50.8-15.4c-25.2-19.3-30.7-51.8-27.4-75.8c3.3-24.4,15.3-43.6,31.3-50
						c51.6-20.7,97,6,101.5,8.8c7.3,1.5,89.9,19,93.4,53.2c2,19.6-22.4,40.2-72.6,61.2C716.1,1567.4,691.3,1572.2,671.7,1572.2z
						 M665.4,1427.6c-12.1,0-25.3,2-38.9,7.5c-14.5,5.8-25.5,23.7-28.7,46.6c-3.1,22.8,2,53.6,25.7,71.8
						c18.5,14.2,54.7,25.2,122-3.1c48.2-20.2,71.7-39.4,69.9-56.8c-3.2-31.9-89.5-49.3-90.3-49.5l-0.8-0.3
						C724.1,1443.5,699.2,1427.6,665.4,1427.6z"/>
				</g>
			</g>
			<g class="st44">
				<g>
					<g>
						<path class="st45" d="M642.9,1458.9c53.7-21.6,99.9,8.9,99.9,8.9s48.2,9.5,74.9,28.1c1-35.5-92.1-54-92.1-54
							s-46.3-30.4-99.9-8.9c-33.3,13.4-45,83.9-8,118.2C603.9,1515.4,616.7,1469.5,642.9,1458.9z"/>
					</g>
				</g>
			</g>
			<g>
				<g>
					<path class="st41" d="M671.6,1586.9c-27.8,0-46.9-8.7-59.6-18.4c-25.3-19.4-37.9-53.6-33-89.4c4.1-29.6,19.5-53.2,40.4-61.6
						c53.5-21.5,100.1,1.5,112.4,8.6c26.5,5.5,98.4,24.3,102.6,65.6c3.7,36.1-44.7,60.8-81.5,76.2
						C719.9,1581.7,693.2,1586.9,671.6,1586.9z M665.8,1442.1c-10.5,0-22,1.8-33.9,6.6c-9.4,3.8-17.3,17.8-19.6,34.9
						c-2.6,18.7,1.4,43.8,20.2,58.2c22.1,17,59.2,15.2,107.4-5c61.9-26,61.1-41.7,61-41.8c-1.1-11-39.3-28.8-78.6-36.6
						c-2.1-0.4-4.1-1.2-5.9-2.4C715.1,1455.2,694.3,1442.1,665.8,1442.1z"/>
				</g>
			</g>
			<g>
				<g>
					<path class="st60" d="M765.7,1453.7c0.2-4.6-20.7-69.6-62.4-77c-41.7-7.4,4,48.4-8,61.8c-12,13.3-12.4,45.5,4.1,54.3"/>
				</g>
				<g>
					<path class="st41" d="M698.5,1494.7c-6.8-3.6-11.4-10.9-13.2-20.8c-2.4-13.4,1.1-28.6,8.5-36.8c3.9-4.3-0.5-16.4-4.3-27.1
						c-4.7-13.1-9.2-25.5-3.6-32.1c3.2-3.8,9-4.9,17.9-3.3c42.1,7.4,64.4,73,64.1,79.2l-4.3-0.2l2.2,0.1l-2.2-0.1
						c-0.1-3.9-20.2-67.6-60.6-74.8c-7.1-1.3-11.8-0.6-13.9,1.8c-3.9,4.7,0.5,17,4.4,27.9c4.7,13,9.1,25.2,3.5,31.4
						c-6.5,7.2-9.6,21.2-7.4,33.2c1.5,8.5,5.4,14.8,11,17.7L698.5,1494.7z"/>
				</g>
			</g>
			<g>
				<g>
					<path class="st41" d="M748.9,1453c-0.1,0.5-0.1,1.1-0.1,1.6c0,0.5,0.2,1.3,0,0.8l-0.4-1l-1.1-2.7c-0.8-2-1.7-4-2.6-6
						c-1.8-4.1-3.9-8.2-5.9-12.1c-4.2-7.9-8.9-15.5-14-22c-5.2-6.5-10.8-11.9-16.7-15.3c-1.5-0.8-2.9-1.8-4.5-2.2
						c-1.5-0.5-3-1.3-4.7-1.6c-1.6-0.4-2.8-0.5-3-0.7c0.1,0,0.1-0.1,0.2-0.2c0.3-0.1,0.7-0.3,0.9-0.5c0.5-0.2,1-0.6,1.4-1.1
						c0.5-0.4,1-1.1,1.2-1.6c1.3-2.5,0.5-2.8,0.5-1.8c-0.1,1,0,2.8,0.3,4.8c0.6,4,1.8,8.7,3.2,13.6c1.3,4.9,2.8,10,3.8,15.9
						c0.5,3,0.9,6.1,0.8,9.9c-0.1,1.9-0.2,4-0.9,6.5c-0.6,2.3-1.9,5.2-4,7.5c-5.4,4.5-8.8,13-9.9,21.8c-0.9,8.7,0.3,18.4,7.3,24.2
						l0.1,0.1c1,0.9,1.2,2.4,0.3,3.4c-0.7,0.8-1.8,1.1-2.7,0.7c-5.5-2-10-6.5-12.9-11.6c-3-5.1-4.6-10.7-5.4-16.4
						c-0.8-5.7-0.8-11.6,0.4-17.5c0.6-3,1.4-5.9,2.6-8.9c0.6-1.5,1.4-3,2.1-4.5c0.4-0.7,0.9-1.5,1.4-2.2l0.7-1.1l0.4-0.5
						c0.1-0.1,0.2-0.2,0.2-0.2l-0.1,0c-1,1-0.8,0.9-1.2-0.4c-0.3-1.2-0.9-3.1-1.6-5c-1.5-3.9-3.6-8.3-5.7-12.9
						c-2.1-4.6-4.3-9.5-6.3-15.3c-0.9-3-1.9-6.1-2.3-10.2c-0.1-1.1-0.1-2.2-0.1-3.3c0-1.1,0.1-2.6,0.3-3.8c0.1-1.3,0.6-3,1.1-4.4
						c0.5-1.5,1.4-3.3,2.3-4.8c1-1.6,2.3-3.1,3.7-4.5c1.4-1.2,3-2.4,4.5-3.3c1.4-0.7,2.9-1.4,4.4-2c1.3-0.4,2.6-0.7,3.9-1
						c4.8-0.9,8.7-0.8,12.1-0.5c3.4,0.1,6.8,1,10.1,1.7c3.5,0.6,6.5,2,9.7,3.3c12.4,5.4,22.2,13.8,30,22.8c2,2.3,3.9,4.5,5.6,6.9
						c1.7,2.4,3.4,4.7,4.9,7.2c3.2,4.8,5.9,9.8,8.3,14.9c2.5,5.1,4.6,10.3,6.4,15.6c1,2.7,1.7,5.4,2.5,8.3c0.4,1.5,0.7,2.8,1.1,4.6
						l0.5,2.7c0,0.1,0.3,1.5,0.4,2.7c0.1,1.2,0.2,2.3,0.1,3.5c-0.4,9.3-8.2,16.5-17.5,16.1C755.8,1470.1,748.6,1462.3,748.9,1453z"
						/>
				</g>
			</g>
			<g>
				<g>
					<path class="st61" d="M1250.5,1614c0,0-21.3-86.5-138.8-120.7c-117.5-34.2-337.7-47.5-337.7-47.5s-58.1,46.6-27.5,106.5
						c0,0,246.7,157.3,343.1,184.1"/>
				</g>
			</g>
			<g class="st42">
				<g>
					<path class="st41" d="M1230.2,1573.4l-140.7,107c-27.3-7.6-66.5-25.6-108.8-47.5l-15.6-47.5l16.9-41.6l12-46
						c0,0-36.9,102.4-148.2,59.4c-56.7-33.7-99.3-60.9-99.3-60.9c-1.3-2.6-2.4-5.1-3.4-7.7c-6.8,17.6-8.9,39.6,3.4,63.7
						c0,0,246.7,157.3,343.1,184.1l161-122.4C1250.5,1614,1246,1596.1,1230.2,1573.4z"/>
				</g>
			</g>
			<g class="st44">
				<g>
					<g>
						<path class="st45" d="M769.6,1476c0,0,220.2,13.3,337.7,47.5c81.3,23.7,116.6,72.3,130.6,100.1l12.6-9.6
							c0,0-21.3-86.5-138.8-120.7c-117.5-34.2-337.7-47.5-337.7-47.5s-39.1,31.4-36.2,75.7C747.4,1493.8,769.6,1476,769.6,1476z"/>
					</g>
				</g>
			</g>
			<g>
				<g>
					<path class="st41" d="M1089.5,1753.3c-1.5,0-3-0.2-4.5-0.6c-97.7-27.2-337.5-179.7-347.6-186.1c-2.5-1.6-4.6-3.9-5.9-6.5
						c-29.1-57.1,8.2-108.2,32-127.3c3.3-2.6,7.4-3.9,11.5-3.7c9.1,0.5,223.4,13.8,341.4,48.2c125.4,36.5,149.5,128.9,150.5,132.8
						c2.2,9-3.3,18.1-12.3,20.4c-9,2.2-18.1-3.3-20.3-12.2l0,0c-0.8-3.2-21.3-77.9-127.2-108.7c-102.7-29.9-288.7-43.8-327-46.4
						c-10.9,10.7-36.3,41-20.4,77.7c32.4,20.4,248.2,155.5,334.5,179.5c8.9,2.5,14.2,11.8,11.7,20.7
						C1103.6,1748.4,1096.9,1753.3,1089.5,1753.3z"/>
				</g>
			</g>
			<g>
				<g>
					<path class="st61" d="M1018.2,1845.2c-6.3,23.6-2.4,44.9,8.9,63.2l0,0c252.4,83.5,403.1-87.5,403.4-87.8
						c1.3-3.1,2.5-6.2,3.7-9.3c90-241.9-143.1-398.3-143.1-398.3c-10.7-7.9-240.4-54.6-297.4,116.6S1058.1,1696.2,1018.2,1845.2z"/>
				</g>
			</g>
			<g class="st44">
				<g>
					<g>
						<path class="st45" d="M1307.7,1425.5c62.8,60.1,161.9,188.8,97.9,360.6c-1.2,3.2-2.4,6.3-3.7,9.3
							c-0.3,0.3-130.8,181.3-371.1,113c2,6.7-7.4-6-3.7,0c252.4,83.5,403.1-87.5,403.4-87.8c1.3-3.1,2.5-6.2,3.7-9.3
							C1509.4,1609.3,1359.3,1466.9,1307.7,1425.5z"/>
					</g>
				</g>
			</g>
			<g class="st42">
				<g>
					<path class="st41" d="M1335.5,1425.3c-2.9-2.1-138.4-19.3-164.9-22.1c-67.8,7.4-143.6,37.6-173.1,126.3
						c-56.9,171.2,64.3,166.6,24.5,315.6c-6.3,23.6-2.4,44.9,8.9,63.2c34.6,11.5,67.3,18.1,97.9,21.1
						c145.7-14.6,228.7-108.6,228.9-108.9c1.3-3.1,3.1-6,3.7-9.3C1402.7,1578.5,1335.5,1425.3,1335.5,1425.3z"/>
				</g>
			</g>
			<g>
				<g>
					<path class="st41" d="M1164.5,1948.4c-43.2,0-90.8-6.9-142.7-24.1c-3.7-1.2-6.9-3.7-9-7.1c-14.3-23-18.1-49.5-10.9-76.4
						c17.2-64.4,2.5-95.5-14.5-131.4c-19.6-41.4-41.8-88.3-9.6-185.1c20.8-62.7,64.7-105.1,130.2-125.9
						c83.8-26.7,177.6-8.8,192.5,0.7l0,0c2.5,1.7,61.5,41.7,109.8,112.9c64.7,95.4,78.4,200.9,39.6,305.2c-1.2,3.4-2.6,6.6-3.9,9.9
						c-0.7,1.7-1.7,3.3-2.9,4.7C1437.9,1837.6,1337.4,1948.4,1164.5,1948.4z M1038.6,1894.4c98.1,31.1,191.4,26.5,277.4-13.5
						c57.2-26.6,92.1-61,100.2-69.5c0.8-2,1.6-4,2.3-6c35.2-94.6,23.3-186.7-35.3-273.7c-41.8-62-93.8-99.6-100.6-104.3
						c-11.1-4-106.8-24-185.5,11c-43,19.2-72.4,51.6-87.3,96.5c-27.9,84-10.4,121,8.1,160.1c17.4,36.7,37,78.2,16.6,154.5
						c0,0,0,0,0,0C1030.2,1865.5,1031.6,1880.6,1038.6,1894.4z M1018.2,1845.2L1018.2,1845.2L1018.2,1845.2z M1283,1427.7
						L1283,1427.7L1283,1427.7z M1281.2,1426.5C1281.2,1426.5,1281.2,1426.5,1281.2,1426.5
						C1281.2,1426.5,1281.2,1426.5,1281.2,1426.5z"/>
				</g>
			</g>
			<g>
				<g>
					<path class="st60" d="M950.4,1911.6c0,0-3.3,73.6-84.1,56.4s-53.1-63.1-111.2-47c-58.1,16-63.6-56.4-6.1-86.3
						c57.5-29.9,114-5.5,117.3,10.5C869.6,1861.1,950.4,1911.6,950.4,1911.6z"/>
				</g>
				<g>
					<path class="st41" d="M889.2,1972.7c-7.2,0-15-0.9-23.3-2.6c-40-8.5-54.1-24.2-64.4-35.7c-10.7-12-17.2-19.2-45.7-11.3
						c-22.6,6.3-40.1-0.1-46.7-16.9c-8.3-21.2,4.2-55.3,39.1-73.4c39.8-20.7,79.7-15.7,101.8-5.2c10.6,5,17.3,11.3,18.5,17.2
						c2.3,11,51,44.9,83.1,65l1.1,0.7l-0.1,1.3c-0.1,1.3-1.7,31.4-24.4,49C917.7,1968.7,904.7,1972.7,889.2,1972.7z M775.6,1915.5
						c14.7,0,21.1,7.1,29.1,16c10.5,11.7,23.5,26.2,62.1,34.4c24.8,5.3,44.5,2.4,58.7-8.6c18.7-14.4,22.1-38.8,22.7-44.6
						c-12.3-7.7-80.7-51.3-83.9-67.1c-0.9-4.4-7.1-9.8-16.2-14.2c-21.2-10.1-59.6-14.8-98,5.1c-32.7,17-44.7,48.5-37,68
						c5.7,14.6,21.2,19.9,41.5,14.3C763.1,1916.5,770,1915.5,775.6,1915.5z"/>
				</g>
			</g>
			<g class="st44">
				<g>
					<g>
						<path class="st45" d="M757.7,1864.8c57.5-29.9,114-5.5,117.3,10.5c2.4,11.8,47.3,42.5,70.5,57.7c4.5-11.6,5-21.5,5-21.5
							s-80.8-50.4-84.1-66.4c-3.3-16-59.7-40.4-117.3-10.5c-40.6,21.1-49.7,63.3-31.2,80.8C720.4,1897.5,733.4,1877.4,757.7,1864.8z
							"/>
					</g>
				</g>
			</g>
			<g>
				<g>
					<path class="st41" d="M889.3,1987.4c-8.3,0-17.1-1-26.5-3c-44.7-9.5-61.3-28-72.3-40.3c-9.2-10.3-11.2-12.4-30.9-7
						c-36,10-57.2-7.6-64.3-25.7c-10.9-27.7,3.3-69.6,45.9-91.7c44.5-23.1,88.5-18,114.9-5.4c10.2,4.8,22.7,13.2,26.2,25.9
						c6.2,9.4,44.3,36.8,76.9,57.1c5.1,3.2,8.2,9,7.9,15c-0.1,1.6-2,38.2-30.1,59.9C924,1982.3,908,1987.4,889.3,1987.4z
						 M775.5,1900.9c19.4,0,29.6,9.2,40,20.8c9.5,10.6,20.3,22.6,54.3,29.8c20.2,4.3,35.9,2.4,46.5-5.7c9.4-7.2,13.7-18.2,15.7-25.9
						c-71.4-45.5-80-62.9-81.8-69.7c-6.6-7.5-48.2-24-93.4-0.6c-26.9,14-34.8,37.8-30.1,49.6c3.6,9.1,15,8,24,5.6
						C760.4,1902.1,768.6,1900.9,775.5,1900.9z M850.6,1850.7L850.6,1850.7L850.6,1850.7z M882.8,1841.8
						C882.8,1841.8,882.8,1841.8,882.8,1841.8C882.8,1841.8,882.8,1841.8,882.8,1841.8z"/>
				</g>
			</g>
			<g>
				<g>
					<path class="st61" d="M1267.9,1538.4c0,0-84.1-29.5-177,50.2c-92.9,79.7-224.6,256.7-224.6,256.7s7.2,74.1,74.1,81.3
						c0,0,266.6-120.4,341.9-186.4"/>
				</g>
			</g>
			<g class="st44">
				<g>
					<g>
						<path class="st45" d="M1267.4,1745.6c-0.4,0.1-79.3,16.2-155.4,56c-45,23.5-85.4,59.8-118,93.8
							C1069.8,1859.5,1204.9,1792.8,1267.4,1745.6z"/>
					</g>
				</g>
			</g>
			<g>
				<g>
					<path class="st41" d="M1267,1540.8c-22.4,0.9-43.1,4.2-63,9c-19.8,5.2-39.1,11.7-57,21.7c-4.4,2.6-8.9,5.1-13.2,7.8
						c-4.2,3-8.5,5.9-12.7,8.8c-4.3,2.9-8.1,6.5-12.2,9.6l-6,4.9l-5.9,5.5c-16,14.2-31.3,29.9-46.5,45.4
						c-30.3,31.5-59.6,64.5-88.1,98.2c-28.4,33.7-56.1,68.4-82.5,103.5l3.2-11.7c0.1,1.2,0.6,3.7,0.9,5.6c0.5,2.1,0.9,4.1,1.5,6.2
						c1.1,4.1,2.5,8.2,4.1,12.1c3.2,7.8,7.4,15,12.4,21.1c4.9,6.3,11.1,10.9,17.8,14.5c6.6,3.9,14.5,5.3,22.4,6.7l-8.7,1.4
						c29.3-13.4,58.8-27.1,87.8-41.5c29-14.5,57.4-29.9,86.3-44.4c28.9-14.5,57.9-28.6,87-42.5c29.1-14.1,57.9-28.2,86-44.5l0.2-0.1
						c1.2-0.7,2.8-0.3,3.5,0.9c0.6,1,0.4,2.2-0.3,3c-5.5,6.1-11.1,12.5-17.2,18.2c-6.2,5.5-12.3,11.3-18.7,16.5
						c-6.4,5.2-13,10.3-19.6,15.3c-6.6,4.9-13.4,9.6-20.2,14.3c-27.2,18.6-55.3,35.6-84.1,51c-28.9,15.3-58.6,29-88.1,42.9
						c-29.5,13.9-58.9,28-88.7,41.6l-0.6,0.3c-2.6,1.2-5.4,1.5-8.1,1.1c-11.6-1.8-23.6-4.3-34.3-10.3c-10.8-5.6-20.6-13.4-28.1-22.7
						c-7.6-9.2-13.4-19.4-17.7-29.9c-2.2-5.3-4-10.6-5.4-16.1c-0.8-2.7-1.4-5.5-2-8.3c-0.6-2.9-1-5.4-1.5-9.1
						c-0.5-4.3,0.7-8.3,3.1-11.5l0.1-0.2c13.5-18,27.1-35.6,40.9-53.2c13.8-17.6,27.6-35.1,41.7-52.5
						c28.2-34.7,56.9-69.1,87.9-101.9l11.8-12.2c3.9-4.1,7.9-8.1,12.1-12l12.3-11.8c4.2-3.9,8.5-7.7,12.9-11.4l6.5-5.7l7-5.5
						c4.8-3.6,9.2-7.4,14.2-10.7l15-9.7c5.2-2.9,10.6-5.6,15.8-8.4c21.5-10.4,44.7-18.5,68.9-20.1c24-1.1,48.7,2.4,69.1,15.8
						c1.2,0.8,1.6,2.4,0.8,3.7c-0.5,0.7-1.3,1.2-2.1,1.2L1267,1540.8z"/>
				</g>
			</g>
			<g class="st42">
				<g>
					<path class="st41" d="M950.4,1867.1c-79.2-62.2,277.9-306.2,311.4-211.7c33.5,94.5-70.2,144.8-70.2,144.8s0,0,0,0
						c37.9-21.7,70.9-42.8,90.7-60.2l-14.4-201.7c0,0-84.1-29.5-177,50.2c-92.9,79.7-224.6,256.7-224.6,256.7s7.2,74.1,74.1,81.3
						c0,0,43.1-19.5,99.5-47C1007,1887.2,974.8,1886.2,950.4,1867.1z"/>
				</g>
			</g>
			<g>
				<g>
					<g>
						<g>
							
								<ellipse transform="matrix(3.789803e-02 -0.9993 0.9993 3.789803e-02 -221.32 2037.4425)" class="st60" cx="947.4" cy="1133.7" rx="119.3" ry="101.4"/>
						</g>
					</g>
					<g>
						<g>
							<path class="st41" d="M946.3,1255.1c-1.1,0-2.3,0-3.4-0.1c-57-2.2-101.4-58.4-98.9-125.3c1.2-32.4,13.1-62.4,33.4-84.5
								c20.4-22.3,47-34,74.6-32.9c57,2.2,101.4,58.4,98.9,125.3c-1.2,32.4-13.1,62.4-33.4,84.5
								C997.9,1243.5,972.7,1255.1,946.3,1255.1z M948.6,1016.5c-25.2,0-49.3,11.1-68,31.6c-19.6,21.4-31.1,50.5-32.3,81.8
								c-2.5,64.5,40,118.7,94.7,120.8c26.5,1,51.7-10.2,71.3-31.5c19.6-21.4,31.1-50.5,32.3-81.8c2.5-64.5-40-118.7-94.7-120.8
								C950.8,1016.6,949.7,1016.5,948.6,1016.5z"/>
						</g>
					</g>
				</g>
				<g>
					<g>
						<path class="st41" d="M946.3,1270.1c-1.3,0-2.7,0-4-0.1c-65.3-2.5-116.1-65.7-113.3-140.9c1.4-35.9,14.6-69.3,37.4-94.1
							c23.4-25.6,54-39,86.3-37.7c65.3,2.5,116.1,65.7,113.3,140.9c-1.4,35.9-14.6,69.3-37.4,94.1
							C1006,1256.8,977,1270.1,946.3,1270.1z M948.6,1031.5c-21,0-41.1,9.4-57,26.7c-17.2,18.8-27.3,44.4-28.4,72.2
							c-2.1,56.3,33.9,103.5,80.3,105.3c21.8,0.8,43.1-8.6,59.7-26.7c17.2-18.8,27.3-44.4,28.4-72.2c2.1-56.3-33.9-103.5-80.3-105.3
							C950.4,1031.6,949.5,1031.5,948.6,1031.5z"/>
					</g>
				</g>
				<g>
					<g>
						<g>
							<path class="st60" d="M1666.5,1381C1666.5,1381,1666.4,1381,1666.5,1381c-33,57.1-99,80.6-147.4,52.6
								c-11.1-6.4-20.3-14.9-27.4-24.9c-87.1,102.2-211.3,170.9-383.9,107.3c-160.3-59-200.1-176.2-193.8-289.9
								c8.2-148,94.5-290.1,94.5-290.1l60.4-101.4l590.5,245.5c-9.7,29-26.3,79.3-51.5,136.3c10.6,1.7,20.9,5.2,30.5,10.7
								C1686.8,1255,1699.4,1323.9,1666.5,1381z"/>
						</g>
					</g>
					<g>
						<g>
							<path class="st41" d="M1236.1,1542.7c-41.3,0-84.4-8.2-129.2-24.7c-137.4-50.6-203.1-148.9-195.2-292
								c8.1-146.9,94-289.7,94.8-291.1l61.4-103l1.7,0.7l592.4,246.2l-1.4,4.3c-9.7,28.9-25.7,77.1-49.6,131.5
								c10.1,1.9,19.7,5.4,28.5,10.5c24,13.9,40.2,37.9,45.7,67.6c5.4,29.6-0.5,61.3-16.7,89.3l-0.2,0.3
								c-33.5,57.8-100.8,81.6-150.2,53.1c-10.3-6-19.2-13.8-26.5-23.3C1416.7,1499.1,1331.1,1542.7,1236.1,1542.7z M1069.7,837.2
								l-59.5,99.8c-0.9,1.4-86.2,143.4-94.2,289.2c-7.8,141,57,237.9,192.4,287.7c146.8,54.1,275.2,18.2,381.6-106.6l1.8-2.1
								l1.6,2.2c7.1,10,16.1,18.2,26.7,24.3c47.3,27.3,112.1,4.1,144.4-51.8l0.2-0.3c15.6-27.1,21.3-57.7,16.1-86.2
								c-5.2-28.5-20.7-51.4-43.6-64.6c-9.1-5.3-19.1-8.8-29.7-10.5l-2.8-0.4l1.1-2.6c24.5-55.3,40.8-104.4,50.6-133.7l0.2-0.5
								L1069.7,837.2z M1666.7,1381.3L1666.7,1381.3l-0.3-0.3L1666.7,1381.3z"/>
						</g>
					</g>
				</g>
				<g class="st42">
					<g>
						<path class="st41" d="M1666.4,1381.1c-33,57-98.9,80.5-147.3,52.6c-11.1-6.4-20.3-14.9-27.4-24.9
							c-87.1,102.2-211.3,170.9-383.9,107.3c-160.3-59-200.1-176.2-193.8-289.9c0,0,0,0,0,0.1c31.5,131.3,139.5,243.8,299.5,252.1
							c160,8.2,273.5-120.6,273.5-120.6C1573.9,1445.1,1663.1,1383.4,1666.4,1381.1z"/>
					</g>
				</g>
				<g>
					<g>
						<path class="st41" d="M1236.7,1557.9c-43.1,0-88.1-8.6-135-25.8c-96.7-35.6-160.1-95-188.6-176.5
							c-64.9-185.7,74.6-418.7,80.6-428.5l60.3-101.3c4.4-7.3,13.4-10.3,21.3-7.1l590.6,245.5c8.3,3.5,12.5,12.7,9.7,21.3l-0.8,2.4
							c-8.8,26.4-22.9,68.5-43.3,117c5.3,2,10.5,4.4,15.4,7.3c27.9,16.1,46.7,43.8,52.9,77.9c6.1,33.1-0.5,68.4-18.5,99.5l0,0
							c-37.6,65.2-114.3,91.6-170.9,58.9c-6.8-3.9-13.1-8.6-18.8-13.9C1416.4,1516.7,1331.1,1557.9,1236.7,1557.9z M1075.9,856.1
							l-52.8,88.7c-1.4,2.4-137.1,229.2-77.6,399.6c24.9,71.3,81.5,123.7,168,155.6c140.3,51.7,263.1,17.3,364.9-102.3
							c3.4-4,8.4-6.2,13.8-6c5.3,0.2,10.2,2.9,13.2,7.2c5.9,8.3,13.3,15,22,20c40.2,23.2,95.8,2.4,124-46.4c0,0,0,0,0,0
							c13.9-24.1,19-51.1,14.4-76.2c-4.4-24.1-17.3-43.4-36.3-54.4c-7.5-4.3-15.8-7.2-24.6-8.6c-5.3-0.8-9.8-4.1-12.4-8.7
							c-2.6-4.7-2.8-10.3-0.6-15.2c20.9-47.3,35.9-90.1,45.8-119.6L1075.9,856.1z"/>
					</g>
				</g>
				<g>
					<g>
						<path class="st41" d="M1260,1291.7c0,0-4.1,21.8-16.6,44.8c-16.9,31.1-49.2,64.4-107.9,49.7c-6.4-1.6-12.1-3.5-17.3-5.8
							c-74-31.6-38.1-122-38.1-122S1169.2,1308.4,1260,1291.7z"/>
					</g>
				</g>
				<g>
					<g>
						<g>
							<path class="st55" d="M1243.4,1336.5c-16.9,31.1-49.2,64.4-107.9,49.7c-6.4-1.6-12.1-3.5-17.3-5.8
								c1.1-24.4,29.6-47.2,67.2-52.6C1207.6,1324.7,1228.5,1328.3,1243.4,1336.5z"/>
						</g>
					</g>
					<g>
						<g>
							<path class="st41" d="M1163,1392c-8.6,0-17.9-1.1-27.9-3.7c-6.3-1.6-12.3-3.6-17.7-5.9l-1.4-0.6l0.1-1.5
								c1.2-25.7,30.9-49.2,69-54.6c21.8-3.1,43.4,0.1,59.4,8.9l1.9,1l-1,1.9C1231.1,1363.8,1205.8,1392,1163,1392z M1120.5,1379.1
								c4.8,2,10.1,3.7,15.6,5.1c56.3,14.1,87.7-17.2,104.4-46.8c-14.9-7.5-34.8-10.2-54.8-7.4
								C1150.3,1335.1,1122.7,1356,1120.5,1379.1z"/>
						</g>
					</g>
				</g>
				<g>
					<g>
						<path class="st41" d="M1162.7,1403.5c-9.8,0-19.9-1.3-30.5-3.9c-6.9-1.7-13.5-3.9-19.4-6.5c-68.3-29.2-59.6-104.1-45.5-139.7
							c1.5-3.7,4.5-6.6,8.2-7.9c3.8-1.3,7.9-1,11.3,1c0.8,0.5,86,47.2,170.7,31.7c4.5-0.8,9,0.6,12.2,3.8c3.2,3.2,4.6,7.8,3.8,12.2
							c-0.2,1-4.6,24.2-18,48.9C1234,1382.8,1201.7,1403.5,1162.7,1403.5z M1088.5,1278.1c-5.7,23.8-10,70.4,35.1,89.7
							c4.7,2,9.8,3.7,15.3,5.1c40.4,10.1,71.5-4.3,92.4-42.9c4.2-7.8,7.4-15.3,9.7-21.8C1175.9,1313.5,1115.8,1290.6,1088.5,1278.1z
							"/>
					</g>
				</g>
				<g>
					<g>
						<path class="st62" d="M876.8,663c5.1-4.1,31.4-23.4,37-27.3c1.4-1,2.8-1.9,4.2-2.8c110.1-73.3-56.3,90.5,319.3-7.9
							c121.1-31.7,513.1-26.9,488.2,336.8c0,0,78,84.9,25.7,187c-6.5,12.7-15,25.6-25.9,38.7c-35.5,42.6-96.4,86.5-196.5,127.5
							c0,0-35-61.3,11.9-251.6c0,0-341.9-16.5-521.3-146.1L935,1107.9c0,0-17.6-74.8,18.1-271l-39.6-107.2L876.8,663z"/>
					</g>
					<g>
						<path class="st41" d="M896.3,646c5.2-4.1,10.5-8.1,16.3-12.1c1.4-1,2.8-2,4.2-2.9c21.8-14.5,37.1-19.5,48.1-15.9
							c13,4.3,18.6,19.8,25.1,37.8c13.3,36.9,149.8-18.1,247.1-30.1c64.8-8,285.8-25.2,408.8,91.1c61.4,58.1,89,141.2,81.9,247.1
							c7.3,8.5,75.2,91.4,25.4,188.8l0,0c-6.8,13.3-15.6,26.4-26.1,39.1c-39.8,47.7-106.2,90.8-197.4,128.1l-1.8,0.7l-0.9-1.6
							c-1.4-2.5-34.6-63.6,11.1-250.6c-32-1.9-347.5-23.6-517.6-144.9l-86,194l-1.5-6.2c-0.2-0.8-17.3-77,15.3-246 M952.4,861.2
							l0.3,0.6l-0.1,0.7c-27.1,140.1-19.9,216-16.7,238.1l82.7-186.6l2.2,1.6c176.8,127.8,516.7,145.6,520.1,145.7l2.6,0.1l-0.6,2.5
							c-41.9,170.1-17.9,237.2-13,248.3c89.6-36.9,154.8-79.3,193.8-126.1c10.3-12.4,19-25.3,25.6-38.3l0,0
							c51-99.6-24.6-183.8-25.3-184.6l-0.6-0.7l0.1-0.9c7.2-104.9-19.9-187.2-80.5-244.6c-121.6-115-340.9-98-405.3-90
							c-100.6,12.5-237.9,65.6-251.6,27.3c-6.1-16.9-11.3-31.5-22.3-35.1c-9.7-3.2-23.8,1.7-44.4,15.4c-1.4,0.9-2.7,1.8-4.1,2.8
							c-5.7,4-11,7.9-16.1,12"/>
					</g>
				</g>
				<g class="st44">
					<g>
						<path class="st0" d="M1746.4,1146.4c3.4-105.9-66.4-187-66.4-187c30.1-378.6-425.8-278.9-515.6-300
							c-102.5-24.1-127.2,1-127.2,1l-144.3-15.1c5.1-4.1,10.5-8.1,16.2-12.1c1.4-1,37.5-7.8,38.9-6.9c71.1,42.7,102,18.9,284.6-3.8
							c124.3-15.4,513.1-26.9,488.2,336.8C1720.7,959.4,1798.7,1044.3,1746.4,1146.4z"/>
					</g>
				</g>
				<g class="st46">
					<g>
						<path class="st41" d="M1751.2,1133.7c-50.5,92.5-122.2,140.4-222.3,181.4c0,0-35-61.3,11.9-251.6c0,0-341.9-16.5-521.3-146.1
							L935,1107.9c0,0,1.3-177.2,15.4-245.8c0,0-34.6-108.7-52.5-167.2c-17.3-56.6-18.4-63.2,15.9-59.3c1.7,0.2,2.8-1.9,4.2-2.8
							c-34.1,48.4,39.8,33,71.5,125.5c47.3,137.9,181.6,154.5,181.6,154.5S1068.8,834.5,1073,661c0,0,50.9,196.4,251.5,269
							c0,0-33.3-26.9-43.9-122c0,0,96,199,327.3,153.8C1607.8,961.7,1570.1,1195.8,1751.2,1133.7z"/>
					</g>
				</g>
				<g>
					<g>
						<path class="st41" d="M1528.8,1332.2c-6,0-11.8-3.2-14.9-8.7c-3.8-6.6-34.7-68.1,5.5-244.3c-74.9-5.6-332.6-31.9-492.6-136.1
							l-76.1,171.7c-3,6.7-10,10.8-17.3,10.1c-7.3-0.7-13.4-6-15.1-13.1c-0.7-3.2-17.8-78.8,14.3-247.7
							c-6.5-15.4-24.2-62.2-26-120.5c-2.1-65.7-102-53-2.5-122.1l0,0c29.8-20.7,49.4-27.2,65.7-21.9c18.6,6.1,21.8,15.6,28,33.7
							c12.1,35.1,147.5-21.6,238.8-25.5l5.2-0.2c91.9-3.9,307-13.2,423.9,106.7c57,58.5,83,139.8,77.4,241.8
							c14.6,18.9,56,81.2,37.8,159.4c-19.8,85-102.5,157.4-245.7,215.4C1533.1,1331.8,1531,1332.2,1528.8,1332.2z M1019.5,900.1
							c3.6,0,7.1,1.1,10.1,3.3c173.1,125.2,508.7,142.8,512,142.9c5.1,0.2,9.9,2.8,12.9,6.9c3.1,4.1,4.1,9.4,2.9,14.4
							c-32.1,130.1-24.7,197.5-18.3,224.6c121.7-52.1,191.7-113.9,208.3-184c17.6-74.6-34.2-134.3-34.7-134.9c-3-3.4-4.6-8-4.3-12.6
							c6.5-95.1-16.2-169.9-67.3-222.3c-106.2-108.9-310.6-100.2-397.9-96.4l-5.2,0.2c-116.8,5-256.7,48.5-269.5,11.5
							c-2.7-7.8-6.8-19.6-9.6-21.4c-0.2,0-7.5-1.8-35.4,17.6l0,0c-69.4,48.2,15,9.1,17.2,91.7c1.7,63.2,24.9,112.8,25.1,113.3
							c1.6,3.3,2,7,1.4,10.6c-14.7,76.1-19.2,132.8-19.7,171.8l56.2-126.8c2.1-4.7,6.2-8.3,11.2-9.6
							C1016.5,900.3,1018,900.1,1019.5,900.1z M913.8,635.6L913.8,635.6L913.8,635.6z"/>
					</g>
				</g>
				<g>
					<g>
						<g>
							<path class="st41" d="M1030.5,1115.6c12.8-37.4,44.1-60.6,70-51.8c25.9,8.8,36.5,46.3,23.8,83.7
								c-12.8,37.4-44.1,60.6-70,51.8C1028.5,1190.5,1017.8,1153,1030.5,1115.6z"/>
						</g>
					</g>
				</g>
				<g>
					<g>
						<g>
							<path class="st0" d="M1076.5,1116.1c4.6-13.6,15.6-22.1,24.5-19.1c8.9,3,12.4,16.5,7.8,30c-4.6,13.6-15.6,22.1-24.5,19.1
								C1075.3,1143.1,1071.9,1129.6,1076.5,1116.1z"/>
						</g>
					</g>
					<g>
						<g>
							<path class="st41" d="M1087.9,1148.8c-1.5,0-2.9-0.2-4.3-0.7c-10-3.4-14.1-18.1-9.1-32.7l0,0c5-14.6,17.2-23.8,27.2-20.4
								c5,1.7,8.7,6.2,10.3,12.5c1.6,6.1,1.1,13.2-1.2,20.2C1106.5,1140.3,1096.9,1148.8,1087.9,1148.8z M1078.5,1116.7
								c-4.2,12.4-1.3,24.7,6.4,27.3c7.8,2.6,17.6-5.3,21.8-17.7c2.1-6.2,2.5-12.5,1.1-17.8c-1.3-5-4-8.4-7.6-9.6
								C1092.5,1096.4,1082.7,1104.3,1078.5,1116.7L1078.5,1116.7z"/>
						</g>
					</g>
				</g>
				<g>
					<g>
						<g>
							<path class="st41" d="M1293.4,1177c12.8-37.4,44.1-60.6,70-51.8c25.9,8.8,36.5,46.3,23.8,83.7c-12.8,37.4-44.1,60.6-70,51.8
								C1291.3,1251.9,1280.6,1214.4,1293.4,1177z"/>
						</g>
					</g>
				</g>
				<g>
					<g>
						<g>
							<path class="st0" d="M1339.3,1177.4c4.6-13.6,15.6-22.1,24.5-19.1c8.9,3,12.4,16.5,7.8,30c-4.6,13.6-15.6,22.1-24.5,19.1
								C1338.2,1204.4,1334.7,1191,1339.3,1177.4z"/>
						</g>
					</g>
					<g>
						<g>
							<path class="st41" d="M1350.7,1210.2c-1.5,0-2.9-0.2-4.3-0.7c-10-3.4-14.1-18.1-9.1-32.7l0,0c5-14.6,17.2-23.8,27.2-20.4
								c5,1.7,8.7,6.2,10.3,12.5c1.6,6.1,1.1,13.2-1.2,20.2C1369.3,1201.6,1359.7,1210.2,1350.7,1210.2z M1341.3,1178.1
								c-4.2,12.4-1.3,24.7,6.4,27.3c7.8,2.6,17.6-5.3,21.8-17.7c2.1-6.2,2.5-12.5,1.1-17.8c-1.3-5-4-8.4-7.6-9.6
								C1355.3,1157.7,1345.5,1165.7,1341.3,1178.1L1341.3,1178.1z"/>
						</g>
					</g>
				</g>
			</g>
			<g class="st42">
				<g>
					<path class="st41" d="M743,1488.6c0,0-77.2,74.5-137.7,9.1v19.4l9.2,30.9l27.1,22.1l73.4-2l22.5-16.8l12.4-21.9L743,1488.6z"/>
				</g>
			</g>
		</g>
		<g>
			<path d="M896,1241.8c0,0,225.1-15.5,261.3-2.6c36.2,12.9,113.8,38.8,119,46.6s46.6,38.8,95.7,64.7s98.3,46.6,98.3,46.6l20.7,49.2
				c0,0-18.1,56.9-31,62.1s-119,72.4-170.7,85.4c-51.7,12.9-150,49.2-163,56.9c-12.9,7.8-36.2,20.7-36.2,20.7s-41.4-5.2-46.6-25.9
				c-5.2-20.7-126.8-191.4-129.4-214.7S865,1228.8,896,1241.8z"/>
			<g>
				<path class="st0" d="M1076,1602.5c-2.8,0-4.5,0-4.8-0.1l-1.9-0.1l-21.7-36.1c-3-4.9-48.5-77-59.3-92
					c-11.3-15.6-59.7-206.3-65.2-227.9l-0.8-3.2l21.4-6.1l0.9,3.5c13.6,53.8,50.8,196,59.7,208.3c11.3,15.6,56.7,87.6,59.7,92.5
					l19.7,32.8c10.3,0.1,61.5-0.3,104.6-16.2c47.2-17.4,102.7-41.8,116.5-51.3c15.8-10.9,40.3-26.5,69.8-36.6
					c28.7-9.8,64-22.2,82.5-30.1c16.6-7.1,20.8-12.1,20.9-12.1l3.2-4.2l2.5,4.7l6.7,12.1l-2.1,1.8c-0.8,0.7-20.5,17.7-38.8,25.6
					c-18.7,8-54.2,20.4-83,30.3c-28.8,9.9-52.7,25.2-68.1,35.8c-14.4,9.9-69.6,34.3-118,52.1
					C1138.6,1601.1,1091.1,1602.5,1076,1602.5z M1073.2,1595.5c10.3,0.1,61.5-0.3,104.6-16.2c47.2-17.4,102.7-41.8,116.5-51.3
					c15.8-10.9,40.3-26.5,69.8-36.6c28.7-9.8,64-22.2,82.5-30.1c14-6,29.4-18.1,34.9-22.6l-1.9-3.4c-3.3,2.5-9.4,6.4-19.9,10.9
					c-18.7,8-54.2,20.4-83,30.3c-28.8,9.9-52.7,25.1-68.1,35.8c-14.4,9.9-69.6,34.3-118,52.1c-49.2,18.1-106.7,16.7-109.1,16.6
					l-1.9-0.1l-21.7-36.1c-3-4.9-48.5-77-59.3-92c-10.8-14.9-52-175.8-59.9-207.2l-8.1,2.3c15.4,60.8,54.6,210.3,63.3,222.4
					c11.3,15.6,56.7,87.6,59.7,92.5L1073.2,1595.5z"/>
			</g>
			<g>
				<path class="st0" d="M1127.1,1549.3c-8.3,0-17.1-2.2-25.3-6.5c-21.4-11.1-32.3-32.7-24.3-48.2c8-15.5,31.9-19.1,53.3-8
					c21.4,11.1,32.3,32.7,24.3,48.2c-4,7.7-11.9,12.7-22.2,14.1C1131,1549.2,1129.1,1549.3,1127.1,1549.3z M1105.5,1487
					c-9.8,0-18.1,3.7-21.8,10.8c-6.3,12.1,3.3,29.5,21.3,38.9c8.9,4.6,18.5,6.5,27,5.4c8-1.1,14.1-4.8,17-10.4v0
					c6.3-12.1-3.3-29.5-21.3-38.9C1120.3,1488.9,1112.5,1487,1105.5,1487z"/>
			</g>
			<g>
				<path class="st0" d="M1385.5,1447.6c-8.3,0-17.1-2.2-25.3-6.5c-21.4-11.1-32.3-32.7-24.3-48.2c4-7.7,11.9-12.7,22.2-14.1
					c9.9-1.3,20.9,0.9,31.1,6.1c21.4,11.1,32.3,32.7,24.3,48.2c-4,7.7-11.9,12.7-22.2,14.1
					C1389.4,1447.4,1387.5,1447.6,1385.5,1447.6z M1364,1385.3c-1.7,0-3.3,0.1-4.9,0.3c-8,1.1-14.1,4.8-17,10.4
					c-6.3,12.1,3.3,29.5,21.3,38.9c8.9,4.6,18.5,6.5,27,5.4c8-1.1,14.1-4.8,17-10.4l0,0c6.3-12.1-3.3-29.5-21.3-38.9
					C1378.9,1387.3,1371.2,1385.3,1364,1385.3z"/>
			</g>
			<g>
				<path class="st0" d="M1009.4,1307.8c-24.1,0-43.7-14.2-43.7-31.6c0-17.4,19.6-31.6,43.7-31.6c24.1,0,43.7,14.2,43.7,31.6
					C1053.1,1293.6,1033.5,1307.8,1009.4,1307.8z M1009.4,1251.5c-20.3,0-36.8,11.1-36.8,24.7c0,13.6,16.5,24.7,36.8,24.7
					c20.3,0,36.8-11.1,36.8-24.7C1046.2,1262.6,1029.7,1251.5,1009.4,1251.5z"/>
			</g>
		</g>
	</g>
	<path class="st41" d="M2231,1648.2c-15.5,0-38-12.3-38-34.5c0-3.8,0-8.1,24.8-110.8l3.8-15.6l39.5-11.3l11.1,16.7
		c8.9,13.4,10.1,20.8,10.1,26.2c0,2,0,5.8-3.4,21.1l-0.1,0.5c-2.3,9.4-9.7,40-11.2,45.6c-0.8,3.2-3.7,18.1-5.2,26.1
		c-2,10.2-2.5,12.8-2.9,14.4C2256.2,1639.5,2244.8,1648.2,2231,1648.2C2231,1648.2,2231,1648.2,2231,1648.2z"/>
	<path class="st63" d="M2244.5,1509.2c0,0-24,99.6-24,104.4c0,4.8,11.7,8.9,12.4,6.2c0.7-2.7,6.9-36.4,8.2-41.2
		c1.4-4.8,11-44.6,11-44.6s2.7-12.4,2.7-15.1c0-2.7-5.5-11-5.5-11L2244.5,1509.2z"/>
</g>
</svg>
