<?xml version="1.0" encoding="utf-8"?>
<!-- Generator: Adobe Illustrator 22.0.1, SVG Export Plug-In . SVG Version: 6.00 Build 0)  -->
<svg version="1.1" id="Layer_1" xmlns="http://www.w3.org/2000/svg" xmlns:xlink="http://www.w3.org/1999/xlink" x="0px" y="0px"
	 viewBox="0 0 1440 1758" style="enable-background:new 0 0 1440 1758;" xml:space="preserve">
<style type="text/css">
	.st0{clip-path:url(#SVGID_2_);}
	.st1{fill:url(#SVGID_3_);}
	.st2{fill:url(#SVGID_4_);}
	.st3{fill:url(#SVGID_5_);}
	.st4{fill:url(#SVGID_6_);}
	.st5{fill:url(#SVGID_7_);}
	.st6{fill:url(#SVGID_8_);}
	.st7{fill:url(#SVGID_9_);}
	.st8{fill:url(#SVGID_10_);}
	.st9{fill:url(#SVGID_11_);}
	.st10{fill:url(#SVGID_12_);}
	.st11{fill:url(#SVGID_13_);}
	.st12{fill:url(#SVGID_14_);}
	.st13{fill:url(#SVGID_15_);}
	.st14{fill:#E1B289;}
	.st15{opacity:0.35;fill:#FFFFF2;}
	.st16{fill:#B58168;}
	.st17{opacity:0.46;fill:#E1B289;}
	.st18{fill:#744349;}
	.st19{fill:none;stroke:#744349;stroke-width:0.5;stroke-miterlimit:10;}
	.st20{opacity:0.29;fill:#744349;}
	.st21{fill:none;stroke:#744349;stroke-width:0.5;stroke-linecap:round;stroke-linejoin:round;stroke-miterlimit:10;}
	.st22{fill:url(#SVGID_16_);}
	.st23{fill:#ADDF72;}
	.st24{fill:url(#SVGID_17_);}
	.st25{fill:#FFE68F;}
	.st26{fill:none;}
	.st27{fill:url(#SVGID_18_);}
	.st28{fill:#87BC61;}
	.st29{fill:#FFC46E;}
	.st30{fill:#542032;}
	.st31{fill:none;stroke:#542032;stroke-width:0.3;stroke-miterlimit:10;}
	.st32{fill:none;stroke:#542032;stroke-width:0.5;stroke-miterlimit:10;}
	.st33{fill:#56664B;}
	.st34{opacity:0.37;fill:#56664B;}
	.st35{opacity:0.26;fill:#56664B;}
	.st36{fill:#7B4C3E;}
	.st37{fill:#5A7D52;}
	.st38{fill:#38674C;}
	.st39{opacity:0.23;fill:#3A5C31;}
	.st40{opacity:0.26;fill:#DCFFB6;}
</style>
<g>
	<defs>
		<rect id="SVGID_1_" width="1440" height="1758"/>
	</defs>
	<clipPath id="SVGID_2_">
		<use xlink:href="#SVGID_1_"  style="overflow:visible;"/>
	</clipPath>
	<g class="st0">
		<linearGradient id="SVGID_3_" gradientUnits="userSpaceOnUse" x1="732.0413" y1="1440.1935" x2="732.0413" y2="48.4901">
			<stop  offset="0" style="stop-color:#FFAB7C"/>
			<stop  offset="1" style="stop-color:#D7FFE6"/>
		</linearGradient>
		<rect x="-485.6" y="-41.8" class="st1" width="2435.2" height="1776.8"/>
		<linearGradient id="SVGID_4_" gradientUnits="userSpaceOnUse" x1="29.3949" y1="1122.9154" x2="29.3949" y2="1459.5471">
			<stop  offset="0" style="stop-color:#FFFFFF;stop-opacity:0.8"/>
			<stop  offset="1" style="stop-color:#FFFFFF;stop-opacity:0"/>
		</linearGradient>
		<path class="st2" d="M475.1,1567.7l-14.2-382c0-46.3-37.6-83.9-83.9-83.9c-19.6,0-37.7,6.8-52,18c0.4-2.8,0.7-5.7,0.7-8.7
			c0-30.2-24.5-54.8-54.8-54.8c-8.5,0-16.6,2-23.8,5.5c-7.1-41.5-43.2-73.1-86.7-73.1c-45.2,0-82.5,34.2-87.4,78.1
			c-11.9-34.5-44.6-59.4-83.2-59.4c-10.6,0-20.7,1.9-30,5.3c-16-38.6-54.1-65.8-98.6-65.8c-15.7,0-30.6,3.4-44.1,9.5
			c3-10.4,4.6-21.5,4.6-32.9c0-65.8-53.4-119.2-119.2-119.2c-65.8,0-119.2,53.4-119.2,119.2c0,29.8,11,57.1,29.1,78v566H475.1z"/>
		<linearGradient id="SVGID_5_" gradientUnits="userSpaceOnUse" x1="1470.0509" y1="1122.9149" x2="1470.0509" y2="1459.5468">
			<stop  offset="0" style="stop-color:#FFFFFF;stop-opacity:0.8"/>
			<stop  offset="1" style="stop-color:#FFFFFF;stop-opacity:0"/>
		</linearGradient>
		<path class="st3" d="M1024.3,1637.5l14.2-382c0-46.3,37.6-83.9,83.9-83.9c19.6,0,37.7,6.8,52,18c-0.4-2.8-0.7-5.7-0.7-8.7
			c0-30.2,24.5-54.8,54.8-54.8c8.5,0,16.6,2,23.8,5.5c7.1-41.5,43.2-73.1,86.7-73.1c45.2,0,82.5,34.2,87.4,78.1
			c11.9-34.5,44.6-59.4,83.2-59.4c10.6,0,20.7,1.9,30,5.3c16-38.6,54.1-65.8,98.6-65.8c15.7,0,30.6,3.4,44.1,9.5
			c-3-10.4-4.6-21.5-4.6-32.9c0-65.8,53.4-119.2,119.2-119.2c65.8,0,119.2,53.4,119.2,119.2c0,29.8-11,57.1-29.1,78v566H1024.3z"/>
		<g>
			<linearGradient id="SVGID_6_" gradientUnits="userSpaceOnUse" x1="460.9252" y1="756.856" x2="460.9252" y2="875.9315">
				<stop  offset="0" style="stop-color:#FFFFFF"/>
				<stop  offset="1" style="stop-color:#FFFFFF;stop-opacity:0"/>
			</linearGradient>
			<path class="st4" d="M593.7,830.9c-12.3-0.1-23.2,6.2-29.5,15.8c-4.8-21.7-24.1-38-47.3-38.1c-6,0-11.7,1-17,3
				c0.5-2.6,0.7-5.3,0.7-8.1c0.1-26.9-21.6-48.8-48.5-48.9c-26.9-0.1-48.8,21.6-48.9,48.5c0,2.6,0.2,5.1,0.6,7.6
				c-6.4-4.4-14.2-7-22.6-7c-21.5-0.1-39,16.6-40.4,37.7c-2.3-0.4-4.7-0.7-7.1-0.7c-22-0.1-39.9,17.4-40.5,39.2l332.2,1.6
				c2.2-4.6,3.5-9.7,3.5-15.1C628.9,846.9,613.2,831,593.7,830.9z"/>
			<linearGradient id="SVGID_7_" gradientUnits="userSpaceOnUse" x1="1636.4156" y1="752.9592" x2="1636.4156" y2="978.4858">
				<stop  offset="0" style="stop-color:#FFFFFF"/>
				<stop  offset="1" style="stop-color:#FFFFFF;stop-opacity:0"/>
			</linearGradient>
			<path class="st5" d="M1887.9,893.2c-23.4-0.1-44,11.8-56,30c-9.1-41.1-45.7-72-89.6-72.2c-11.3-0.1-22.1,1.9-32.2,5.6
				c0.9-5,1.3-10.1,1.4-15.3c0.3-50.9-40.8-92.4-91.8-92.7c-50.9-0.3-92.4,40.8-92.7,91.8c0,4.9,0.3,9.7,1,14.3
				c-12.2-8.3-26.9-13.3-42.8-13.3c-40.6-0.2-73.9,31.4-76.6,71.4c-4.4-0.8-8.9-1.3-13.5-1.3c-41.6-0.2-75.6,32.9-76.8,74.3
				l629.1,3.1c4.2-8.7,6.6-18.3,6.7-28.6C1954.5,923.4,1924.8,893.4,1887.9,893.2z"/>
			<linearGradient id="SVGID_8_" gradientUnits="userSpaceOnUse" x1="-152.3312" y1="758.5172" x2="-152.3312" y2="984.0437">
				<stop  offset="0" style="stop-color:#FFFFFF"/>
				<stop  offset="1" style="stop-color:#FFFFFF;stop-opacity:0"/>
			</linearGradient>
			<path class="st6" d="M99.2,898.8c-23.4-0.1-44,11.8-56,30c-9.1-41.1-45.7-72-89.6-72.2c-11.3-0.1-22.1,1.9-32.2,5.6
				c0.9-5,1.3-10.1,1.4-15.3c0.3-50.9-40.8-92.4-91.8-92.7c-50.9-0.3-92.4,40.8-92.7,91.8c0,4.9,0.3,9.7,1,14.3
				c-12.2-8.3-26.9-13.3-42.8-13.3c-40.6-0.2-73.9,31.4-76.6,71.4c-4.4-0.8-8.9-1.3-13.5-1.3c-41.6-0.2-75.6,32.9-76.8,74.3
				l629.1,3.1c4.2-8.7,6.6-18.3,6.7-28.6C165.7,929,136,899,99.2,898.8z"/>
			<linearGradient id="SVGID_9_" gradientUnits="userSpaceOnUse" x1="1268.2764" y1="809.621" x2="1268.2764" y2="973.079">
				<stop  offset="0" style="stop-color:#FFFFFF"/>
				<stop  offset="1" style="stop-color:#FFFFFF;stop-opacity:0"/>
			</linearGradient>
			<path class="st7" d="M1450.6,911.3c-16.9-0.1-31.9,8.6-40.6,21.7c-6.6-29.8-33.1-52.2-64.9-52.3c-8.2,0-16,1.4-23.3,4.1
				c0.6-3.6,1-7.3,1-11.1c0.2-36.9-29.6-67-66.5-67.2c-36.9-0.2-67,29.6-67.2,66.5c0,3.5,0.2,7,0.8,10.4c-8.8-6-19.5-9.6-31-9.7
				c-29.5-0.1-53.6,22.7-55.5,51.7c-3.2-0.6-6.4-0.9-9.8-1c-30.2-0.1-54.8,23.8-55.6,53.8l456,2.3c3-6.3,4.8-13.3,4.8-20.7
				C1498.8,933.2,1477.3,911.4,1450.6,911.3z"/>
			<linearGradient id="SVGID_10_" gradientUnits="userSpaceOnUse" x1="33.148" y1="583.1346" x2="33.148" y2="767.5491">
				<stop  offset="0" style="stop-color:#FFFFFF"/>
				<stop  offset="1" style="stop-color:#FFFFFF;stop-opacity:0"/>
			</linearGradient>
			<path class="st8" d="M238.8,697.8c-19.1-0.1-35.9,9.7-45.8,24.5c-7.5-33.6-37.3-58.9-73.2-59c-9.2,0-18.1,1.6-26.3,4.6
				c0.7-4.1,1.1-8.2,1.1-12.5c0.2-41.7-33.4-75.6-75-75.8c-41.7-0.2-75.6,33.4-75.8,75c0,4,0.3,7.9,0.9,11.7
				c-10-6.8-22-10.8-35-10.9c-33.2-0.2-60.5,25.6-62.6,58.4c-3.6-0.7-7.3-1.1-11-1.1c-34-0.2-61.8,26.9-62.8,60.7l514.4,2.5
				c3.4-7.1,5.4-15,5.4-23.4C293.2,722.5,268.9,698,238.8,697.8z"/>
			<linearGradient id="SVGID_11_" gradientUnits="userSpaceOnUse" x1="367.2369" y1="907.7324" x2="367.2369" y2="1088.4659">
				<stop  offset="0" style="stop-color:#FFFFFF"/>
				<stop  offset="1" style="stop-color:#FFFFFF;stop-opacity:0"/>
			</linearGradient>
			<path class="st9" d="M138.4,1017.5c21.3-0.1,40,10.8,50.9,27.3c8.3-37.4,41.5-65.5,81.5-65.7c10.3-0.1,20.1,1.8,29.3,5.1
				c-0.8-4.5-1.2-9.2-1.2-13.9c-0.2-46.3,37.2-84.1,83.5-84.3c46.3-0.2,84.1,37.2,84.3,83.5c0,4.4-0.3,8.8-0.9,13
				c11.1-7.6,24.5-12.1,38.9-12.1c37-0.2,67.3,28.5,69.7,64.9c4-0.7,8.1-1.2,12.3-1.2c37.9-0.2,68.8,29.9,69.8,67.6l-572.4,2.8
				c-3.8-7.9-6-16.7-6.1-26C77.9,1045,104.9,1017.7,138.4,1017.5z"/>
			<linearGradient id="SVGID_12_" gradientUnits="userSpaceOnUse" x1="779.9996" y1="844.0107" x2="779.9996" y2="938.7872">
				<stop  offset="0" style="stop-color:#FFFFFF"/>
				<stop  offset="1" style="stop-color:#FFFFFF;stop-opacity:0"/>
			</linearGradient>
			<path class="st10" d="M866.8,902.2c-0.7-42.4-35.3-76.6-77.9-76.6c-35,0-64.6,23-74.5,54.8c-35.5,1-64.1,29.6-65.2,65.1h73.9
				h60.5h30.9h40.1h56.1C908.5,922.4,890,904.2,866.8,902.2z"/>
			
				<linearGradient id="SVGID_13_" gradientUnits="userSpaceOnUse" x1="920.3517" y1="980.8787" x2="920.3517" y2="1056.8047" gradientTransform="matrix(-1 0 0 1 1831.1212 0)">
				<stop  offset="0" style="stop-color:#FFFFFF"/>
				<stop  offset="1" style="stop-color:#FFFFFF;stop-opacity:0"/>
			</linearGradient>
			<path class="st11" d="M841.2,1027.5c0.6-34,28.3-61.4,62.4-61.4c28,0,51.8,18.5,59.7,43.9c28.4,0.8,51.3,23.7,52.2,52.1h-59.2
				h-48.5h-24.8H851H806C807.9,1043.7,822.7,1029.1,841.2,1027.5z"/>
			<linearGradient id="SVGID_14_" gradientUnits="userSpaceOnUse" x1="1604.1561" y1="602.7591" x2="1604.1561" y2="692.1235">
				<stop  offset="0" style="stop-color:#FFFFFF"/>
				<stop  offset="1" style="stop-color:#FFFFFF;stop-opacity:0"/>
			</linearGradient>
			<path class="st12" d="M1686,657.6c-0.7-40-33.3-72.2-73.5-72.2c-33,0-60.9,21.7-70.2,51.7c-33.5,1-60.4,27.9-61.5,61.3h69.7h57
				h29.2h37.8h52.9C1725.3,676.7,1707.8,659.5,1686,657.6z"/>
			<linearGradient id="SVGID_15_" gradientUnits="userSpaceOnUse" x1="1132.598" y1="974.9917" x2="1132.598" y2="1064.3561">
				<stop  offset="0" style="stop-color:#FFFFFF"/>
				<stop  offset="1" style="stop-color:#FFFFFF;stop-opacity:0"/>
			</linearGradient>
			<path class="st13" d="M1214.5,1029.9c-0.7-40-33.3-72.2-73.5-72.2c-33,0-60.9,21.7-70.2,51.7c-33.5,1-60.4,27.9-61.5,61.3h69.7
				h57h29.2h37.8h52.9C1253.7,1048.9,1236.3,1031.7,1214.5,1029.9z"/>
		</g>
		<g>
			<path class="st14" d="M-346.6,1331.9c0,0,140.5-30.6,251.6-110.1c111.1-79.5,220.7,35.2,314.9,25.3
				c94.2-10,384.4-227.5,442.4-232.9c58-5.4,347.3,205.5,402.9,209.4c55.6,3.9,183.3-52.8,227.8-50.6c44.5,2.2,125,83.5,170.8,75.7
				c45.9-7.7,129.1-81.8,177.4-75.7c48.4,6.1,237.7,166.4,237.7,166.4v153H-346.6V1331.9z"/>
			<path class="st15" d="M1655.8,1193.5c10.6,5.8,94.5,62.4,94.5,62.4l128.7,99.5v-15.9c0,0-189.4-160.4-237.7-166.4
				c-48.4-6.1-131.6,68-177.4,75.7c-45.9,7.7-126.3-73.5-170.8-75.7c-44.5-2.2-172.2,54.4-227.8,50.6
				c-55.6-3.9-344.9-214.7-402.9-209.4c-58,5.4-348.2,222.9-442.4,232.9c-94.2,9.9-203.8-104.7-314.9-25.3
				c-111.1,79.5-251.6,110.1-251.6,110.1v11c46-15.9,187.9-65.6,227.8-86.9c47.9-25.6,72.5-25.6,69.6-12.5
				c-2.9,13.1,13.8,7.1,31.6-6.6c17.8-13.7,48.7,3.6,60.8,0c12.1-3.6-15-23.9,0-21c15,2.9,147.2,63.6,228.4,65.9
				c81.2,2.3,98.6,12.5,81.2,2.3s-90.5-6.6-111.7-21.8c-21.2-15.2,94.5-51.3,168.8-93.3s142.1-77.9,141.1-72.1
				c-1,5.8-32.4,33.9-22.7,31.9c9.7-1.9,80.8-53.7,100.6-60c19.8-6.3,11.6,29.5,6.3,35.8c-5.3,6.3,26.6-16.9,31.9-36.5
				c5.3-19.6,36.8-9.9,60,7c23.2,16.9-1.5-10.3,3.4-12.9c4.8-2.6,115.1,58.4,151.4,76.7c36.3,18.4,134.5,86.6,149.9,91.4
				c15.5,4.8-24.2,19.7-74.5,6.5c-50.3-13.2,34.8,31.3,96.7,28.4c61.9-2.9,0,28.1-37.7,30c-37.7,1.9-32.9,17.4,23.2,23.2
				c56.1,5.8,177-6.8,160.6-16.4c-16.4-9.7-148-7.7-88-21.3c60-13.5,70.6-20.3,36.8-18.4c-33.9,1.9-46.4-13.5-6.8-18.4
				c39.7-4.8-14.5,0-33.9-1.9c-19.3-1.9,151.9-51,168.3-60c16.4-9,62.9,16,52.2,20.6c-10.6,4.6-10.6,12.3,14.5,23.9
				c25.2,11.6-23.2-21.3,17.4-4.8c40.6,16.4,109.3,51.3,164.4,56.1c55.1,4.8,92.8,9.7,76.4,2.9c-16.4-6.8-77.4,1.9-112.2-24.7
				c0,0,86.5-36.7,106.4-58.5c19.9-21.8,1.9,21.3,5.8,21.3c3.9,0,17.4-28.1,23.2-25.2c5.8,2.9,45.5,44.5,39.7,31
				C1658.7,1210.9,1645.1,1187.7,1655.8,1193.5z"/>
		</g>
		<g>
			<path class="st16" d="M-214.5,1369.4c0,0,349.1-95.3,418.8-89.5c69.7,5.8,177.2,56.1,257.9,58c80.7,1.9,395.1-115.6,450.7-106.2
				c55.6,9.4,119.5,67.7,183.3,68.5s148.1-64.3,206.6-41.4c58.5,22.9,373.8,161.8,414.5,156.2c40.6-5.6,178-63.6,232.2-52
				c54.2,11.6,228.3,106.4,228.3,106.4H995.7l-1256.6-36.8L-214.5,1369.4z"/>
			<path class="st17" d="M1949.4,1363.1c-54.2-11.6-191.5,46.4-232.2,52c-40.6,5.6-356-133.3-414.5-156.2
				c-58.5-22.9-142.7,42.2-206.6,41.4c-63.8-0.9-127.7-59.1-183.3-68.5c-55.6-9.4-370,108.1-450.7,106.2
				c-80.7-1.9-188.2-52.2-257.9-58c-69.7-5.8-418.8,89.5-418.8,89.5l-4.6,6.2c46.1-9.9,194.8-42.3,253.2-60.9
				c69.5-22.1,152.8-31.9,181.4-22.2c28.5,9.7,163.9,57.4,307.1,67.4c143.2,10,204.2,11.9,193.5,8.1c-10.6-3.9-139.4,1-222.5-24.2
				c0,0,257.4-60,299-74.5c41.6-14.5,63.8-31,57.1-18.9c-6.8,12.1-141.2,58.6-121.9,57.6c19.3-1,147-55.1,137.4-40.6
				c-9.7,14.5-71.6,68.7-51.3,62.9c20.3-5.8,61.9-61.9,68.7-51.3c6.8,10.6-12.6,63.8,0,61.9c12.6-1.9,19.6-65.8,23.8-64.8
				c4.2,1,63.2,37.7,61.3,28.1c-1.9-9.7-35.8-37.7-29-36.8c6.8,1,69.6,49.4,72.5,45c2.9-4.4-44.5-42.1-31-39.2
				c13.5,2.9,87.1,41.6,145.1,49.3c58,7.7,120.9,19.3,111.2,14.5s-106.5-8.1-106.4-24.6c0.1-16.6,105.4-48.9,103.5-40.2
				c-1.9,8.7-29,23.2-12.6,19.3c16.4-3.9,33.9-25.2,59-23.2c25.2,1.9,289.2,116.1,318.3,123.8c29,7.7,69.6,19.3,62.9,22.2
				c-6.8,2.9-99.6,13.5-76.4,17.4c23.2,3.9,221.5,11.6,197.3,3.9c-24.2-7.7-69.6-10.6-44.5-18.4c25.2-7.7,144.1-38.7,167.3-37.7
				c19.7,0.8,195.1,69.4,247.4,90h25.3C2177.7,1469.5,2003.6,1374.7,1949.4,1363.1z"/>
		</g>
		<g>
			<polygon class="st18" points="306.8,1384 273.3,1384 278.2,1311.5 301.9,1311.5 			"/>
			<polygon class="st18" points="290.1,1294.7 273.1,1313.4 307,1313.4 			"/>
			<g>
				<g>
					<path class="st18" d="M301.1,1303.3l-4.5-4.5c-1.5-1.5-1.5-3.8-0.1-5.3l26.9-28.1c1.5-1.5,3.9-1.6,5.4-0.1l5.6,5.6
						c1.5,1.5,1.5,4-0.1,5.4l-28.1,26.9C304.9,1304.8,302.5,1304.8,301.1,1303.3z"/>
					<path class="st18" d="M279.1,1316.3l4.5,4.5c1.5,1.5,1.5,3.8,0.1,5.3l-26.9,28.1c-1.5,1.5-3.9,1.6-5.4,0.1l-5.6-5.6
						c-1.5-1.5-1.5-4,0.1-5.4l28.1-26.9C275.2,1314.9,277.6,1314.9,279.1,1316.3z"/>
					<line class="st19" x1="318.3" y1="1281.6" x2="267.8" y2="1332.1"/>
				</g>
				<g>
					<path class="st18" d="M296.6,1320.8l4.5-4.5c1.5-1.5,3.8-1.5,5.3-0.1l28.1,26.9c1.5,1.5,1.6,3.9,0.1,5.4l-5.6,5.6
						c-1.5,1.5-4,1.5-5.4-0.1l-26.9-28.1C295.1,1324.7,295.1,1322.3,296.6,1320.8z"/>
					<path class="st18" d="M283.5,1298.8l-4.5,4.5c-1.5,1.5-3.8,1.5-5.3,0.1l-28.1-26.9c-1.5-1.5-1.6-3.9-0.1-5.4l5.6-5.6
						c1.5-1.5,4-1.5,5.4,0.1l26.9,28.1C285,1295,285,1297.3,283.5,1298.8z"/>
					<line class="st19" x1="318.3" y1="1338.1" x2="267.8" y2="1287.5"/>
				</g>
			</g>
			<path class="st18" d="M201.2,1371.7c0,0,9.4-6.6,17.1-7.3c7.7-0.7,11.6,3.3,14,2.3c2.5-1,16.2-9,19.5-9s7.7,6.3,9.1,6.6
				c1.4,0.3,12.6-1.4,13.7,0.4c1.1,1.8,4,5.3,4,5.3l22.9,1.7c0,0,25.5-6.6,30.1-7c4.6-0.4,14-0.3,14-0.3s4.1-10.3,11-10
				c6.9,0.3,10.5,8.6,10.5,8.6s8.5-2.8,11.8,0.7c3.3,3.6,3.3,3.6,3.3,3.6s7.2,2.7,13.2,2.7c6.1,0,25.6,1.7,25.6,1.7l-91.1,32.6
				L219.3,1384L201.2,1371.7z"/>
			<g>
				<g>
					<polygon class="st18" points="447.3,1352 447.3,1344.1 436.5,1329.6 420.1,1324.2 403.8,1329.6 392.9,1344.1 392.9,1352 					
						"/>
					<polygon class="st18" points="443.1,1345.6 433.9,1333.3 420.1,1328.8 406.3,1333.3 397.2,1345.6 397.2,1378.5 443.1,1378.5 
											"/>
					<rect x="397.2" y="1366.3" class="st20" width="45.9" height="12.2"/>
					<path class="st18" d="M425.7,1342.5c0,3.1-2.5,5.6-5.6,5.6c-3.1,0-5.6-2.5-5.6-5.6c0-3.1,2.5-5.6,5.6-5.6
						C423.2,1336.9,425.7,1339.4,425.7,1342.5z"/>
					<path class="st20" d="M420.1,1344.3c-2.4,0-4.5-1.5-5.3-3.7c-0.2,0.6-0.4,1.2-0.4,1.9c0,3.1,2.5,5.6,5.6,5.6
						c3.1,0,5.6-2.5,5.6-5.6c0-0.7-0.1-1.3-0.4-1.9C424.6,1342.8,422.5,1344.3,420.1,1344.3z"/>
					<rect x="407.1" y="1358.1" class="st18" width="26.1" height="20.5"/>
				</g>
				<line class="st18" x1="407.4" y1="1358" x2="432.8" y2="1377.9"/>
				<line class="st18" x1="432.8" y1="1358" x2="407.4" y2="1377.9"/>
			</g>
			<path class="st18" d="M437.1,1367.9c0,0,35.9-9.4,44.6-6.9c8.7,2.5,8.7,2.5,8.7,2.5s7.4,5.6,16.3,0.3c8.9-5.3,13.8-9.4,18.4-5.7
				c4.5,3.7,10.3,10.5,12.8,9.8c2.5-0.7,7.9-6.8,10.3-1.6c2.5,5.2,9,9.6,9,9.6l-95.7,12c0,0-39.4-6-35.7-9.3
				C429.4,1375.2,437.1,1367.9,437.1,1367.9z"/>
			<g>
				<line class="st21" x1="479.2" y1="1334.6" x2="475.1" y2="1373"/>
				<g>
					<g>
						<path class="st18" d="M474.4,1358.8c1.3,1.7,1.5,6.6,1.5,6.6s-4.8-1.2-6.1-2.8c-1.3-1.7-2-7.2-2-7.2
							S473.1,1357.1,474.4,1358.8z"/>
						<path class="st18" d="M482.5,1363.8c-1.7,1.3-6.6,1.5-6.6,1.5s1.2-4.8,2.8-6.1c1.7-1.3,7.2-2,7.2-2S484.2,1362.5,482.5,1363.8
							z"/>
						<path class="st20" d="M470.1,1359.9c-0.7-0.9-1.2-2.7-1.5-4.4c-0.5-0.2-0.8-0.3-0.8-0.3s0.7,5.6,2,7.2
							c1.3,1.7,6.1,2.8,6.1,2.8s0-1.3-0.3-2.7C474.4,1362.2,471.2,1361.2,470.1,1359.9z"/>
						<path class="st20" d="M482.8,1361.3c-1.3,1.1-4.7,1.4-6,1.5c-0.5,1.4-0.8,2.6-0.8,2.6s4.9-0.2,6.6-1.5
							c1.7-1.3,3.5-6.6,3.5-6.6s-0.3,0-0.8,0.1C484.5,1358.8,483.6,1360.6,482.8,1361.3z"/>
						<path class="st18" d="M475.4,1352.5c1.2,1.4,1.3,5.7,1.3,5.7s-4.2-1-5.3-2.5c-1.2-1.4-1.8-6.3-1.8-6.3
							S474.2,1351,475.4,1352.5z"/>
						<path class="st18" d="M482.4,1356.9c-1.4,1.2-5.7,1.3-5.7,1.3s1-4.2,2.5-5.3c1.4-1.2,6.3-1.8,6.3-1.8
							S483.9,1355.7,482.4,1356.9z"/>
						<path class="st20" d="M471.6,1353.3c-0.6-0.7-1-2.2-1.3-3.6c-0.5-0.2-0.7-0.3-0.7-0.3s0.6,4.9,1.8,6.3
							c1.2,1.4,5.3,2.5,5.3,2.5s0-1.2-0.3-2.6C475.3,1355.3,472.5,1354.4,471.6,1353.3z"/>
						<path class="st20" d="M482.7,1354.4c-1.1,0.9-4,1.2-5.2,1.3c-0.5,1.3-0.8,2.5-0.8,2.5s4.3-0.1,5.7-1.3c1.4-1.2,3-5.8,3-5.8
							s-0.3,0-0.8,0.1C484.1,1352.5,483.4,1353.9,482.7,1354.4z"/>
						<path class="st18" d="M476.3,1347.2c0.9,1.1,1,4.6,1,4.6s-3.3-0.8-4.2-2c-0.9-1.1-1.4-5-1.4-5S475.4,1346,476.3,1347.2z"/>
						<path class="st18" d="M481.9,1350.7c-1.1,0.9-4.6,1-4.6,1s0.8-3.3,2-4.2c1.1-0.9,5-1.4,5-1.4S483.1,1349.8,481.9,1350.7z"/>
						<path class="st20" d="M473.3,1348c-0.5-0.6-0.8-1.9-1.1-3c-0.3-0.1-0.5-0.2-0.5-0.2s0.5,3.9,1.4,5c0.9,1.1,4.2,2,4.2,2
							s0-0.9-0.2-1.9C476.3,1349.6,474.1,1348.9,473.3,1348z"/>
						<path class="st20" d="M482.1,1348.9c-0.9,0.7-3.2,1-4.2,1c-0.4,1-0.6,1.9-0.6,1.9s3.4-0.1,4.6-1c1.1-0.9,2.4-4.6,2.4-4.6
							s-0.2,0-0.6,0.1C483.3,1347.2,482.7,1348.4,482.1,1348.9z"/>
						<path class="st18" d="M477.1,1342.8c0.7,0.9,0.8,3.7,0.8,3.7s-2.7-0.7-3.4-1.6c-0.7-0.9-1.1-4-1.1-4
							S476.3,1341.9,477.1,1342.8z"/>
						<path class="st18" d="M481.6,1345.6c-0.9,0.7-3.7,0.8-3.7,0.8s0.7-2.7,1.6-3.4c0.9-0.7,4-1.1,4-1.1S482.5,1344.9,481.6,1345.6
							z"/>
						<path class="st20" d="M474.7,1343.6c-0.4-0.5-0.7-1.6-0.9-2.6c-0.2-0.1-0.4-0.1-0.4-0.1s0.4,3.1,1.1,4
							c0.7,0.9,3.4,1.6,3.4,1.6s0-0.6-0.1-1.4C477.1,1344.9,475.3,1344.3,474.7,1343.6z"/>
						<path class="st20" d="M481.7,1344.3c-0.7,0.6-2.7,0.8-3.4,0.8c-0.3,0.7-0.4,1.3-0.4,1.3s2.7-0.1,3.7-0.8c0.9-0.7,2-3.7,2-3.7
							s-0.2,0-0.4,0.1C482.8,1342.8,482.2,1343.9,481.7,1344.3z"/>
						<path class="st18" d="M477.7,1339.1c0.6,0.8,0.7,3.1,0.7,3.1s-2.2-0.5-2.8-1.3c-0.6-0.8-0.9-3.4-0.9-3.4
							S477.1,1338.3,477.7,1339.1z"/>
						<path class="st18" d="M481.4,1341.5c-0.8,0.6-3.1,0.7-3.1,0.7s0.5-2.2,1.3-2.8c0.8-0.6,3.4-0.9,3.4-0.9
							S482.2,1340.9,481.4,1341.5z"/>
						<path class="st20" d="M475.7,1339.1c-0.2-0.3-0.4-0.8-0.6-1.4c-0.3-0.1-0.6-0.2-0.6-0.2s0.3,2.6,0.9,3.4
							c0.6,0.8,2.8,1.3,2.8,1.3s0-1-0.2-1.9C477.5,1340.1,476.2,1339.7,475.7,1339.1z"/>
						<path class="st20" d="M481.6,1339.7c-0.6,0.5-1.9,0.6-2.6,0.7c-0.4,0.8-0.6,1.8-0.6,1.8s2.3-0.1,3.1-0.7
							c0.8-0.6,1.6-3.1,1.6-3.1s-0.2,0-0.6,0.1C482.2,1339,481.9,1339.5,481.6,1339.7z"/>
					</g>
				</g>
			</g>
			<g>
				<line class="st21" x1="535.3" y1="1348.6" x2="532.3" y2="1377.4"/>
				<g>
					<g>
						<path class="st18" d="M531.8,1366.7c1,1.2,1.1,4.9,1.1,4.9s-3.6-0.9-4.6-2.1c-1-1.2-1.5-5.4-1.5-5.4
							S530.8,1365.5,531.8,1366.7z"/>
						<path class="st18" d="M537.8,1370.6c-1.2,1-4.9,1.1-4.9,1.1s0.9-3.6,2.1-4.6s5.4-1.5,5.4-1.5S539.1,1369.5,537.8,1370.6z"/>
						<path class="st20" d="M528.5,1367.6c-0.5-0.6-0.9-2.1-1.2-3.3c-0.3-0.1-0.6-0.2-0.6-0.2s0.5,4.2,1.5,5.4
							c1,1.2,4.6,2.1,4.6,2.1s0-0.9-0.2-2C531.8,1369.4,529.3,1368.6,528.5,1367.6z"/>
						<path class="st20" d="M538,1368.6c-1,0.8-3.5,1-4.5,1.1c-0.4,1-0.6,2-0.6,2s3.7-0.1,4.9-1.1c1.2-1,2.6-5,2.6-5s-0.2,0-0.6,0.1
							C539.3,1366.8,538.7,1368.1,538,1368.6z"/>
						<path class="st18" d="M532.5,1362c0.9,1.1,1,4.3,1,4.3s-3.1-0.8-4-1.8c-0.9-1.1-1.3-4.7-1.3-4.7S531.6,1361,532.5,1362z"/>
						<path class="st18" d="M537.8,1365.4c-1.1,0.9-4.3,1-4.3,1s0.8-3.1,1.9-4s4.7-1.3,4.7-1.3S538.8,1364.5,537.8,1365.4z"/>
						<path class="st20" d="M529.7,1362.6c-0.4-0.5-0.7-1.6-1-2.7c-0.3-0.1-0.6-0.2-0.6-0.2s0.5,3.6,1.3,4.7c0.9,1.1,4,1.8,4,1.8
							s0-0.9-0.2-2C532.4,1364.1,530.4,1363.5,529.7,1362.6z"/>
						<path class="st20" d="M538,1363.5c-0.8,0.7-3,0.9-3.9,1c-0.4,1-0.6,1.9-0.6,1.9s3.2-0.1,4.3-1c1.1-0.9,2.3-4.3,2.3-4.3
							s-0.2,0-0.6,0.1C539,1362,538.5,1363.1,538,1363.5z"/>
						<path class="st18" d="M533.2,1358.1c0.7,0.9,0.8,3.4,0.8,3.4s-2.5-0.6-3.2-1.5c-0.7-0.9-1.1-3.8-1.1-3.8
							S532.5,1357.2,533.2,1358.1z"/>
						<path class="st18" d="M537.4,1360.7c-0.9,0.7-3.4,0.8-3.4,0.8s0.6-2.5,1.5-3.2c0.9-0.7,3.8-1.1,3.8-1.1
							S538.3,1360,537.4,1360.7z"/>
						<path class="st20" d="M530.9,1358.7c-0.4-0.4-0.6-1.4-0.8-2.2c-0.2-0.1-0.4-0.1-0.4-0.1s0.4,2.9,1.1,3.8
							c0.7,0.9,3.2,1.5,3.2,1.5s0-0.7-0.1-1.4C533.2,1359.9,531.5,1359.3,530.9,1358.7z"/>
						<path class="st20" d="M537.5,1359.4c-0.7,0.6-2.4,0.7-3.1,0.8c-0.3,0.7-0.4,1.4-0.4,1.4s2.6-0.1,3.4-0.8
							c0.9-0.7,1.8-3.5,1.8-3.5s-0.2,0-0.4,0.1C538.4,1358.1,538,1359,537.5,1359.4z"/>
						<path class="st18" d="M533.8,1354.8c0.6,0.7,0.6,2.8,0.6,2.8s-2-0.5-2.6-1.2c-0.6-0.7-0.9-3-0.9-3S533.2,1354.1,533.8,1354.8z
							"/>
						<path class="st18" d="M537.2,1356.9c-0.7,0.6-2.8,0.6-2.8,0.6s0.5-2,1.2-2.6c0.7-0.6,3-0.9,3-0.9S537.8,1356.3,537.2,1356.9z"
							/>
						<path class="st20" d="M531.9,1355.4c-0.3-0.4-0.5-1.2-0.7-1.9c-0.2-0.1-0.3-0.1-0.3-0.1s0.3,2.3,0.9,3
							c0.6,0.7,2.6,1.2,2.6,1.2s0-0.5-0.1-1C533.8,1356.3,532.4,1355.9,531.9,1355.4z"/>
						<path class="st20" d="M537.3,1355.9c-0.6,0.5-2,0.6-2.6,0.6c-0.2,0.5-0.3,1-0.3,1s2.1-0.1,2.8-0.6c0.7-0.6,1.5-2.8,1.5-2.8
							s-0.1,0-0.3,0C538,1354.8,537.6,1355.6,537.3,1355.9z"/>
						<path class="st18" d="M534.2,1352c0.5,0.6,0.5,2.3,0.5,2.3s-1.7-0.4-2.1-1c-0.5-0.6-0.7-2.5-0.7-2.5S533.8,1351.4,534.2,1352z
							"/>
						<path class="st18" d="M537,1353.8c-0.6,0.5-2.3,0.5-2.3,0.5s0.4-1.7,1-2.1c0.6-0.5,2.5-0.7,2.5-0.7S537.6,1353.3,537,1353.8z"
							/>
						<path class="st20" d="M532.7,1352c-0.2-0.2-0.3-0.6-0.4-1.1c-0.2-0.1-0.4-0.2-0.4-0.2s0.2,1.9,0.7,2.5c0.5,0.6,2.1,1,2.1,1
							s0-0.7-0.2-1.4C534.1,1352.8,533.1,1352.4,532.7,1352z"/>
						<path class="st20" d="M537.2,1352.5c-0.4,0.3-1.4,0.5-2,0.5c-0.3,0.6-0.5,1.3-0.5,1.3s1.7-0.1,2.3-0.5
							c0.6-0.5,1.2-2.3,1.2-2.3s-0.2,0-0.4,0.1C537.6,1351.9,537.4,1352.3,537.2,1352.5z"/>
					</g>
				</g>
			</g>
			<g>
				<line class="st21" x1="493" y1="1347.1" x2="490" y2="1375.9"/>
				<g>
					<g>
						<path class="st18" d="M489.5,1365.2c1,1.2,1.1,4.9,1.1,4.9s-3.6-0.9-4.6-2.1c-1-1.2-1.5-5.4-1.5-5.4S488.5,1364,489.5,1365.2z
							"/>
						<path class="st18" d="M495.5,1369c-1.2,1-4.9,1.1-4.9,1.1s0.9-3.6,2.1-4.6c1.2-1,5.4-1.5,5.4-1.5S496.8,1368,495.5,1369z"/>
						<path class="st20" d="M486.2,1366.1c-0.5-0.6-0.9-2.1-1.2-3.3c-0.3-0.1-0.6-0.2-0.6-0.2s0.5,4.2,1.5,5.4
							c1,1.2,4.6,2.1,4.6,2.1s0-0.9-0.2-2C489.5,1367.9,487,1367.1,486.2,1366.1z"/>
						<path class="st20" d="M495.7,1367.1c-1,0.8-3.5,1-4.5,1.1c-0.4,1-0.6,2-0.6,2s3.7-0.1,4.9-1.1c1.2-1,2.6-5,2.6-5
							s-0.2,0-0.6,0.1C497,1365.3,496.4,1366.6,495.7,1367.1z"/>
						<path class="st18" d="M490.2,1360.5c0.9,1.1,1,4.3,1,4.3s-3.1-0.8-4-1.8c-0.9-1.1-1.3-4.7-1.3-4.7S489.3,1359.5,490.2,1360.5z
							"/>
						<path class="st18" d="M495.4,1363.8c-1.1,0.9-4.3,1-4.3,1s0.8-3.1,1.8-4c1.1-0.9,4.7-1.3,4.7-1.3S496.5,1363,495.4,1363.8z"/>
						<path class="st20" d="M487.4,1361.1c-0.4-0.5-0.7-1.6-1-2.7c-0.3-0.1-0.6-0.2-0.6-0.2s0.5,3.6,1.3,4.7c0.9,1.1,4,1.8,4,1.8
							s0-0.9-0.2-2C490.1,1362.6,488.1,1362,487.4,1361.1z"/>
						<path class="st20" d="M495.6,1362c-0.8,0.7-3,0.9-3.9,1c-0.4,1-0.6,1.9-0.6,1.9s3.2-0.1,4.3-1c1.1-0.9,2.3-4.3,2.3-4.3
							s-0.2,0-0.6,0.1C496.7,1360.5,496.2,1361.6,495.6,1362z"/>
						<path class="st18" d="M490.9,1356.6c0.7,0.9,0.8,3.4,0.8,3.4s-2.5-0.6-3.2-1.5c-0.7-0.9-1.1-3.8-1.1-3.8
							S490.2,1355.7,490.9,1356.6z"/>
						<path class="st18" d="M495.1,1359.2c-0.9,0.7-3.4,0.8-3.4,0.8s0.6-2.5,1.5-3.2c0.9-0.7,3.8-1.1,3.8-1.1
							S496,1358.5,495.1,1359.2z"/>
						<path class="st20" d="M488.6,1357.2c-0.4-0.4-0.6-1.4-0.8-2.2c-0.2-0.1-0.4-0.1-0.4-0.1s0.4,2.9,1.1,3.8
							c0.7,0.9,3.2,1.5,3.2,1.5s0-0.7-0.1-1.4C490.9,1358.4,489.2,1357.8,488.6,1357.2z"/>
						<path class="st20" d="M495.2,1357.8c-0.7,0.6-2.4,0.7-3.1,0.8c-0.3,0.7-0.4,1.4-0.4,1.4s2.6-0.1,3.4-0.8
							c0.9-0.7,1.8-3.5,1.8-3.5s-0.2,0-0.4,0.1C496.1,1356.6,495.7,1357.5,495.2,1357.8z"/>
						<path class="st18" d="M491.5,1353.3c0.6,0.7,0.6,2.8,0.6,2.8s-2-0.5-2.6-1.2c-0.6-0.7-0.9-3-0.9-3S490.9,1352.6,491.5,1353.3z
							"/>
						<path class="st18" d="M494.8,1355.4c-0.7,0.6-2.8,0.6-2.8,0.6s0.5-2,1.2-2.6c0.7-0.6,3-0.9,3-0.9S495.5,1354.8,494.8,1355.4z"
							/>
						<path class="st20" d="M489.6,1353.9c-0.3-0.4-0.5-1.2-0.7-1.9c-0.2-0.1-0.3-0.1-0.3-0.1s0.3,2.3,0.9,3
							c0.6,0.7,2.6,1.2,2.6,1.2s0-0.5-0.1-1C491.5,1354.8,490.1,1354.4,489.6,1353.9z"/>
						<path class="st20" d="M494.9,1354.4c-0.6,0.5-2,0.6-2.6,0.6c-0.2,0.5-0.3,1-0.3,1s2.1-0.1,2.8-0.6c0.7-0.6,1.5-2.8,1.5-2.8
							s-0.1,0-0.3,0C495.7,1353.3,495.3,1354.1,494.9,1354.4z"/>
						<path class="st18" d="M491.9,1350.5c0.5,0.6,0.5,2.3,0.5,2.3s-1.7-0.4-2.1-1c-0.5-0.6-0.7-2.5-0.7-2.5
							S491.4,1349.9,491.9,1350.5z"/>
						<path class="st18" d="M494.7,1352.3c-0.6,0.5-2.3,0.5-2.3,0.5s0.4-1.7,1-2.1c0.6-0.5,2.5-0.7,2.5-0.7
							S495.3,1351.8,494.7,1352.3z"/>
						<path class="st20" d="M490.4,1350.5c-0.2-0.2-0.3-0.6-0.4-1.1c-0.2-0.1-0.4-0.2-0.4-0.2s0.2,1.9,0.7,2.5c0.5,0.6,2.1,1,2.1,1
							s0-0.7-0.2-1.4C491.8,1351.3,490.8,1350.9,490.4,1350.5z"/>
						<path class="st20" d="M494.9,1351c-0.4,0.3-1.4,0.5-2,0.5c-0.3,0.6-0.5,1.3-0.5,1.3s1.7-0.1,2.3-0.5c0.6-0.5,1.2-2.3,1.2-2.3
							s-0.2,0-0.4,0.1C495.3,1350.4,495.1,1350.8,494.9,1351z"/>
					</g>
				</g>
			</g>
			<g>
				<line class="st21" x1="367.7" y1="1341.4" x2="364.6" y2="1370.2"/>
				<g>
					<g>
						<path class="st18" d="M364.1,1359.6c1,1.2,1.1,4.9,1.1,4.9s-3.6-0.9-4.6-2.1c-1-1.2-1.5-5.4-1.5-5.4
							S363.1,1358.3,364.1,1359.6z"/>
						<path class="st18" d="M370.1,1363.4c-1.2,1-4.9,1.1-4.9,1.1s0.9-3.6,2.1-4.6c1.2-1,5.4-1.5,5.4-1.5S371.4,1362.4,370.1,1363.4
							z"/>
						<path class="st20" d="M360.8,1360.4c-0.5-0.6-0.9-2.1-1.2-3.3c-0.3-0.1-0.6-0.2-0.6-0.2s0.5,4.2,1.5,5.4
							c1,1.2,4.6,2.1,4.6,2.1s0-0.9-0.2-2C364.1,1362.2,361.6,1361.4,360.8,1360.4z"/>
						<path class="st20" d="M370.3,1361.4c-1,0.8-3.5,1-4.5,1.1c-0.4,1-0.6,2-0.6,2s3.7-0.1,4.9-1.1c1.2-1,2.6-5,2.6-5
							s-0.2,0-0.6,0.1C371.7,1359.6,371,1360.9,370.3,1361.4z"/>
						<path class="st18" d="M364.8,1354.9c0.9,1.1,1,4.3,1,4.3s-3.1-0.8-4-1.8c-0.9-1.1-1.3-4.7-1.3-4.7S363.9,1353.8,364.8,1354.9z
							"/>
						<path class="st18" d="M370.1,1358.2c-1.1,0.9-4.3,1-4.3,1s0.8-3.1,1.9-4c1.1-0.9,4.7-1.3,4.7-1.3S371.1,1357.3,370.1,1358.2z"
							/>
						<path class="st20" d="M362,1355.4c-0.4-0.5-0.7-1.6-1-2.7c-0.3-0.1-0.6-0.2-0.6-0.2s0.5,3.6,1.3,4.7c0.9,1.1,4,1.8,4,1.8
							s0-0.9-0.2-2C364.7,1356.9,362.7,1356.3,362,1355.4z"/>
						<path class="st20" d="M370.3,1356.3c-0.8,0.7-3,0.9-3.9,1c-0.4,1-0.6,1.9-0.6,1.9s3.2-0.1,4.3-1c1.1-0.9,2.3-4.3,2.3-4.3
							s-0.2,0-0.6,0.1C371.3,1354.9,370.8,1355.9,370.3,1356.3z"/>
						<path class="st18" d="M365.5,1350.9c0.7,0.9,0.8,3.4,0.8,3.4s-2.5-0.6-3.2-1.5c-0.7-0.9-1.1-3.8-1.1-3.8
							S364.8,1350,365.5,1350.9z"/>
						<path class="st18" d="M369.7,1353.5c-0.9,0.7-3.4,0.8-3.4,0.8s0.6-2.5,1.5-3.2c0.9-0.7,3.8-1.1,3.8-1.1
							S370.6,1352.8,369.7,1353.5z"/>
						<path class="st20" d="M363.3,1351.5c-0.4-0.4-0.6-1.4-0.8-2.2c-0.2-0.1-0.4-0.1-0.4-0.1s0.4,2.9,1.1,3.8
							c0.7,0.9,3.2,1.5,3.2,1.5s0-0.7-0.1-1.4C365.5,1352.7,363.8,1352.2,363.3,1351.5z"/>
						<path class="st20" d="M369.9,1352.2c-0.7,0.6-2.4,0.7-3.1,0.8c-0.3,0.7-0.4,1.4-0.4,1.4s2.6-0.1,3.4-0.8
							c0.9-0.7,1.8-3.5,1.8-3.5s-0.2,0-0.4,0.1C370.8,1350.9,370.3,1351.8,369.9,1352.2z"/>
						<path class="st18" d="M366.1,1347.6c0.6,0.7,0.6,2.8,0.6,2.8s-2-0.5-2.6-1.2c-0.6-0.7-0.9-3-0.9-3S365.5,1346.9,366.1,1347.6z
							"/>
						<path class="st18" d="M369.5,1349.7c-0.7,0.6-2.8,0.6-2.8,0.6s0.5-2,1.2-2.6c0.7-0.6,3-0.9,3-0.9S370.2,1349.2,369.5,1349.7z"
							/>
						<path class="st20" d="M364.2,1348.2c-0.3-0.4-0.5-1.2-0.7-1.9c-0.2-0.1-0.3-0.1-0.3-0.1s0.3,2.3,0.9,3
							c0.6,0.7,2.6,1.2,2.6,1.2s0-0.5-0.1-1C366.1,1349.2,364.7,1348.7,364.2,1348.2z"/>
						<path class="st20" d="M369.6,1348.7c-0.6,0.5-2,0.6-2.6,0.6c-0.2,0.5-0.3,1-0.3,1s2.1-0.1,2.8-0.6s1.5-2.8,1.5-2.8
							s-0.1,0-0.3,0C370.3,1347.6,369.9,1348.4,369.6,1348.7z"/>
						<path class="st18" d="M366.5,1344.8c0.5,0.6,0.5,2.3,0.5,2.3s-1.7-0.4-2.1-1c-0.5-0.6-0.7-2.5-0.7-2.5
							S366.1,1344.3,366.5,1344.8z"/>
						<path class="st18" d="M369.3,1346.6c-0.6,0.5-2.3,0.5-2.3,0.5s0.4-1.7,1-2.1c0.6-0.5,2.5-0.7,2.5-0.7
							S369.9,1346.1,369.3,1346.6z"/>
						<path class="st20" d="M365.1,1344.8c-0.2-0.2-0.3-0.6-0.4-1.1c-0.2-0.1-0.4-0.2-0.4-0.2s0.2,1.9,0.7,2.5c0.5,0.6,2.1,1,2.1,1
							s0-0.7-0.2-1.4C366.4,1345.6,365.4,1345.2,365.1,1344.8z"/>
						<path class="st20" d="M369.5,1345.3c-0.4,0.3-1.4,0.5-2,0.5c-0.3,0.6-0.5,1.3-0.5,1.3s1.7-0.1,2.3-0.5
							c0.6-0.5,1.2-2.3,1.2-2.3s-0.2,0-0.4,0.1C369.9,1344.7,369.7,1345.1,369.5,1345.3z"/>
					</g>
				</g>
			</g>
			<g>
				<line class="st21" x1="223.9" y1="1350.2" x2="228.9" y2="1378.7"/>
				<g>
					<g>
						<path class="st18" d="M225.5,1368.6c1.3,0.9,2.4,4.4,2.4,4.4s-3.7,0.1-5-0.8c-1.3-0.9-3-4.8-3-4.8S224.2,1367.7,225.5,1368.6z
							"/>
						<path class="st18" d="M232.4,1370.6c-0.9,1.3-4.4,2.4-4.4,2.4s-0.1-3.7,0.8-5c0.9-1.3,4.8-3,4.8-3S233.3,1369.3,232.4,1370.6z
							"/>
						<path class="st20" d="M222.6,1370.3c-0.7-0.5-1.4-1.7-2-2.8c-0.4,0-0.6,0-0.6,0s1.7,3.9,3,4.8c1.3,0.9,5,0.8,5,0.8
							s-0.3-0.9-0.7-1.9C226.2,1371.1,223.6,1371.1,222.6,1370.3z"/>
						<path class="st20" d="M232,1368.7c-0.7,1-3.1,2-4,2.3c-0.1,1.1,0,2,0,2s3.5-1.1,4.4-2.4c0.9-1.3,1.1-5.5,1.1-5.5
							s-0.2,0.1-0.6,0.2C232.8,1366.5,232.5,1368,232,1368.7z"/>
						<path class="st18" d="M224.9,1363.9c1.1,0.8,2.1,3.9,2.1,3.9s-3.2,0.1-4.3-0.7c-1.1-0.8-2.6-4.2-2.6-4.2
							S223.7,1363.1,224.9,1363.9z"/>
						<path class="st18" d="M230.8,1365.6c-0.8,1.1-3.9,2.1-3.9,2.1s-0.1-3.2,0.7-4.3c0.8-1.1,4.2-2.6,4.2-2.6
							S231.6,1364.5,230.8,1365.6z"/>
						<path class="st20" d="M222.3,1365.2c-0.6-0.4-1.2-1.4-1.7-2.3c-0.4,0-0.6,0-0.6,0s1.4,3.4,2.6,4.2c1.1,0.8,4.3,0.7,4.3,0.7
							s-0.3-0.9-0.7-1.8C225.4,1365.9,223.2,1365.8,222.3,1365.2z"/>
						<path class="st20" d="M230.5,1363.8c-0.6,0.9-2.6,1.7-3.5,2c-0.1,1-0.1,2-0.1,2s3.1-1,3.9-2.1c0.8-1.1,1-4.8,1-4.8
							s-0.2,0.1-0.5,0.2C231.2,1362.1,230.9,1363.2,230.5,1363.8z"/>
						<path class="st18" d="M224.5,1359.9c0.9,0.6,1.7,3.1,1.7,3.1s-2.6,0.1-3.5-0.5c-0.9-0.6-2.1-3.3-2.1-3.3
							S223.5,1359.2,224.5,1359.9z"/>
						<path class="st18" d="M229.2,1361.2c-0.6,0.9-3.1,1.7-3.1,1.7s-0.1-2.6,0.5-3.5c0.6-0.9,3.3-2.1,3.3-2.1
							S229.9,1360.3,229.2,1361.2z"/>
						<path class="st20" d="M222.4,1361c-0.5-0.3-1-1.2-1.4-1.9c-0.3,0-0.4,0-0.4,0s1.2,2.7,2.1,3.3c0.9,0.6,3.5,0.5,3.5,0.5
							s-0.2-0.6-0.5-1.4C224.9,1361.6,223.2,1361.6,222.4,1361z"/>
						<path class="st20" d="M229,1359.9c-0.5,0.7-2.1,1.4-2.8,1.6c-0.1,0.8,0,1.5,0,1.5s2.4-0.8,3.1-1.7c0.6-0.9,0.8-3.8,0.8-3.8
							s-0.2,0.1-0.4,0.2C229.5,1358.4,229.3,1359.4,229,1359.9z"/>
						<path class="st18" d="M224.1,1356.5c0.7,0.5,1.4,2.5,1.4,2.5s-2.1,0.1-2.8-0.4c-0.7-0.5-1.7-2.7-1.7-2.7
							S223.4,1356,224.1,1356.5z"/>
						<path class="st18" d="M227.9,1357.6c-0.5,0.7-2.5,1.4-2.5,1.4s-0.1-2.1,0.4-2.8c0.5-0.7,2.7-1.7,2.7-1.7
							S228.4,1356.9,227.9,1357.6z"/>
						<path class="st20" d="M222.5,1357.6c-0.4-0.3-0.9-1-1.2-1.7c-0.2,0-0.3,0-0.3,0s0.9,2.2,1.7,2.7c0.7,0.5,2.8,0.4,2.8,0.4
							s-0.1-0.4-0.4-1C224.5,1358,223.1,1358,222.5,1357.6z"/>
						<path class="st20" d="M227.8,1356.7c-0.4,0.6-1.8,1.1-2.3,1.3c0,0.6,0,1,0,1s2-0.6,2.5-1.4c0.5-0.7,0.6-3.1,0.6-3.1
							s-0.1,0-0.3,0.1C228.2,1355.4,228,1356.3,227.8,1356.7z"/>
						<path class="st18" d="M223.8,1353.8c0.6,0.4,1.1,2.1,1.1,2.1s-1.7,0.1-2.3-0.4c-0.6-0.4-1.4-2.2-1.4-2.2
							S223.1,1353.3,223.8,1353.8z"/>
						<path class="st18" d="M226.9,1354.7c-0.4,0.6-2.1,1.1-2.1,1.1s-0.1-1.7,0.4-2.3c0.4-0.6,2.2-1.4,2.2-1.4
							S227.4,1354.1,226.9,1354.7z"/>
						<path class="st20" d="M222.3,1354.2c-0.2-0.2-0.5-0.5-0.7-0.9c-0.3,0-0.4,0-0.4,0s0.8,1.8,1.4,2.2c0.6,0.4,2.3,0.4,2.3,0.4
							s-0.2-0.7-0.6-1.3C223.8,1354.5,222.8,1354.5,222.3,1354.2z"/>
						<path class="st20" d="M226.7,1353.4c-0.3,0.4-1.3,0.8-1.8,1c-0.1,0.7-0.1,1.4-0.1,1.4s1.6-0.5,2.1-1.1s0.5-2.6,0.5-2.6
							s-0.2,0.1-0.4,0.2C227,1352.7,226.9,1353.2,226.7,1353.4z"/>
					</g>
				</g>
			</g>
			<g>
				<line class="st21" x1="195.2" y1="1355.7" x2="200.3" y2="1384.2"/>
				<g>
					<g>
						<path class="st18" d="M196.9,1374.1c1.3,0.9,2.4,4.4,2.4,4.4s-3.7,0.1-5-0.8c-1.3-0.9-3-4.8-3-4.8S195.5,1373.2,196.9,1374.1z
							"/>
						<path class="st18" d="M203.7,1376.1c-0.9,1.3-4.4,2.4-4.4,2.4s-0.1-3.7,0.8-5c0.9-1.3,4.8-3,4.8-3S204.6,1374.8,203.7,1376.1z
							"/>
						<path class="st20" d="M194,1375.9c-0.7-0.5-1.4-1.7-2-2.8c-0.4,0-0.6,0-0.6,0s1.7,3.9,3,4.8c1.3,0.9,5,0.8,5,0.8
							s-0.3-0.9-0.7-1.9C197.6,1376.7,195,1376.6,194,1375.9z"/>
						<path class="st20" d="M203.4,1374.2c-0.7,1-3.1,2-4,2.3c-0.1,1.1,0,2,0,2s3.5-1.1,4.4-2.4c0.9-1.3,1.1-5.5,1.1-5.5
							s-0.2,0.1-0.6,0.2C204.1,1372.1,203.8,1373.5,203.4,1374.2z"/>
						<path class="st18" d="M196.2,1369.4c1.1,0.8,2.1,3.9,2.1,3.9s-3.2,0.1-4.3-0.7c-1.1-0.8-2.6-4.2-2.6-4.2
							S195.1,1368.6,196.2,1369.4z"/>
						<path class="st18" d="M202.2,1371.1c-0.8,1.1-3.9,2.1-3.9,2.1s-0.1-3.2,0.7-4.3c0.8-1.1,4.2-2.6,4.2-2.6
							S203,1370,202.2,1371.1z"/>
						<path class="st20" d="M193.7,1370.8c-0.6-0.4-1.2-1.4-1.7-2.3c-0.4,0-0.6,0-0.6,0s1.4,3.4,2.6,4.2c1.1,0.8,4.3,0.7,4.3,0.7
							s-0.3-0.9-0.7-1.8C196.7,1371.4,194.6,1371.4,193.7,1370.8z"/>
						<path class="st20" d="M201.9,1369.3c-0.6,0.9-2.6,1.7-3.5,2c-0.1,1-0.1,2-0.1,2s3.1-1,3.9-2.1c0.8-1.1,1-4.8,1-4.8
							s-0.2,0.1-0.5,0.2C202.5,1367.6,202.3,1368.8,201.9,1369.3z"/>
						<path class="st18" d="M195.8,1365.4c0.9,0.6,1.7,3.1,1.7,3.1s-2.6,0.1-3.5-0.5c-0.9-0.6-2.1-3.3-2.1-3.3
							S194.9,1364.8,195.8,1365.4z"/>
						<path class="st18" d="M200.6,1366.8c-0.6,0.9-3.1,1.7-3.1,1.7s-0.1-2.6,0.5-3.5c0.6-0.9,3.3-2.1,3.3-2.1
							S201.2,1365.9,200.6,1366.8z"/>
						<path class="st20" d="M193.8,1366.6c-0.5-0.3-1-1.2-1.4-1.9c-0.3,0-0.4,0-0.4,0s1.2,2.7,2.1,3.3c0.9,0.6,3.5,0.5,3.5,0.5
							s-0.2-0.6-0.5-1.4C196.3,1367.1,194.5,1367.1,193.8,1366.6z"/>
						<path class="st20" d="M200.3,1365.4c-0.5,0.7-2.1,1.4-2.8,1.6c-0.1,0.8,0,1.5,0,1.5s2.4-0.8,3.1-1.7c0.6-0.9,0.8-3.8,0.8-3.8
							s-0.2,0.1-0.4,0.2C200.9,1364,200.7,1365,200.3,1365.4z"/>
						<path class="st18" d="M195.4,1362.1c0.7,0.5,1.4,2.5,1.4,2.5s-2.1,0.1-2.8-0.4c-0.7-0.5-1.7-2.7-1.7-2.7
							S194.7,1361.6,195.4,1362.1z"/>
						<path class="st18" d="M199.3,1363.2c-0.5,0.7-2.5,1.4-2.5,1.4s-0.1-2.1,0.4-2.8c0.5-0.7,2.7-1.7,2.7-1.7
							S199.8,1362.5,199.3,1363.2z"/>
						<path class="st20" d="M193.8,1363.2c-0.4-0.3-0.9-1-1.2-1.7c-0.2,0-0.3,0-0.3,0s0.9,2.2,1.7,2.7c0.7,0.5,2.8,0.4,2.8,0.4
							s-0.1-0.4-0.4-1C195.9,1363.6,194.4,1363.6,193.8,1363.2z"/>
						<path class="st20" d="M199.1,1362.2c-0.4,0.6-1.8,1.1-2.3,1.3c0,0.6,0,1,0,1s2-0.6,2.5-1.4c0.5-0.7,0.6-3.1,0.6-3.1
							s-0.1,0-0.3,0.1C199.5,1360.9,199.4,1361.8,199.1,1362.2z"/>
						<path class="st18" d="M195.1,1359.3c0.6,0.4,1.1,2.1,1.1,2.1s-1.7,0.1-2.3-0.4c-0.6-0.4-1.4-2.2-1.4-2.2
							S194.5,1358.9,195.1,1359.3z"/>
						<path class="st18" d="M198.3,1360.2c-0.4,0.6-2.1,1.1-2.1,1.1s-0.1-1.7,0.4-2.3s2.2-1.4,2.2-1.4S198.7,1359.6,198.3,1360.2z"
							/>
						<path class="st20" d="M193.7,1359.7c-0.2-0.2-0.5-0.5-0.7-0.9c-0.3,0-0.4,0-0.4,0s0.8,1.8,1.4,2.2c0.6,0.4,2.3,0.4,2.3,0.4
							s-0.2-0.7-0.6-1.3C195.2,1360.1,194.1,1360,193.7,1359.7z"/>
						<path class="st20" d="M198.1,1358.9c-0.3,0.4-1.3,0.8-1.8,1c-0.1,0.7-0.1,1.4-0.1,1.4s1.6-0.5,2.1-1.1
							c0.4-0.6,0.5-2.6,0.5-2.6s-0.2,0.1-0.4,0.2C198.3,1358.3,198.2,1358.7,198.1,1358.9z"/>
					</g>
				</g>
			</g>
		</g>
		<g>
			<linearGradient id="SVGID_16_" gradientUnits="userSpaceOnUse" x1="581.5423" y1="1375.9332" x2="584.4464" y2="1744.7839">
				<stop  offset="6.274750e-03" style="stop-color:#87BC61"/>
				<stop  offset="1" style="stop-color:#637353"/>
			</linearGradient>
			<path class="st22" d="M-395.9,1374.9c0,0,1018.3-77,1955.9,128.3v271.5H-381L-395.9,1374.9z"/>
			<path class="st23" d="M1560,1503.2C622.4,1298-395.9,1374.9-395.9,1374.9l0.5,12.8c91.3-3.1,456.3-13.9,719.2,0.8
				c302.6,16.9,69.7,26.1,71.7,32.1c2,6,129.9-0.3,155.3,14.2c25.4,14.5-94.1,20.2-61.2,26.8s126.9,25.5,83.6,28.4
				s-74.7,23.2-10.5,27.6s167.2,31.2,162.7,22.1s-170.2-32.3-109-35.2c61.2-2.9,174.7,1.5,131.4-7.3c-43.3-8.7-209-27.7-174.7-35.6
				c34.3-7.9,267.3,0.8,215-10.8c-52.3-11.6-309.1-29-283.7-37.7c25.4-8.7,64.2-22.7,361.3,7.5c297.1,30.2,618.1,86.8,618.1,86.8
				l76.1,38.8V1503.2z"/>
			<g>
				<path class="st23" d="M-36.8,1403.3c0,2-5.2,3.5-11.6,3.5s-11.6-1.6-11.6-3.5c0-2,5.2-3.5,11.6-3.5S-36.8,1401.4-36.8,1403.3z"
					/>
				<path class="st23" d="M-12.6,1396.2c0,2-5.2,3.5-11.6,3.5s-11.6-1.6-11.6-3.5c0-2,5.2-3.5,11.6-3.5S-12.6,1394.3-12.6,1396.2z"
					/>
				<ellipse class="st23" cx="87.8" cy="1389.1" rx="11.6" ry="3.5"/>
				<path class="st23" d="M212.2,1392.7c0,2-5.2,3.5-11.6,3.5s-11.6-1.6-11.6-3.5c0-2,5.2-3.5,11.6-3.5S212.2,1390.7,212.2,1392.7z"
					/>
				<path class="st23" d="M13.9,1408.6c0,1-2.6,1.8-5.8,1.8s-5.8-0.8-5.8-1.8c0-1,2.6-1.8,5.8-1.8S13.9,1407.7,13.9,1408.6z"/>
				<ellipse class="st23" cx="29.6" cy="1415.7" rx="5.8" ry="1.8"/>
				<path class="st23" d="M58,1410.4c0,1-2.6,1.8-5.8,1.8s-5.8-0.8-5.8-1.8c0-1,2.6-1.8,5.8-1.8S58,1409.4,58,1410.4z"/>
				<path class="st23" d="M111,1396.2c0,1-2.6,1.8-5.8,1.8s-5.8-0.8-5.8-1.8c0-1,2.6-1.8,5.8-1.8S111,1395.3,111,1396.2z"/>
				<ellipse class="st23" cx="136.5" cy="1389.1" rx="5.8" ry="1.8"/>
				<path class="st23" d="M218,1401.6c0,1-2.6,1.8-5.8,1.8s-5.8-0.8-5.8-1.8c0-1,2.6-1.8,5.8-1.8S218,1400.6,218,1401.6z"/>
				<path class="st23" d="M320.8,1401.6c0,2-5.2,3.5-11.6,3.5c-6.4,0-11.6-1.6-11.6-3.5c0-2,5.2-3.5,11.6-3.5
					C315.7,1398,320.8,1399.6,320.8,1401.6z"/>
				<path class="st23" d="M374.1,1401.6c0,2-5.2,3.5-11.6,3.5c-6.4,0-11.6-1.6-11.6-3.5c0-2,5.2-3.5,11.6-3.5
					C368.9,1398,374.1,1399.6,374.1,1401.6z"/>
				<path class="st23" d="M326.6,1410.4c0,1-2.6,1.8-5.8,1.8c-3.2,0-5.8-0.8-5.8-1.8c0-1,2.6-1.8,5.8-1.8
					C324,1408.7,326.6,1409.4,326.6,1410.4z"/>
				<ellipse class="st23" cx="290.6" cy="1421.5" rx="5.8" ry="1.8"/>
				<ellipse class="st23" cx="339" cy="1436.1" rx="5.8" ry="1.8"/>
				<path class="st23" d="M225.4,1425.1c0,1-2.6,1.8-5.8,1.8c-3.2,0-5.8-0.8-5.8-1.8c0-1,2.6-1.8,5.8-1.8
					C222.8,1423.3,225.4,1424.1,225.4,1425.1z"/>
				<ellipse class="st23" cx="242.9" cy="1403.3" rx="5.8" ry="1.8"/>
				<ellipse class="st23" cx="289" cy="1394.5" rx="5.8" ry="1.8"/>
				<ellipse class="st23" cx="700.5" cy="1422.4" rx="11.6" ry="3.5"/>
				<ellipse class="st23" cx="753.7" cy="1422.4" rx="11.6" ry="3.5"/>
				<path class="st23" d="M717.9,1431.2c0,1-2.6,1.8-5.8,1.8s-5.8-0.8-5.8-1.8c0-1,2.6-1.8,5.8-1.8S717.9,1430.2,717.9,1431.2z"/>
				<path class="st23" d="M833.5,1453.5c0,1-2.6,1.8-5.8,1.8c-3.2,0-5.8-0.8-5.8-1.8c0-1,2.6-1.8,5.8-1.8
					C830.9,1451.8,833.5,1452.5,833.5,1453.5z"/>
				<path class="st23" d="M832.2,1479.5c0,1-2.6,1.8-5.8,1.8s-5.8-0.8-5.8-1.8c0-1,2.6-1.8,5.8-1.8S832.2,1478.5,832.2,1479.5z"/>
				<path class="st23" d="M875.7,1462.2c0,1-2.6,1.8-5.8,1.8c-3.2,0-5.8-0.8-5.8-1.8c0-1,2.6-1.8,5.8-1.8
					C873.1,1460.4,875.7,1461.2,875.7,1462.2z"/>
				<path class="st23" d="M686,1415.3c0,1-2.6,1.8-5.8,1.8c-3.2,0-5.8-0.8-5.8-1.8c0-1,2.6-1.8,5.8-1.8
					C683.4,1413.5,686,1414.3,686,1415.3z"/>
				<path class="st23" d="M864.1,1526.1c0,2-5.2,3.5-11.6,3.5c-6.4,0-11.6-1.6-11.6-3.5c0-2,5.2-3.5,11.6-3.5
					C858.9,1522.5,864.1,1524.1,864.1,1526.1z"/>
				<path class="st23" d="M917.3,1526.1c0,2-5.2,3.5-11.6,3.5c-6.4,0-11.6-1.6-11.6-3.5c0-2,5.2-3.5,11.6-3.5
					C912.1,1522.5,917.3,1524.1,917.3,1526.1z"/>
				<ellipse class="st23" cx="875.7" cy="1445.1" rx="11.6" ry="3.5"/>
				<path class="st23" d="M869.9,1534.9c0,1-2.6,1.8-5.8,1.8c-3.2,0-5.8-0.8-5.8-1.8c0-1,2.6-1.8,5.8-1.8
					C867.3,1533.2,869.9,1534,869.9,1534.9z"/>
				<ellipse class="st23" cx="832.2" cy="1519" rx="5.8" ry="1.8"/>
				<path class="st23" d="M186.4,1399.8c0,1-2.6,1.8-5.8,1.8s-5.8-0.8-5.8-1.8c0-1,2.6-1.8,5.8-1.8S186.4,1398.8,186.4,1399.8z"/>
			</g>
		</g>
		<g>
			<linearGradient id="SVGID_17_" gradientUnits="userSpaceOnUse" x1="1134.149" y1="1579.1915" x2="1159.4652" y2="1792.4331">
				<stop  offset="1.359230e-02" style="stop-color:#FFC15D"/>
				<stop  offset="0.9885" style="stop-color:#DB964B"/>
			</linearGradient>
			<path class="st24" d="M1844.5,1462.7c0,0-793.4-37.1-1409.4,327.7h1409.4V1462.7z"/>
			<g>
				<g>
					<g>
						<g>
							<path class="st25" d="M543.4,1783c-12.4,0.1-18.3,0.1-29.2,0.1c13.5-89.1,227.9-142.1,298.5-166.1
								c136.4-46.3,276.8-86.7,418.4-115.4c6.6-1.2,9.8-1.8,16.1-3c-138.3,29.5-275.3,70.3-408.2,116.9
								C765.2,1641.4,562.3,1693.5,543.4,1783z"/>
						</g>
					</g>
					<g>
						<g>
							<path class="st25" d="M665.8,1781c-16.6,0.4-24.7,0.5-40.2,0.9c27.6-90,201.6-139.7,280.4-170
								c122.4-46.9,248.4-88.2,376.1-119.8c5.6-1.1,8.4-1.6,13.7-2.6c-122.1,32.5-242.5,73.8-359.3,120.8
								C858.1,1641.8,694,1692.1,665.8,1781z"/>
						</g>
					</g>
					<g>
						<g>
							<path class="st25" d="M819.5,1776.8c-19.9,0.6-29.6,0.9-48.7,1.4c26.5-85.3,166.8-137.5,241.9-172.1
								c101.5-46.7,206.6-87.9,313.3-122.5c4.9-0.9,7.3-1.4,12.1-2.3c-99.2,35.8-197.2,76.5-291.5,123
								C974.7,1639.8,842.8,1694.5,819.5,1776.8z"/>
						</g>
					</g>
					<g>
						<g>
							<path class="st25" d="M996.4,1771.2c-22.2,0.7-33.1,1.1-54.7,1.8c16.6-78.3,123.7-134.4,188.3-172.9
								c76.1-45.4,156-84.3,235.5-123.7c4.5-0.8,6.8-1.2,11.3-2c-70.1,41.3-142.2,79.2-210.1,124
								C1105.6,1638.6,1010,1695,996.4,1771.2z"/>
						</g>
					</g>
					<g>
						<g>
							<path class="st25" d="M1188.3,1764.5c-23.5,0.8-35.2,1.2-58.4,2.1c6-127.9,193.2-212.9,273-296.3c4.5-0.7,6.7-1,11.2-1.6
								C1353.3,1564.9,1187.7,1637.3,1188.3,1764.5z"/>
						</g>
					</g>
					<g>
						<g>
							<path class="st25" d="M1387.2,1757.4c-23.8,0.9-35.8,1.3-59.6,2.1c1.8-63.8,25.9-115.9,57.4-171.2
								c20.8-36.6,58.4-79.9,56-123.2c4.7-0.5,7-0.8,11.8-1.3c15.6,38.8-14.2,86.8-28.5,122.8
								C1401.9,1643.5,1384.9,1695.9,1387.2,1757.4z"/>
						</g>
					</g>
					<g>
						<g>
							<path class="st25" d="M1584.9,1750.3c-23.2,0.8-34.9,1.2-58.4,2.1c-10.4-57-8.9-111.5-9.5-169.2
								c-0.4-38.5,3.2-96.8-34.9-122.2c5.2-0.4,7.9-0.6,13.3-1C1579.4,1502.7,1566.1,1675.4,1584.9,1750.3z"/>
						</g>
					</g>
					<g>
						<g>
							<path class="st25" d="M1773.2,1743.9c-21.6,0.7-32.6,1.1-54.7,1.8c-40.5-108-75.9-230.7-189.5-287.9c6-0.3,9.1-0.5,15.5-0.8
								C1668,1510.8,1725.7,1629.3,1773.2,1743.9z"/>
						</g>
					</g>
					<g>
						<g>
							<path class="st25" d="M1944.1,1738.6c-19,0.5-28.8,0.8-48.7,1.4c-55-129.2-174.7-237.5-311.2-284.5
								c7.2-0.2,10.9-0.3,18.4-0.5C1742.1,1499.2,1887.7,1604.6,1944.1,1738.6z"/>
						</g>
					</g>
					<g>
						<g>
							<path class="st25" d="M2089.2,1735.1c-15.5,0.3-23.5,0.5-40.2,0.9c-52.4-143.9-258.4-242.6-398.9-281.8
								c8.6-0.1,13.1-0.2,22.2-0.3C1810.5,1491.2,2042.2,1587.9,2089.2,1735.1z"/>
						</g>
					</g>
					<g>
						<g>
							<path class="st25" d="M2200.6,1733.8c-11,0-16.8,0-29.2,0.1c-11-72.8-100.3-127.1-159.5-162.8
								c-87.5-52.9-182.5-91.7-282.4-117.5c10.4,0,15.7,0,26.7,0c101.1,26.2,198.1,64.9,287.3,117.5
								C2100.9,1605,2196.8,1660.6,2200.6,1733.8z"/>
						</g>
					</g>
				</g>
			</g>
			<path class="st26" d="M1844.5,1462.7c0,0-793.4-37.1-1409.4,327.7h1409.4V1462.7z"/>
			<linearGradient id="SVGID_18_" gradientUnits="userSpaceOnUse" x1="1130.5398" y1="1548.7905" x2="1155.856" y2="1762.032">
				<stop  offset="1.359230e-02" style="stop-color:#FFC15D;stop-opacity:0"/>
				<stop  offset="0.9885" style="stop-color:#DB964B"/>
			</linearGradient>
			<path class="st27" d="M1844.5,1462.7c0,0-793.4-37.1-1409.4,327.7h1409.4V1462.7z"/>
			<path class="st25" d="M860.1,1602.4c9.3-2.2,476.1-140.7,984.4-126.5v-13.2C1844.5,1462.7,1363.7,1440.3,860.1,1602.4z"/>
		</g>
		<g>
			<path class="st28" d="M-233.7,1462.7c0,0,934.4-37.1,1659.9,327.7H-233.7V1462.7z"/>
			<g>
				<g>
					<path class="st23" d="M-181.8,1522c0,2.7-6.9,4.8-15.4,4.8s-15.4-2.2-15.4-4.8c0-2.7,6.9-4.8,15.4-4.8
						S-181.8,1519.3-181.8,1522z"/>
					<ellipse class="st23" cx="-164.9" cy="1512.3" rx="15.4" ry="4.8"/>
					<path class="st23" d="M-3.4,1526.8c0,2.7-6.9,4.8-15.4,4.8s-15.4-2.2-15.4-4.8c0-2.7,6.9-4.8,15.4-4.8S-3.4,1524.2-3.4,1526.8z
						"/>
					<path class="st23" d="M130,1509.5c0,2.7-6.9,4.8-15.4,4.8s-15.4-2.2-15.4-4.8c0-2.7,6.9-4.8,15.4-4.8S130,1506.9,130,1509.5z"
						/>
					<ellipse class="st23" cx="-122" cy="1529.3" rx="7.7" ry="2.4"/>
					<path class="st23" d="M-85.8,1538.9c0,1.3-3.4,2.4-7.7,2.4s-7.7-1.1-7.7-2.4c0-1.3,3.4-2.4,7.7-2.4S-85.8,1537.5-85.8,1538.9z"
						/>
					<path class="st23" d="M-55.8,1531.7c0,1.3-3.4,2.4-7.7,2.4s-7.7-1.1-7.7-2.4c0-1.3,3.4-2.4,7.7-2.4S-55.8,1530.4-55.8,1531.7z"
						/>
					<path class="st23" d="M11.9,1536.5c0,1.3-3.4,2.4-7.7,2.4s-7.7-1.1-7.7-2.4c0-1.3,3.4-2.4,7.7-2.4S11.9,1535.2,11.9,1536.5z"/>
					<path class="st23" d="M53.6,1526.8c0,1.3-3.4,2.4-7.7,2.4s-7.7-1.1-7.7-2.4s3.4-2.4,7.7-2.4S53.6,1525.5,53.6,1526.8z"/>
					<path class="st23" d="M137.7,1521.6c0,1.3-3.4,2.4-7.7,2.4c-4.2,0-7.7-1.1-7.7-2.4c0-1.3,3.4-2.4,7.7-2.4
						C134.3,1519.2,137.7,1520.3,137.7,1521.6z"/>
					<ellipse class="st23" cx="257.3" cy="1539.7" rx="15.4" ry="4.8"/>
					<path class="st23" d="M346,1586.4c0,2.7-6.9,4.8-15.4,4.8s-15.4-2.2-15.4-4.8c0-2.7,6.9-4.8,15.4-4.8S346,1583.7,346,1586.4z"
						/>
					<path class="st23" d="M280.3,1551.9c0,1.3-3.4,2.4-7.7,2.4s-7.7-1.1-7.7-2.4c0-1.3,3.4-2.4,7.7-2.4S280.3,1550.5,280.3,1551.9z
						"/>
					<path class="st23" d="M240.2,1567c0,1.3-3.4,2.4-7.7,2.4s-7.7-1.1-7.7-2.4c0-1.3,3.4-2.4,7.7-2.4S240.2,1565.7,240.2,1567z"/>
					<path class="st23" d="M304.4,1586.9c0,1.3-3.4,2.4-7.7,2.4s-7.7-1.1-7.7-2.4c0-1.3,3.4-2.4,7.7-2.4S304.4,1585.5,304.4,1586.9z
						"/>
					<path class="st23" d="M163.9,1575.9c0,1.3-3.4,2.4-7.7,2.4s-7.7-1.1-7.7-2.4c0-1.3,3.4-2.4,7.7-2.4S163.9,1574.6,163.9,1575.9z
						"/>
					<path class="st23" d="M178.5,1524.1c0,1.3-3.4,2.4-7.7,2.4s-7.7-1.1-7.7-2.4c0-1.3,3.4-2.4,7.7-2.4S178.5,1522.7,178.5,1524.1z
						"/>
					<path class="st23" d="M238,1530c0,1.3-3.4,2.4-7.7,2.4c-4.2,0-7.7-1.1-7.7-2.4s3.4-2.4,7.7-2.4
						C234.6,1527.6,238,1528.7,238,1530z"/>
					<path class="st23" d="M807.3,1638.6c0,2.7-6.9,4.8-15.4,4.8c-8.5,0-15.4-2.2-15.4-4.8c0-2.7,6.9-4.8,15.4-4.8
						C800.4,1633.7,807.3,1635.9,807.3,1638.6z"/>
					<path class="st23" d="M878,1638.6c0,2.7-6.9,4.8-15.4,4.8s-15.4-2.2-15.4-4.8c0-2.7,6.9-4.8,15.4-4.8S878,1635.9,878,1638.6z"
						/>
					<ellipse class="st23" cx="807.3" cy="1650.7" rx="7.7" ry="2.4"/>
					<path class="st23" d="M968.6,1681.2c0,1.3-3.4,2.4-7.7,2.4s-7.7-1.1-7.7-2.4c0-1.3,3.4-2.4,7.7-2.4S968.6,1679.8,968.6,1681.2z
						"/>
					<ellipse class="st23" cx="898.3" cy="1708.1" rx="7.7" ry="2.4"/>
					<ellipse class="st23" cx="1028.1" cy="1695.5" rx="7.7" ry="2.4"/>
					<path class="st23" d="M772.7,1628.9c0,1.3-3.4,2.4-7.7,2.4s-7.7-1.1-7.7-2.4c0-1.3,3.4-2.4,7.7-2.4S772.7,1627.5,772.7,1628.9z
						"/>
					<path class="st23" d="M951.2,1705.5c0,2.7-6.9,4.8-15.4,4.8c-8.5,0-15.4-2.2-15.4-4.8c0-2.7,6.9-4.8,15.4-4.8
						C944.3,1700.6,951.2,1702.8,951.2,1705.5z"/>
					<path class="st23" d="M948.5,1649.7c0,2.7-6.9,4.8-15.4,4.8s-15.4-2.2-15.4-4.8c0-2.7,6.9-4.8,15.4-4.8
						S948.5,1647,948.5,1649.7z"/>
					<path class="st23" d="M1039.9,1669.7c0,2.7-6.9,4.8-15.4,4.8c-8.5,0-15.4-2.2-15.4-4.8s6.9-4.8,15.4-4.8
						C1033,1664.8,1039.9,1667,1039.9,1669.7z"/>
					<ellipse class="st23" cx="951.2" cy="1717.6" rx="7.7" ry="2.4"/>
					<path class="st23" d="M916.6,1695.8c0,1.3-3.4,2.4-7.7,2.4s-7.7-1.1-7.7-2.4c0-1.3,3.4-2.4,7.7-2.4S916.6,1694.4,916.6,1695.8z
						"/>
					<ellipse class="st23" cx="104.4" cy="1541.4" rx="7.7" ry="2.4"/>
				</g>
				<path class="st23" d="M-233.7,1462.7v33.5c85.7-5.6,252.8-15.3,501.1,21.4c340.5,50.3,48.4,11.6,58,32.9
					c9.7,21.3,248.6,23.2,376.8,58c128.2,34.8-26.6-19.3-94.3-32.9c-67.7-13.5-19.3-29,211.8,27.1c169.8,41.2,434,138.7,562.4,187.7
					h44.1C700.8,1425.6-233.7,1462.7-233.7,1462.7z"/>
				<g>
					<path class="st25" d="M-14.6,1716.6c0,0,65.8-12.8,145.1-25.6c37-6,77-12,114.6-16.7c116.9-14.6,362.3-61.8,289.3-93.3
						c-73.1-31.5-131.1-31.7-113.7-49c17.4-17.3-114.9-44.3-114.9-44.3l43,4.8c0,0,90,14.8,98,30.1s-10.2,13.8,35.5,23.6
						c45.7,9.8,127.7,29.4,127,68.5c-0.7,39.2-319.9,118.3-319.9,118.3L-14.6,1716.6z"/>
					<path class="st29" d="M-9,1716.9l298.4,16.2c0,0,319.2-79.1,319.9-118.3c0.1-6.6-2.1-12.6-6.1-18.1c5.2,10.1-3.6,16.7-9.8,23
						c-6.3,6.3-17.4,7.3-33.4,6.4c-16-0.9-17.9,17.8-42.6,30.4s-138.3,45.5-157.2,45.8c-18.9,0.4,34.3-23.1,16.4-21.6
						c-17.9,1.5-72.5,13.5-62.4,18.4c10.2,4.8,11.1,5.3-27.6,10.6c-38.7,5.3-82.2-7.4-120.4-10.6c-16.3-1.4-24-5.3-27.4-9.3
						c-2.8,0.4-5.6,0.9-8.3,1.3c-61.5,9.9-114.9,19.9-135.7,23.8L-9,1716.9z"/>
					<g>
						<ellipse class="st29" cx="213.7" cy="1700" rx="6.9" ry="2.2"/>
						<path class="st29" d="M255.5,1699.5c0,0.9-2.3,1.7-5.2,1.7c-2.9,0-5.2-0.7-5.2-1.7c0-0.9,2.3-1.7,5.2-1.7
							C253.1,1697.8,255.5,1698.6,255.5,1699.5z"/>
						<ellipse class="st29" cx="260.7" cy="1692.6" rx="5.2" ry="1.7"/>
						<ellipse class="st29" cx="300.2" cy="1701.2" rx="5.2" ry="1.7"/>
						<path class="st29" d="M316.4,1692.6c0,0.9-2.3,1.7-5.2,1.7c-2.9,0-5.2-0.7-5.2-1.7c0-0.9,2.3-1.7,5.2-1.7
							C314.1,1690.9,316.4,1691.7,316.4,1692.6z"/>
						<path class="st29" d="M393.3,1689.3c0,0.9-2.3,1.7-5.2,1.7c-2.9,0-5.2-0.7-5.2-1.7c0-0.9,2.3-1.7,5.2-1.7
							C391,1687.6,393.3,1688.3,393.3,1689.3z"/>
						<path class="st29" d="M426,1682.3c0,0.9-2.3,1.7-5.2,1.7c-2.9,0-5.2-0.7-5.2-1.7c0-0.9,2.3-1.7,5.2-1.7
							C423.7,1680.6,426,1681.4,426,1682.3z"/>
						<path class="st29" d="M462.8,1666.5c0,0.9-2.3,1.7-5.2,1.7s-5.2-0.7-5.2-1.7c0-0.9,2.3-1.7,5.2-1.7S462.8,1665.6,462.8,1666.5
							z"/>
						<path class="st29" d="M516.6,1634.6c0,0.9-2.3,1.7-5.2,1.7c-2.9,0-5.2-0.7-5.2-1.7c0-0.9,2.3-1.7,5.2-1.7
							C514.3,1632.9,516.6,1633.7,516.6,1634.6z"/>
						<path class="st29" d="M475.3,1668.2c0,0.9-2.3,1.7-5.2,1.7c-2.9,0-5.2-0.7-5.2-1.7c0-0.9,2.3-1.7,5.2-1.7
							C473,1666.5,475.3,1667.3,475.3,1668.2z"/>
						<path class="st29" d="M523.5,1642.8c0,0.9-2.3,1.7-5.2,1.7c-2.9,0-5.2-0.7-5.2-1.7c0-0.9,2.3-1.7,5.2-1.7
							C521.1,1641.1,523.5,1641.9,523.5,1642.8z"/>
						<path class="st29" d="M300.2,1693.4c0,0.5-1.2,0.8-2.6,0.8c-1.4,0-2.6-0.4-2.6-0.8s1.2-0.8,2.6-0.8
							C299,1692.6,300.2,1693,300.2,1693.4z"/>
						<ellipse class="st29" cx="399" cy="1684.9" rx="2.6" ry="0.8"/>
						<ellipse class="st29" cx="452.4" cy="1673.6" rx="2.6" ry="0.8"/>
						<ellipse class="st29" cx="566.5" cy="1618.1" rx="5.2" ry="1.7"/>
						<path class="st29" d="M584.1,1619.8c0,0.9-2.3,1.7-5.2,1.7c-2.9,0-5.2-0.7-5.2-1.7c0-0.9,2.3-1.7,5.2-1.7
							C581.8,1618.1,584.1,1618.9,584.1,1619.8z"/>
						<path class="st29" d="M535,1573c0,0.9-2.3,1.7-5.2,1.7c-2.9,0-5.2-0.7-5.2-1.7c0-0.9,2.3-1.7,5.2-1.7
							C532.7,1571.4,535,1572.1,535,1573z"/>
						<ellipse class="st29" cx="431.2" cy="1540.5" rx="5.2" ry="1.7"/>
						<path class="st29" d="M547.5,1574.7c0,0.9-2.3,1.7-5.2,1.7c-2.9,0-5.2-0.7-5.2-1.7c0-0.9,2.3-1.7,5.2-1.7
							C545.1,1573,547.5,1573.8,547.5,1574.7z"/>
						<path class="st29" d="M563.8,1621.5c0,0.5-1.2,0.8-2.6,0.8c-1.4,0-2.6-0.4-2.6-0.8c0-0.5,1.2-0.8,2.6-0.8
							C562.7,1620.6,563.8,1621,563.8,1621.5z"/>
						<path class="st29" d="M506.2,1642.8c0,0.5-1.2,0.8-2.6,0.8c-1.4,0-2.6-0.4-2.6-0.8c0-0.5,1.2-0.8,2.6-0.8
							C505,1642,506.2,1642.3,506.2,1642.8z"/>
						<path class="st29" d="M550.1,1622.3c0,0.5-1.2,0.8-2.6,0.8c-1.4,0-2.6-0.4-2.6-0.8c0-0.5,1.2-0.8,2.6-0.8
							C548.9,1621.5,550.1,1621.8,550.1,1622.3z"/>
						<ellipse class="st29" cx="518.2" cy="1628" rx="2.6" ry="0.8"/>
						<path class="st29" d="M537.4,1577.2c0,0.5-1.2,0.8-2.6,0.8c-1.4,0-2.6-0.4-2.6-0.8c0-0.5,1.2-0.8,2.6-0.8
							C536.2,1576.4,537.4,1576.7,537.4,1577.2z"/>
						<path class="st29" d="M522.5,1569.5c0,0.5-1.2,0.8-2.6,0.8s-2.6-0.4-2.6-0.8c0-0.5,1.2-0.8,2.6-0.8S522.5,1569.1,522.5,1569.5
							z"/>
						<path class="st29" d="M508.8,1565c0,0.5-1.2,0.8-2.6,0.8c-1.4,0-2.6-0.4-2.6-0.8c0-0.5,1.2-0.8,2.6-0.8
							C507.7,1564.2,508.8,1564.5,508.8,1565z"/>
						<ellipse class="st29" cx="515.6" cy="1566.6" rx="2.6" ry="0.8"/>
						<path class="st29" d="M471.2,1553.8c0,0.5-1.2,0.8-2.6,0.8c-1.4,0-2.6-0.4-2.6-0.8c0-0.5,1.2-0.8,2.6-0.8
							C470.1,1552.9,471.2,1553.3,471.2,1553.8z"/>
						<ellipse class="st29" cx="476.3" cy="1552.1" rx="2.6" ry="0.8"/>
						<ellipse class="st29" cx="437.4" cy="1544.4" rx="2.6" ry="0.8"/>
						<path class="st29" d="M426,1536c0,0.5-1.2,0.8-2.6,0.8c-1.4,0-2.6-0.4-2.6-0.8c0-0.5,1.2-0.8,2.6-0.8
							C424.9,1535.1,426,1535.5,426,1536z"/>
						<ellipse class="st29" cx="431.2" cy="1530.5" rx="2.6" ry="0.8"/>
						<path class="st29" d="M488.9,1558.5c0,0.5-1.2,0.8-2.6,0.8c-1.4,0-2.6-0.4-2.6-0.8c0-0.5,1.2-0.8,2.6-0.8
							C487.7,1557.6,488.9,1558,488.9,1558.5z"/>
						<ellipse class="st29" cx="322.3" cy="1682.3" rx="8.3" ry="2.6"/>
						<ellipse class="st29" cx="429.1" cy="1673.6" rx="8.3" ry="2.6"/>
						<path class="st29" d="M537.4,1632.9c0,1.5-3.7,2.6-8.3,2.6c-4.6,0-8.3-1.2-8.3-2.6c0-1.5,3.7-2.6,8.3-2.6
							C533.7,1630.3,537.4,1631.5,537.4,1632.9z"/>
						<path class="st29" d="M244.1,1692c0.1,2-5.4,3.9-12.3,4.2c-6.9,0.3-12.5-1.1-12.6-3.1c-0.1-2,5.4-3.9,12.3-4.2
							C238.3,1688.6,244,1690,244.1,1692z"/>
					</g>
				</g>
				<g>
					<g>
						<path class="st30" d="M107.3,1703.2L107.3,1703.2c-1.4,0-2.5-1.1-2.5-2.5v-35.2c0-1.4,1.1-2.5,2.5-2.5l0,0
							c1.4,0,2.5,1.1,2.5,2.5v35.2C109.9,1702,108.7,1703.2,107.3,1703.2z"/>
						<path class="st30" d="M184.3,1694.4L184.3,1694.4c-1.4,0-2.5-1.1-2.5-2.5v-35.2c0-1.4,1.1-2.5,2.5-2.5l0,0
							c1.4,0,2.5,1.1,2.5,2.5v35.2C186.9,1693.2,185.7,1694.4,184.3,1694.4z"/>
						<path class="st30" d="M273.2,1685L273.2,1685c-1.4,0-2.5-1.1-2.5-2.5v-35.2c0-1.4,1.1-2.5,2.5-2.5l0,0c1.4,0,2.5,1.1,2.5,2.5
							v35.2C275.8,1683.9,274.6,1685,273.2,1685z"/>
						<path class="st30" d="M356.7,1669.8L356.7,1669.8c-1.4,0-2.5-1.1-2.5-2.5v-35.2c0-1.4,1.1-2.5,2.5-2.5l0,0
							c1.4,0,2.5,1.1,2.5,2.5v35.2C359.2,1668.7,358.1,1669.8,356.7,1669.8z"/>
						<path class="st30" d="M426,1656.4L426,1656.4c-1.4,0-2.5-1.1-2.5-2.5v-35.2c0-1.4,1.1-2.5,2.5-2.5l0,0c1.4,0,2.5,1.1,2.5,2.5
							v35.2C428.6,1655.2,427.4,1656.4,426,1656.4z"/>
						<path class="st30" d="M486.3,1646.1L486.3,1646.1c-1.4,0-2.5-1.1-2.5-2.5v-35.2c0-1.4,1.1-2.5,2.5-2.5l0,0
							c1.4,0,2.5,1.1,2.5,2.5v35.2C488.8,1645,487.7,1646.1,486.3,1646.1z"/>
						<path class="st30" d="M522,1630.5L522,1630.5c-1.2,0-2.1-1-2.1-2.1v-29.6c0-1.2,1-2.1,2.1-2.1l0,0c1.2,0,2.1,1,2.1,2.1v29.6
							C524.2,1629.6,523.2,1630.5,522,1630.5z"/>
						<path class="st30" d="M542.2,1618.1L542.2,1618.1c-1.1,0-2-0.9-2-2v-27.7c0-1.1,0.9-2,2-2l0,0c1.1,0,2,0.9,2,2v27.7
							C544.2,1617.2,543.3,1618.1,542.2,1618.1z"/>
					</g>
					<g>
						<path class="st30" d="M535.8,1582.8v-13c0-0.6-0.5-1.1-1.1-1.1c-0.6,0-1.1,0.5-1.1,1.1v13
							C534.1,1582.9,534.9,1582.9,535.8,1582.8z"/>
						<path class="st30" d="M520.5,1577.4v-13c0-0.6-0.5-1.1-1.1-1.1c-0.6,0-1.1,0.5-1.1,1.1v13
							C518.8,1577.5,519.6,1577.6,520.5,1577.4z"/>
						<path class="st30" d="M505.9,1571.2v-13c0-0.6-0.5-1.1-1.1-1.1c-0.6,0-1.1,0.5-1.1,1.1v13
							C504.2,1571.3,504.9,1571.3,505.9,1571.2z"/>
						<path class="st30" d="M488.7,1566.3v-12c0-0.6-0.5-1-1-1c-0.6,0-1,0.5-1,1v12C487.1,1566.4,487.8,1566.5,488.7,1566.3z"/>
						<path class="st30" d="M468.8,1561.1v-11c0-0.5-0.4-1-1-1c-0.5,0-1,0.4-1,1v11C467.3,1561.2,468,1561.2,468.8,1561.1z"/>
						<path class="st30" d="M445.8,1553.7v-11c0-0.5-0.4-1-1-1s-1,0.4-1,1v11C444.4,1553.8,445,1553.8,445.8,1553.7z"/>
						<path class="st30" d="M430.4,1548.8v-10.2c0-0.5-0.4-0.9-0.9-0.9c-0.5,0-0.9,0.4-0.9,0.9v10.2
							C429.1,1548.9,429.7,1548.9,430.4,1548.8z"/>
						<path class="st30" d="M418.3,1542.8v-10.2c0-0.5-0.4-0.9-0.9-0.9c-0.5,0-0.9,0.4-0.9,0.9v10.2
							C417,1542.9,417.6,1542.9,418.3,1542.8z"/>
						<path class="st30" d="M420.7,1530.4v-9.3c0-0.4-0.4-0.8-0.8-0.8c-0.4,0-0.8,0.4-0.8,0.8v9.3
							C419.5,1530.5,420,1530.5,420.7,1530.4z"/>
						<path class="st30" d="M407.2,1520.2v-8.6c0-0.4-0.3-0.7-0.7-0.7c-0.4,0-0.7,0.3-0.7,0.7v8.6
							C406.1,1520.3,406.6,1520.3,407.2,1520.2z"/>
						<path class="st30" d="M388.4,1511.1v-5.5c0-0.3-0.2-0.5-0.5-0.5c-0.3,0-0.5,0.2-0.5,0.5v5.5
							C387.7,1511.1,388,1511.1,388.4,1511.1z"/>
						<path class="st30" d="M369.1,1504.3v-3.4c0-0.2-0.1-0.3-0.3-0.3c-0.2,0-0.3,0.1-0.3,0.3v3.4
							C368.7,1504.3,368.9,1504.3,369.1,1504.3z"/>
					</g>
					<g>
						<path class="st31" d="M534.7,1578.9c0,0,7.3,13.2,7.6,20.7"/>
						<path class="st31" d="M535,1575.3c0,0,5,9.2,8.1,14.4"/>
						<g>
							<path class="st32" d="M109.9,1670.7c0,0,43.4,3.6,73.2-9.4c0,0,45.9,10.9,90.2-9.4c0,0,64.8,1,82.5-13.5c0,0,53,2.2,69.2-15
								c0,0,39.7,5.8,60-9.7c0,0,25.1,0.1,37.2-11.3c0,0,10.9,0,20.2-11.7"/>
							<path class="st32" d="M107.3,1685c0,0,55.1,1.8,75.7-10.8c0,0,63.1,2,90.2-12c0,0,63.4-0.5,82.2-14.5c0,0,52.9,0.7,70.6-13.1
								c0,0,46.2-1.9,60.3-14.8c0,0,22.7-1.1,35.8-11.8c0,0,17.9-3.8,20.2-12.3"/>
							<g>
								<path class="st30" d="M534.1,1573.2c-2.6-0.2-5.2-0.7-7.6-1.6c-2.4-0.9-4.8-2.1-6.7-4l0.1,0c-2.8-0.2-5.5-0.7-8.1-1.5
									c-1.3-0.4-2.6-0.9-3.8-1.6c-1.2-0.6-2.4-1.5-3.3-2.6l0.1,0.1c-2.9-0.3-5.8-0.8-8.6-1.4c-1.4-0.3-2.8-0.7-4.2-1.1
									c-1.4-0.5-2.8-1-4-1.8l0.1,0c-3.5,0-7-0.3-10.4-0.9c-1.7-0.3-3.4-0.7-5.1-1.2c-1.7-0.5-3.3-1.2-4.8-2.2l0.1,0
									c-4.1-0.6-8.1-1.5-12.1-2.7c-2-0.6-3.9-1.4-5.8-2.3c-1.9-0.9-3.7-2-5.2-3.4l0.1,0c-2.5-0.2-5-0.5-7.4-0.9
									c-1.2-0.2-2.5-0.5-3.7-0.8c-1.2-0.4-2.4-0.7-3.4-1.6l0.1,0c-2.4-0.4-4.8-1.1-7-2c-1.1-0.5-2.2-1.1-3.2-1.8
									c-1-0.7-1.9-1.7-2.4-2.8c0,0,0-0.1,0-0.1l1.6-12.7l0.1,0.2c-2.6-1-5-2.2-7.3-3.7c-2.3-1.5-4.3-3.4-5.8-5.7l0.1,0.1
									c-3.3-0.4-6.5-1-9.7-1.9c-1.6-0.5-3.2-1-4.7-1.7c-1.5-0.7-3-1.5-4.2-2.7l0,0l0.1,0c-3.3-0.4-6.6-1.1-9.8-1.9
									c-1.6-0.4-3.2-0.9-4.8-1.5c-1.6-0.6-3.1-1.2-4.5-2.1c0,0,0,0,0-0.1c0,0,0,0,0.1,0c1.4,0.9,3,1.5,4.5,2.1
									c1.6,0.6,3.2,1,4.8,1.4c3.2,0.8,6.5,1.4,9.8,1.8c0,0,0.1,0,0.1,0l0,0l0,0c1.2,1.1,2.6,2,4.1,2.7c1.5,0.7,3.1,1.2,4.6,1.7
									c3.2,0.9,6.4,1.5,9.7,1.9c0,0,0.1,0,0.1,0.1c1.5,2.3,3.5,4.1,5.7,5.7c2.2,1.5,4.7,2.8,7.2,3.7c0.1,0,0.1,0.1,0.1,0.2
									l-1.6,12.7l0-0.1c0.5,1.1,1.4,2,2.3,2.7c1,0.7,2,1.3,3.1,1.8c2.2,1,4.6,1.6,7,2c0,0,0.1,0,0.1,0l0,0
									c0.9,0.8,2.1,1.2,3.3,1.5c1.2,0.3,2.4,0.6,3.6,0.8c2.5,0.4,4.9,0.7,7.4,0.9c0,0,0.1,0,0.1,0c1.5,1.4,3.3,2.5,5.1,3.3
									c1.8,0.9,3.8,1.6,5.7,2.2c3.9,1.2,8,2.1,12,2.7c0,0,0,0,0.1,0c1.4,0.9,3,1.6,4.7,2.2c1.6,0.5,3.3,0.9,5.1,1.2
									c3.4,0.6,6.9,0.9,10.4,0.9c0,0,0.1,0,0.1,0c1.2,0.8,2.5,1.3,3.9,1.8c1.4,0.4,2.8,0.8,4.2,1.1c2.8,0.6,5.7,1.1,8.6,1.4
									c0,0,0.1,0,0.1,0.1c0.9,1,2,1.9,3.2,2.5c1.2,0.6,2.5,1.1,3.8,1.5c2.6,0.8,5.3,1.3,8.1,1.5c0,0,0.1,0,0.1,0
									c1.8,1.9,4.1,3.1,6.6,3.9c2.4,0.8,5,1.4,7.6,1.6l0,0c0.1,0,0.1,0.1,0.1,0.2S534.2,1573.2,534.1,1573.2L534.1,1573.2z"/>
							</g>
							<g>
								<path class="st30" d="M534.1,1578.1c-1.3,0.1-2.6,0-3.9-0.2c-1.3-0.2-2.6-0.4-3.8-0.7c-1.3-0.4-2.5-0.9-3.6-1.5
									c-1.1-0.7-2.1-1.5-3-2.6l0.1,0.1c-1.4-0.1-2.7-0.3-4.1-0.6c-1.4-0.3-2.7-0.6-4-1c-1.3-0.4-2.6-0.9-3.8-1.6
									c-1.2-0.7-2.4-1.4-3.3-2.5l0.1,0.1c-3-0.5-5.9-1.1-8.9-1.8c-1.5-0.4-2.9-0.8-4.3-1.3c-1.4-0.5-2.9-1.1-4-2.2l0.1,0.1
									c-1.7,0.1-3.5,0.1-5.2,0c-1.7-0.1-3.5-0.3-5.2-0.6c-1.7-0.3-3.4-0.7-5-1.4c-1.6-0.6-3.2-1.5-4.5-2.6l0.1,0
									c-4.1-0.3-8.2-1-12.2-2c-2-0.5-4-1.2-5.8-2.1c-1.9-0.9-3.7-2-5-3.6l0.1,0.1c-2.7-0.2-5.4-0.6-8-1.2
									c-1.3-0.3-2.6-0.7-3.9-1.2c-1.3-0.5-2.5-1.1-3.6-1.9l0,0c-2.1-0.8-4.2-1.6-6.3-2.6c-1-0.5-2-1-3-1.6c-1-0.6-1.9-1.2-2.8-1.9
									c0,0-0.1-0.1,0-0.1l2.4-13.3l0.1,0.2c-1.4-0.3-2.7-0.7-4-1.2c-1.3-0.5-2.5-1.1-3.7-1.8c-1.2-0.7-2.3-1.6-3.3-2.5
									c-1-1-1.8-2.1-2.5-3.3l0.1,0.1c-1.7-0.4-3.3-0.8-4.9-1.3c-1.6-0.5-3.2-1-4.8-1.7c-1.6-0.6-3.2-1.3-4.6-2.2
									c-1.5-0.8-2.9-1.8-4.1-3l0,0l0.1,0c-1.7,0-3.4-0.3-5-0.6c-1.7-0.4-3.3-0.8-4.9-1.4c-1.6-0.6-3.2-1.2-4.7-1.9
									c-0.8-0.3-1.5-0.7-2.3-1.1l-2.2-1.2c0,0,0,0,0-0.1c0,0,0,0,0.1,0l2.2,1.2c0.8,0.4,1.5,0.8,2.3,1.1c1.5,0.7,3.1,1.3,4.7,1.9
									c1.6,0.5,3.2,1,4.9,1.3c1.6,0.3,3.3,0.6,5,0.6c0,0,0.1,0,0.1,0l0,0c1.2,1.2,2.6,2.1,4.1,3c1.5,0.8,3,1.5,4.6,2.1
									c1.6,0.6,3.2,1.2,4.8,1.6c1.6,0.5,3.3,0.9,4.9,1.3c0,0,0.1,0,0.1,0.1c0.7,1.2,1.5,2.3,2.5,3.2c1,0.9,2.1,1.8,3.3,2.5
									c2.4,1.4,4.9,2.4,7.6,3c0.1,0,0.1,0.1,0.1,0.2l-2.4,13.3l0-0.1c0.8,0.7,1.8,1.3,2.8,1.9c1,0.6,2,1.1,3,1.6
									c2,1,4.1,1.8,6.3,2.6c0,0,0,0,0,0c1.1,0.8,2.3,1.4,3.5,1.9c1.2,0.5,2.5,0.8,3.8,1.2c2.6,0.6,5.3,1,7.9,1.2
									c0,0,0.1,0,0.1,0.1c1.2,1.6,3.1,2.7,4.9,3.5c1.9,0.9,3.8,1.5,5.8,2c4,1,8.1,1.7,12.1,2c0,0,0.1,0,0.1,0
									c1.3,1.1,2.9,1.9,4.4,2.5c1.6,0.6,3.3,1,5,1.4c1.7,0.3,3.4,0.5,5.1,0.6c1.7,0.1,3.5,0.1,5.2,0c0,0,0.1,0,0.1,0l0,0
									c1,1,2.5,1.6,3.9,2.1c1.4,0.5,2.9,0.9,4.3,1.3c2.9,0.7,5.9,1.3,8.8,1.8c0,0,0.1,0,0.1,0.1c0.9,1,2,1.8,3.2,2.4
									c1.2,0.7,2.5,1.1,3.8,1.5c1.3,0.4,2.6,0.7,4,1c1.3,0.2,2.7,0.5,4.1,0.6c0,0,0.1,0,0.1,0.1c0.8,1,1.8,1.8,2.9,2.5
									c1.1,0.6,2.3,1.1,3.5,1.5c1.2,0.4,2.5,0.6,3.8,0.7c1.3,0.1,2.6,0.2,3.9,0.2l0,0c0.1,0,0.2,0.1,0.2,0.1
									C534.3,1578.1,534.2,1578.1,534.1,1578.1z"/>
							</g>
						</g>
					</g>
				</g>
			</g>
		</g>
		<path class="st33" d="M-376.6,1683.2c0,0,272.8-8.2,699.4,49.2c426.6,57.4,992.5-96.3,1529.4-96.3v147.6H-376.6V1683.2z"/>
		<g>
			<path class="st33" d="M1395.1,1692.3c0,0,3.5-8,2.4-20.2c-1.1-12.2-8-17.7-8-17.7l2.2-3.1c0,0,8,7.1,10.9,5.7
				c2.9-1.5,12.6-13.1,6.4-25.4c-6.2-12.2-6.2-12.2-6.2-12.2l4.9-0.9c0,0,4.9,10.8,7.5,11.1s5.3-8.5,5.3-8.5l8.9,2.2
				c0,0-12.8,17.3-13.1,22.3s-5.3,12-0.9,13c4.4,0.9,9.1-2.2,9.1-2.2l3.3,6c0,0-11.3,2.2-12.8,5.1c-1.5,2.9,0.2,25,0.2,25
				S1407.7,1695.8,1395.1,1692.3z"/>
			<path class="st33" d="M1400.2,1679.3c0,0-58-3.2-45.3-18.6c7.6-9.2,10.3-13.1,8.1-17s0-16.5,4.4-20c4.4-3.5-2-28.1,2.7-34.7
				c4.7-6.6,15.3-21.9,13.1-33.9s1.6-18.1,5.5-27.9c3.8-9.8-13.1-14.8,3.8-33.4c2.9-3.2,7.1-21.9,3.8-34.5c-3.3-12.6,12,2.5,17,17.1
				c4.9,14.6,3.8,38.2,10.4,45.3c6.6,7.1,16.5,16.9,7.7,23.5c-8.9,6.6,13.1,23.5,10.4,31.2c-2.7,7.7-2.3,19.7,0.2,23.5
				c2.5,3.8,22.2,9.7,10.2,23.7c-12,14-2.7,17.3,3.9,21.7c6.5,4.4,13.6,21.9-6.6,26.3C1429.2,1676.1,1414.5,1679.7,1400.2,1679.3z"
				/>
			<g>
				<path class="st33" d="M1392.6,1623.7C1392.6,1623.7,1392.6,1623.7,1392.6,1623.7C1392.2,1623.8,1392.2,1623.8,1392.6,1623.7z"/>
			</g>
			<path class="st34" d="M1459.5,1692.5c0,5.6-23.8,10.1-53.2,10.1c-29.4,0-53.2-4.5-53.2-10.1c0-5.6,23.8-10.1,53.2-10.1
				C1435.7,1682.4,1459.5,1687,1459.5,1692.5z"/>
			<path class="st35" d="M1413.4,1496c3.3,19-3.6,17.9,0,23.3c3.6,5.5,13.1,8,9.5,12.4c-3.6,4.4-13.5,16.1-6.2,22.3
				c7.3,6.2,20.4,8.4,16.4,21.5c-4,13.1-12.8,23-5.1,25.5c7,2.3,22.1,6.6,28,14.8c0.7-8.6-12-12.9-13.9-15.9
				c-2.5-3.8-3-15.9-0.2-23.5c2.7-7.7-19.3-24.6-10.4-31.2c8.9-6.6-1.1-16.4-7.7-23.5c-6.6-7.1-5.5-30.6-10.4-45.3
				c-4.9-14.6-20.2-29.7-17-17.1c0.9,3.5,1.2,7.4,1.2,11.4C1403,1475.2,1411.2,1483.6,1413.4,1496z"/>
		</g>
		<g>
			<path class="st33" d="M1317.2,1723.3c0,0,2.8-6.6,1.9-16.6c-0.9-10-6.6-14.5-6.6-14.5l1.8-2.5c0,0,6.6,5.8,9,4.6
				c2.4-1.2,10.3-10.7,5.2-20.7c-5.1-10-5.1-10-5.1-10l4-0.7c0,0,4,8.8,6.1,9.1c2.1,0.3,4.3-7,4.3-7l7.3,1.8
				c0,0-10.4,14.2-10.7,18.2c-0.3,4-4.3,9.8-0.7,10.6c3.6,0.7,7.5-1.8,7.5-1.8l2.7,4.9c0,0-9.3,1.8-10.4,4.2s0.1,20.4,0.1,20.4
				S1327.5,1726.1,1317.2,1723.3z"/>
			<path class="st33" d="M1321.4,1712.7c0,0-47.4-2.6-37.1-15.2c6.2-7.6,8.4-10.7,6.6-13.9c-1.8-3.1,0-13.5,3.6-16.4
				c3.6-2.9-1.6-23,2.2-28.4c3.9-5.4,12.5-17.9,10.7-27.8c-1.8-9.8,1.3-14.8,4.5-22.8c3.1-8.1-10.7-12.1,3.1-27.3
				c2.4-2.6,5.8-17.9,3.1-28.2c-2.7-10.3,9.8,2,13.9,14c4,12,3.1,31.2,8.5,37c5.4,5.8,13.5,13.8,6.3,19.2
				c-7.3,5.4,10.7,19.2,8.5,25.5c-2.2,6.3-1.9,16.1,0.2,19.2c2,3.1,18.2,8,8.3,19.4c-9.8,11.5-2.2,14.1,3.2,17.7
				c5.3,3.6,11.2,17.9-5.4,21.5C1345.1,1710,1333,1712.9,1321.4,1712.7z"/>
			<g>
				<path class="st33" d="M1315.1,1667.2C1315.1,1667.2,1315.1,1667.2,1315.1,1667.2C1314.7,1667.3,1314.8,1667.3,1315.1,1667.2z"/>
			</g>
			<ellipse class="st34" cx="1326.3" cy="1723.4" rx="43.5" ry="8.2"/>
			<path class="st35" d="M1332.1,1562.7c2.7,15.5-3,14.6,0,19.1c3,4.5,10.7,6.6,7.8,10.1s-11,13.1-5.1,18.2
				c6,5.1,16.7,6.9,13.4,17.6c-3.3,10.7-10.4,18.8-4.2,20.9c5.7,1.9,18.1,5.4,22.9,12.1c0.5-7-9.8-10.6-11.4-13
				c-2-3.1-2.4-13-0.2-19.2c2.2-6.3-15.8-20.1-8.5-25.5c7.3-5.4-0.9-13.4-6.3-19.2c-5.4-5.8-4.5-25.1-8.5-37
				c-4-12-16.6-24.3-13.9-14c0.7,2.8,1,6.1,1,9.3C1323.6,1545.6,1330.3,1552.6,1332.1,1562.7z"/>
		</g>
		<g>
			<path class="st33" d="M1244.4,1719.5c0,0,2.7-6.2,1.8-15.5c-0.8-9.4-6.2-13.6-6.2-13.6l1.7-2.4c0,0,6.2,5.5,8.4,4.3
				c2.2-1.1,9.7-10.1,4.9-19.4c-4.8-9.4-4.8-9.4-4.8-9.4l3.8-0.7c0,0,3.8,8.3,5.7,8.5c2,0.3,4.1-6.5,4.1-6.5l6.9,1.7
				c0,0-9.8,13.3-10.1,17.1c-0.3,3.8-4.1,9.2-0.7,9.9c3.4,0.7,7-1.7,7-1.7l2.5,4.6c0,0-8.7,1.7-9.8,3.9c-1.1,2.2,0.1,19.2,0.1,19.2
				S1254.1,1722.1,1244.4,1719.5z"/>
			<path class="st33" d="M1248.3,1709.5c0,0-44.5-2.4-34.8-14.3c5.8-7.1,7.9-10.1,6.2-13c-1.7-2.9,0-12.7,3.4-15.4
				c3.4-2.7-1.5-21.6,2.1-26.6c3.6-5,11.8-16.8,10.1-26s1.3-13.9,4.2-21.4c2.9-7.6-10.1-11.3,2.9-25.6c2.2-2.4,5.5-16.8,2.9-26.4
				c-2.5-9.7,9.2,1.9,13,13.1c3.8,11.2,2.9,29.3,8,34.7c5,5.5,12.7,13,5.9,18c-6.8,5.1,10.1,18,8,23.9c-2.1,5.9-1.7,15.1,0.2,18
				c1.9,2.9,17,7.5,7.8,18.2c-9.2,10.7-2,13.3,3,16.6c5,3.4,10.5,16.8-5.1,20.1C1270.6,1707,1259.2,1709.8,1248.3,1709.5z"/>
			<g>
				<path class="st33" d="M1242.4,1666.9C1242.4,1666.9,1242.4,1666.9,1242.4,1666.9C1242.1,1666.9,1242.2,1666.9,1242.4,1666.9z"/>
			</g>
			<ellipse class="st34" cx="1253" cy="1719.6" rx="40.8" ry="7.7"/>
			<path class="st35" d="M1258.4,1568.9c2.5,14.5-2.8,13.7,0,17.9c2.8,4.2,10.1,6.2,7.3,9.5c-2.8,3.4-10.4,12.3-4.8,17.1
				c5.6,4.8,15.7,6.4,12.6,16.5c-3.1,10.1-9.8,17.6-3.9,19.6c5.3,1.8,16.9,5,21.5,11.4c0.5-6.6-9.2-9.9-10.7-12.2
				c-1.9-2.9-2.3-12.2-0.2-18c2.1-5.9-14.8-18.9-8-23.9c6.8-5.1-0.8-12.6-5.9-18c-5-5.5-4.2-23.5-8-34.7
				c-3.8-11.2-15.5-22.8-13-13.1c0.7,2.7,0.9,5.7,0.9,8.7C1250.4,1552.9,1256.7,1559.4,1258.4,1568.9z"/>
		</g>
		<g>
			<path class="st33" d="M1125.9,1729c0,0,1.8-4.1,1.2-10.3c-0.6-6.2-4.1-9-4.1-9l1.1-1.6c0,0,4.1,3.6,5.6,2.9
				c1.5-0.7,6.4-6.7,3.3-12.9c-3.2-6.2-3.2-6.2-3.2-6.2l2.5-0.5c0,0,2.5,5.5,3.8,5.7c1.3,0.2,2.7-4.3,2.7-4.3l4.6,1.1
				c0,0-6.5,8.8-6.7,11.3c-0.2,2.5-2.7,6.1-0.5,6.6c2.2,0.5,4.6-1.1,4.6-1.1l1.7,3.1c0,0-5.8,1.1-6.5,2.6
				c-0.7,1.5,0.1,12.7,0.1,12.7S1132.4,1730.8,1125.9,1729z"/>
			<path class="st33" d="M1128.5,1722.4c0,0-29.5-1.6-23.1-9.5c3.9-4.7,5.2-6.7,4.1-8.6c-1.1-2,0-8.4,2.2-10.2
				c2.2-1.8-1-14.3,1.4-17.7s7.8-11.1,6.7-17.3c-1.1-6.1,0.8-9.2,2.8-14.2c2-5-6.7-7.5,2-17c1.5-1.6,3.6-11.1,2-17.6
				c-1.7-6.4,6.1,1.3,8.6,8.7c2.5,7.5,2,19.4,5.3,23.1s8.4,8.6,3.9,12s6.7,12,5.3,15.9c-1.4,3.9-1.2,10,0.1,12
				c1.3,2,11.3,5,5.2,12.1c-6.1,7.1-1.4,8.8,2,11c3.3,2.2,7,11.1-3.4,13.4C1143.3,1720.7,1135.8,1722.6,1128.5,1722.4z"/>
			<g>
				<path class="st33" d="M1124.6,1694.1C1124.6,1694.1,1124.6,1694.1,1124.6,1694.1C1124.4,1694.1,1124.5,1694.1,1124.6,1694.1z"/>
			</g>
			<ellipse class="st34" cx="1131.6" cy="1729.1" rx="27.1" ry="5.1"/>
			<path class="st35" d="M1135.2,1629c1.7,9.7-1.9,9.1,0,11.9c1.9,2.8,6.7,4.1,4.8,6.3c-1.9,2.2-6.9,8.2-3.2,11.3
				c3.7,3.2,10.4,4.3,8.4,11c-2,6.7-6.5,11.7-2.6,13c3.6,1.2,11.2,3.3,14.3,7.6c0.3-4.4-6.1-6.6-7.1-8.1c-1.3-2-1.5-8.1-0.1-12
				c1.4-3.9-9.8-12.5-5.3-15.9c4.5-3.4-0.6-8.4-3.9-12s-2.8-15.6-5.3-23.1c-2.5-7.5-10.3-15.1-8.6-8.7c0.5,1.8,0.6,3.8,0.6,5.8
				C1130,1618.4,1134.1,1622.7,1135.2,1629z"/>
		</g>
		<g>
			<path class="st33" d="M1529.4,1689.7c0,0,2.6-6.1,1.8-15.3c-0.8-9.2-6.1-13.4-6.1-13.4l1.7-2.3c0,0,6.1,5.4,8.3,4.3
				c2.2-1.1,9.5-9.9,4.8-19.2c-4.7-9.2-4.7-9.2-4.7-9.2l3.7-0.7c0,0,3.7,8.1,5.7,8.4c1.9,0.3,4-6.5,4-6.5l6.8,1.6
				c0,0-9.6,13.1-9.9,16.8c-0.3,3.7-4,9.1-0.7,9.8c3.3,0.7,6.9-1.7,6.9-1.7l2.5,4.5c0,0-8.5,1.7-9.6,3.9c-1.1,2.2,0.1,18.9,0.1,18.9
				S1538.9,1692.3,1529.4,1689.7z"/>
			<path class="st33" d="M1533.2,1679.9c0,0-43.8-2.4-34.2-14.1c5.7-7,7.8-9.9,6.1-12.8c-1.7-2.9,0-12.5,3.3-15.1
				c3.3-2.6-1.5-21.3,2.1-26.2c3.6-5,11.6-16.5,9.9-25.6c-1.7-9.1,1.2-13.6,4.1-21.1c2.9-7.4-9.9-11.2,2.9-25.2
				c2.2-2.4,5.4-16.5,2.9-26c-2.5-9.5,9.1,1.9,12.8,12.9c3.7,11.1,2.9,28.8,7.9,34.2c5,5.4,12.5,12.8,5.8,17.8
				c-6.7,5,9.9,17.8,7.9,23.6c-2.1,5.8-1.7,14.9,0.2,17.8c1.9,2.9,16.8,7.4,7.7,17.9c-9.1,10.6-2,13.1,2.9,16.4
				c4.9,3.3,10.3,16.5-5,19.8C1555.2,1677.4,1544,1680.1,1533.2,1679.9z"/>
			<g>
				<path class="st33" d="M1527.5,1637.9C1527.5,1637.9,1527.5,1637.9,1527.5,1637.9C1527.1,1637.9,1527.2,1637.9,1527.5,1637.9z"/>
			</g>
			<path class="st34" d="M1578.1,1689.8c0,4.2-18,7.6-40.2,7.6c-22.2,0-40.2-3.4-40.2-7.6c0-4.2,18-7.6,40.2-7.6
				C1560.1,1682.2,1578.1,1685.6,1578.1,1689.8z"/>
			<path class="st35" d="M1543.2,1541.4c2.5,14.3-2.8,13.5,0,17.6c2.8,4.1,9.9,6.1,7.2,9.4c-2.8,3.3-10.2,12.1-4.7,16.8
				c5.5,4.7,15.4,6.3,12.4,16.3c-3,9.9-9.6,17.4-3.9,19.3c5.3,1.8,16.7,5,21.2,11.2c0.5-6.5-9-9.7-10.5-12c-1.9-2.9-2.2-12-0.2-17.8
				c2.1-5.8-14.6-18.6-7.9-23.6c6.7-5-0.8-12.4-5.8-17.8c-5-5.4-4.1-23.2-7.9-34.2c-3.7-11.1-15.3-22.4-12.8-12.9
				c0.7,2.6,0.9,5.6,0.9,8.6C1535.3,1525.6,1541.5,1532,1543.2,1541.4z"/>
		</g>
		<g>
			<g>
				<path class="st33" d="M-27.4,1728.3c0,0,2.6-6,1.8-15c-0.8-9.1-6-13.1-6-13.1l1.6-2.3c0,0,6,5.3,8.1,4.2
					c2.2-1.1,9.3-9.7,4.7-18.8c-4.6-9.1-4.6-9.1-4.6-9.1l3.7-0.7c0,0,3.7,8,5.6,8.3c1.9,0.3,3.9-6.3,3.9-6.3l6.6,1.6
					c0,0-9.5,12.9-9.8,16.5c-0.3,3.7-3.9,8.9-0.7,9.6c3.2,0.7,6.8-1.6,6.8-1.6l2.4,4.5c0,0-8.4,1.6-9.5,3.8
					c-1.1,2.2,0.1,18.6,0.1,18.6S-18.1,1730.9-27.4,1728.3z"/>
				<path class="st33" d="M-23.6,1718.7c0,0-43.1-2.4-33.6-13.8c5.6-6.9,7.6-9.8,6-12.6c-1.6-2.8,0-12.3,3.2-14.9s-1.5-20.9,2-25.8
					c3.5-4.9,11.4-16.2,9.8-25.2c-1.6-8.9,1.2-13.4,4.1-20.7c2.8-7.3-9.8-11,2.8-24.8c2.1-2.3,5.3-16.3,2.8-25.6
					c-2.4-9.3,8.9,1.8,12.6,12.7c3.7,10.9,2.8,28.3,7.7,33.6c4.9,5.3,12.3,12.6,5.7,17.5c-6.6,4.9,9.7,17.5,7.7,23.2
					c-2,5.7-1.7,14.6,0.2,17.5c1.9,2.8,16.5,7.2,7.5,17.6c-8.9,10.4-2,12.8,2.9,16.1c4.8,3.2,10.1,16.3-4.9,19.5
					C-2.1,1716.2-13.1,1718.9-23.6,1718.7z"/>
				<g>
					<path class="st33" d="M-29.3,1677.4C-29.3,1677.4-29.3,1677.4-29.3,1677.4C-29.6,1677.5-29.6,1677.5-29.3,1677.4z"/>
				</g>
				<path class="st34" d="M20.4,1728.4c0,4.1-17.7,7.5-39.5,7.5s-39.5-3.3-39.5-7.5s17.7-7.5,39.5-7.5S20.4,1724.3,20.4,1728.4z"/>
				<path class="st35" d="M-13.9,1582.6c2.4,14.1-2.7,13.3,0,17.3c2.7,4.1,9.8,6,7,9.2c-2.7,3.2-10,11.9-4.6,16.5
					c5.4,4.6,15.2,6.2,12.2,16c-3,9.8-9.5,17.1-3.8,19c5.2,1.7,16.4,4.9,20.8,11c0.5-6.4-8.9-9.6-10.4-11.8
					c-1.9-2.8-2.2-11.8-0.2-17.5c2-5.7-14.3-18.3-7.7-23.2c6.6-4.9-0.8-12.2-5.7-17.5c-4.9-5.3-4.1-22.8-7.7-33.6
					c-3.7-10.9-15-22-12.6-12.7c0.7,2.6,0.9,5.5,0.9,8.4C-21.6,1567.1-15.5,1573.4-13.9,1582.6z"/>
			</g>
			<g>
				<path class="st33" d="M33.2,1716.2c0,0,2.6-6,1.8-15c-0.8-9.1-6-13.1-6-13.1l1.6-2.3c0,0,6,5.3,8.1,4.2
					c2.2-1.1,9.3-9.7,4.7-18.8c-4.6-9.1-4.6-9.1-4.6-9.1l3.7-0.7c0,0,3.7,8,5.6,8.3c1.9,0.3,3.9-6.3,3.9-6.3l6.6,1.6
					c0,0-9.5,12.9-9.7,16.5c-0.3,3.7-3.9,8.9-0.7,9.6c3.2,0.7,6.8-1.6,6.8-1.6l2.4,4.5c0,0-8.4,1.6-9.5,3.8
					c-1.1,2.2,0.1,18.6,0.1,18.6S42.5,1718.8,33.2,1716.2z"/>
				<path class="st33" d="M37,1706.5c0,0-43.1-2.4-33.6-13.8c5.6-6.9,7.6-9.8,6-12.6s0-12.3,3.2-14.9c3.2-2.6-1.5-20.9,2-25.8
					c3.5-4.9,11.4-16.2,9.7-25.2c-1.6-8.9,1.2-13.4,4.1-20.7c2.8-7.3-9.7-11,2.8-24.8c2.1-2.3,5.3-16.2,2.8-25.6
					c-2.4-9.3,8.9,1.8,12.6,12.7s2.8,28.3,7.7,33.6c4.9,5.3,12.3,12.6,5.7,17.5c-6.6,4.9,9.8,17.5,7.7,23.2
					c-2,5.7-1.7,14.6,0.2,17.5c1.9,2.8,16.5,7.2,7.5,17.6c-8.9,10.4-2,12.8,2.9,16.1c4.8,3.2,10.1,16.2-4.9,19.5
					C58.5,1704.1,47.5,1706.8,37,1706.5z"/>
				<g>
					<path class="st33" d="M31.3,1665.3C31.3,1665.3,31.3,1665.3,31.3,1665.3C31,1665.3,31,1665.3,31.3,1665.3z"/>
				</g>
				<path class="st34" d="M81,1716.3c0,4.1-17.7,7.5-39.5,7.5S2,1720.5,2,1716.3c0-4.1,17.7-7.5,39.5-7.5S81,1712.2,81,1716.3z"/>
				<path class="st35" d="M46.7,1570.4c2.4,14.1-2.7,13.3,0,17.3c2.7,4.1,9.7,6,7,9.2c-2.7,3.2-10,11.9-4.6,16.5
					c5.4,4.6,15.2,6.2,12.2,16c-3,9.7-9.5,17.1-3.8,19c5.2,1.7,16.4,4.9,20.8,11c0.5-6.4-8.9-9.6-10.4-11.8
					c-1.9-2.8-2.2-11.8-0.2-17.5c2-5.7-14.3-18.3-7.7-23.2c6.6-4.9-0.8-12.2-5.7-17.5c-4.9-5.3-4.1-22.8-7.7-33.6
					c-3.7-10.9-15-22-12.6-12.7c0.7,2.6,0.9,5.5,0.9,8.4C39,1554.9,45.1,1561.2,46.7,1570.4z"/>
			</g>
			<g>
				<path class="st33" d="M91.3,1717.9c0,0,2-4.6,1.4-11.6c-0.6-7-4.6-10.1-4.6-10.1l1.3-1.8c0,0,4.6,4.1,6.3,3.2
					c1.7-0.8,7.2-7.5,3.6-14.5c-3.5-7-3.5-7-3.5-7l2.8-0.5c0,0,2.8,6.2,4.3,6.4c1.5,0.2,3-4.9,3-4.9l5.1,1.2c0,0-7.3,9.9-7.5,12.7
					c-0.2,2.8-3,6.9-0.5,7.4c2.5,0.5,5.2-1.3,5.2-1.3l1.9,3.4c0,0-6.5,1.3-7.3,2.9c-0.8,1.7,0.1,14.3,0.1,14.3
					S98.5,1719.9,91.3,1717.9z"/>
				<path class="st33" d="M94.2,1710.5c0,0-33.2-1.8-25.9-10.6c4.3-5.3,5.9-7.5,4.6-9.7s0-9.4,2.5-11.5c2.5-2-1.1-16.1,1.6-19.8
					s8.8-12.5,7.5-19.4c-1.3-6.9,0.9-10.3,3.1-16c2.2-5.6-7.5-8.4,2.2-19.1c1.6-1.8,4.1-12.5,2.2-19.7c-1.9-7.2,6.9,1.4,9.7,9.8
					c2.8,8.4,2.2,21.8,5.9,25.9c3.8,4.1,9.5,9.7,4.4,13.5c-5.1,3.8,7.5,13.5,5.9,17.8c-1.6,4.4-1.3,11.3,0.1,13.5
					c1.4,2.2,12.7,5.6,5.8,13.6c-6.9,8-1.5,9.9,2.2,12.4s7.8,12.5-3.8,15C110.8,1708.6,102.4,1710.7,94.2,1710.5z"/>
				<g>
					<path class="st33" d="M89.9,1678.7C89.9,1678.7,89.8,1678.7,89.9,1678.7C89.6,1678.8,89.6,1678.8,89.9,1678.7z"/>
				</g>
				<path class="st34" d="M128.1,1718c0,3.2-13.6,5.8-30.4,5.8c-16.8,0-30.4-2.6-30.4-5.8c0-3.2,13.6-5.8,30.4-5.8
					C114.5,1712.3,128.1,1714.9,128.1,1718z"/>
				<path class="st35" d="M101.7,1605.7c1.9,10.8-2.1,10.2,0,13.3c2.1,3.1,7.5,4.6,5.4,7.1c-2.1,2.5-7.7,9.2-3.5,12.7
					c4.2,3.5,11.7,4.8,9.4,12.3c-2.3,7.5-7.3,13.1-2.9,14.6c4,1.3,12.6,3.8,16,8.5c0.4-4.9-6.8-7.4-8-9.1c-1.4-2.2-1.7-9.1-0.1-13.5
					c1.6-4.4-11-14.1-5.9-17.8c5.1-3.8-0.6-9.4-4.4-13.5c-3.8-4.1-3.1-17.5-5.9-25.9c-2.8-8.4-11.6-17-9.7-9.8
					c0.5,2,0.7,4.2,0.7,6.5C95.8,1593.8,100.5,1598.6,101.7,1605.7z"/>
			</g>
			<g>
				<path class="st33" d="M180.2,1744.9c0,0,2-4.6,1.4-11.6c-0.6-7-4.6-10.1-4.6-10.1l1.3-1.8c0,0,4.6,4.1,6.3,3.2
					c1.7-0.8,7.2-7.5,3.6-14.5c-3.5-7-3.5-7-3.5-7l2.8-0.5c0,0,2.8,6.2,4.3,6.4c1.5,0.2,3-4.9,3-4.9l5.1,1.2c0,0-7.3,9.9-7.5,12.7
					c-0.2,2.8-3,6.9-0.5,7.4c2.5,0.5,5.2-1.3,5.2-1.3l1.9,3.4c0,0-6.5,1.3-7.3,2.9c-0.8,1.7,0.1,14.3,0.1,14.3
					S187.4,1746.9,180.2,1744.9z"/>
				<path class="st33" d="M183.1,1737.4c0,0-33.2-1.8-25.9-10.6c4.3-5.3,5.9-7.5,4.6-9.7c-1.3-2.2,0-9.4,2.5-11.5
					c2.5-2-1.1-16.1,1.6-19.8c2.7-3.8,8.8-12.5,7.5-19.4c-1.3-6.9,0.9-10.3,3.1-16s-7.5-8.4,2.2-19.1c1.6-1.8,4.1-12.5,2.2-19.7
					c-1.9-7.2,6.9,1.4,9.7,9.8c2.8,8.4,2.2,21.8,5.9,25.9c3.8,4.1,9.5,9.7,4.4,13.5c-5.1,3.8,7.5,13.5,5.9,17.8
					c-1.6,4.4-1.3,11.3,0.1,13.5c1.4,2.2,12.7,5.6,5.8,13.6c-6.9,8-1.5,9.9,2.2,12.4c3.7,2.5,7.8,12.5-3.8,15
					C199.7,1735.6,191.2,1737.6,183.1,1737.4z"/>
				<g>
					<path class="st33" d="M178.7,1705.7C178.7,1705.7,178.7,1705.7,178.7,1705.7C178.5,1705.7,178.5,1705.7,178.7,1705.7z"/>
				</g>
				<path class="st34" d="M217,1745c0,3.2-13.6,5.8-30.4,5.8s-30.4-2.6-30.4-5.8s13.6-5.8,30.4-5.8S217,1741.8,217,1745z"/>
				<path class="st35" d="M190.6,1632.6c1.9,10.8-2.1,10.2,0,13.3c2.1,3.1,7.5,4.6,5.4,7.1c-2.1,2.5-7.7,9.2-3.5,12.7
					c4.2,3.5,11.7,4.8,9.4,12.3c-2.3,7.5-7.3,13.1-2.9,14.6c4,1.3,12.6,3.8,16,8.5c0.4-4.9-6.8-7.4-8-9.1c-1.4-2.2-1.7-9.1-0.1-13.5
					c1.6-4.4-11-14.1-5.9-17.8c5.1-3.8-0.6-9.4-4.4-13.5c-3.8-4.1-3.1-17.5-5.9-25.9c-2.8-8.4-11.6-17-9.7-9.8
					c0.5,2,0.7,4.2,0.7,6.5C184.7,1620.7,189.4,1625.6,190.6,1632.6z"/>
			</g>
		</g>
		<g>
			<g>
				<path class="st36" d="M960.6,1481.3c0,0,1.8-4.2,1.3-10.7c-0.6-6.4-4.2-9.3-4.2-9.3l1.2-1.6c0,0,4.2,3.8,5.8,3s6.6-6.9,3.4-13.4
					c-3.3-6.4-3.3-6.4-3.3-6.4l2.6-0.5c0,0,2.6,5.7,3.9,5.9c1.3,0.2,2.8-4.5,2.8-4.5l4.7,1.1c0,0-6.7,9.1-6.9,11.7
					c-0.2,2.6-2.8,6.4-0.5,6.8c2.3,0.5,4.8-1.2,4.8-1.2l1.7,3.2c0,0-6,1.2-6.7,2.7c-0.8,1.5,0.1,13.2,0.1,13.2
					S967.3,1483.1,960.6,1481.3z"/>
				<path class="st37" d="M963.3,1474.4c0,0-30.6-1.7-23.9-9.8c4-4.9,5.4-6.9,4.3-9c-1.2-2,0-8.7,2.3-10.6
					c2.3-1.8-1.1-14.8,1.4-18.3c2.5-3.5,8.1-11.5,6.9-17.9c-1.2-6.4,0.9-9.5,2.9-14.7c2-5.2-6.9-7.8,2-17.6c1.5-1.7,3.8-11.5,2-18.2
					c-1.7-6.6,6.4,1.3,8.9,9c2.6,7.7,2,20.1,5.5,23.9c3.5,3.8,8.7,8.9,4,12.4c-4.7,3.5,6.9,12.4,5.5,16.5c-1.4,4-1.2,10.4,0.1,12.4
					s11.7,5.1,5.4,12.5c-6.4,7.4-1.4,9.1,2,11.4s7.2,11.5-3.5,13.9C978.6,1472.7,970.8,1474.6,963.3,1474.4z"/>
				<g>
					<path class="st38" d="M959.3,1445.1C959.3,1445.1,959.3,1445.1,959.3,1445.1C959.1,1445.2,959.1,1445.2,959.3,1445.1z"/>
				</g>
				<ellipse class="st34" cx="966.5" cy="1481.4" rx="28.1" ry="5.3"/>
				<path class="st39" d="M992.8,1456.5c-1.1-0.8-2.4-1.5-3.5-2.3c-0.3,1.4,1.4,4.8-1.8,4.6c-4.8-0.4-5-13.9-8.9-8.9
					c-3.8,5-18.3,2.5-21.1-0.8c-2.8-3.3,6.1-8.3,5.6-11.9c-0.5-3.7-7.8-1.3-8.8-4.6c-1-3.3,11.4-13.1,8.3-14.6
					c-3.1-1.5-8.3-15.7-8.3-15.8c-0.4,2-0.5,4.1,0,6.8c1.2,6.4-4.4,14.4-6.9,17.9c-2.5,3.5,0.9,16.5-1.4,18.3
					c-2.3,1.8-3.5,8.5-2.3,10.6c1.2,2-0.3,4.1-4.3,9c-6.7,8.1,23.9,9.8,23.9,9.8c7.5,0.2,15.3-1.7,26-4
					C1000,1468.1,996.2,1458.8,992.8,1456.5z"/>
				<path class="st40" d="M970.3,1377.7c1.7,10-1.9,9.4,0,12.3c1.9,2.9,6.9,4.2,5,6.5c-1.9,2.3-7.1,8.5-3.3,11.7
					c3.8,3.3,10.8,4.4,8.7,11.4c-2.1,6.9-6.7,12.1-2.7,13.5c3.7,1.2,11.7,3.5,14.8,7.8c0.3-4.5-6.3-6.8-7.4-8.4
					c-1.3-2-1.6-8.4-0.1-12.4c1.4-4-10.2-13-5.5-16.5c4.7-3.5-0.6-8.7-4-12.4c-3.5-3.8-2.9-16.2-5.5-23.9c-2.6-7.7-10.7-15.7-8.9-9
					c0.5,1.8,0.6,3.9,0.6,6C964.8,1366.7,969.1,1371.2,970.3,1377.7z"/>
			</g>
			<g>
				<path class="st36" d="M1018.3,1521.2c0,0,2-4.5,1.3-11.4c-0.6-6.9-4.5-10-4.5-10l1.2-1.8c0,0,4.5,4,6.2,3.2
					c1.6-0.8,7.1-7.4,3.6-14.3c-3.5-6.9-3.5-6.9-3.5-6.9l2.8-0.5c0,0,2.8,6.1,4.2,6.3c1.4,0.2,3-4.8,3-4.8l5,1.2
					c0,0-7.2,9.8-7.4,12.6c-0.2,2.8-3,6.8-0.5,7.3c2.5,0.5,5.1-1.2,5.1-1.2l1.9,3.4c0,0-6.4,1.2-7.2,2.9c-0.8,1.6,0.1,14.1,0.1,14.1
					S1025.4,1523.1,1018.3,1521.2z"/>
				<path class="st37" d="M1021.2,1513.8c0,0-32.7-1.8-25.6-10.5c4.3-5.2,5.8-7.4,4.6-9.6c-1.2-2.2,0-9.3,2.5-11.3
					c2.5-2-1.1-15.9,1.5-19.6c2.7-3.7,8.7-12.4,7.4-19.2c-1.2-6.8,0.9-10.2,3.1-15.8c2.2-5.6-7.4-8.3,2.2-18.8
					c1.6-1.8,4-12.4,2.2-19.5c-1.9-7.1,6.8,1.4,9.6,9.7c2.8,8.3,2.2,21.5,5.9,25.6c3.7,4,9.3,9.6,4.3,13.3c-5,3.7,7.4,13.3,5.9,17.6
					c-1.5,4.3-1.3,11.1,0.1,13.3c1.4,2.2,12.5,5.5,5.7,13.4c-6.8,7.9-1.5,9.8,2.2,12.2c3.7,2.5,7.7,12.4-3.7,14.8
					C1037.6,1512,1029.3,1514,1021.2,1513.8z"/>
				<g>
					<path class="st38" d="M1016.9,1482.5C1016.9,1482.5,1016.9,1482.5,1016.9,1482.5C1016.7,1482.5,1016.7,1482.5,1016.9,1482.5z"
						/>
				</g>
				<ellipse class="st34" cx="1024.7" cy="1521.3" rx="30" ry="5.7"/>
				<path class="st39" d="M1052.8,1494.7c-1.2-0.8-2.6-1.6-3.7-2.5c-0.3,1.5,1.5,5.1-1.9,4.9c-5.1-0.4-5.4-14.8-9.5-9.5
					c-4.1,5.4-19.6,2.7-22.6-0.8c-3-3.5,6.5-8.9,6-12.8c-0.5-3.9-8.4-1.4-9.5-4.9c-1.1-3.5,12.2-14,8.9-15.7
					c-3.3-1.6-8.9-16.8-8.9-16.9c-0.4,2.1-0.6,4.4,0,7.3c1.2,6.8-4.7,15.4-7.4,19.2c-2.7,3.7,0.9,17.6-1.5,19.6
					c-2.5,2-3.7,9.1-2.5,11.3c1.2,2.2-0.3,4.4-4.6,9.6c-7.2,8.7,25.6,10.5,25.6,10.5c8,0.2,16.4-1.9,27.8-4.3
					C1060.5,1507,1056.4,1497.2,1052.8,1494.7z"/>
				<path class="st40" d="M1028.6,1410.4c1.9,10.7-2.1,10.1,0,13.2c2.1,3.1,7.4,4.5,5.4,7c-2.1,2.5-7.6,9.1-3.5,12.6
					c4.1,3.5,11.5,4.7,9.3,12.2c-2.3,7.4-7.2,13-2.9,14.4c3.9,1.3,12.5,3.7,15.8,8.4c0.4-4.8-6.8-7.3-7.9-9c-1.4-2.2-1.7-9-0.1-13.3
					c1.5-4.3-10.9-13.9-5.9-17.6c5-3.7-0.6-9.3-4.3-13.3c-3.7-4-3.1-17.3-5.9-25.6c-2.8-8.3-11.4-16.8-9.6-9.7
					c0.5,2,0.7,4.2,0.7,6.4C1022.8,1398.6,1027.4,1403.3,1028.6,1410.4z"/>
			</g>
			<g>
				<path class="st36" d="M811.4,1426.7c0,0,1.4-3.2,0.9-7.9c-0.4-4.8-3.2-6.9-3.2-6.9l0.9-1.2c0,0,3.2,2.8,4.3,2.2
					c1.1-0.6,4.9-5.2,2.5-10c-2.4-4.8-2.4-4.8-2.4-4.8l1.9-0.4c0,0,1.9,4.2,2.9,4.4c1,0.1,2.1-3.4,2.1-3.4l3.5,0.8
					c0,0-5,6.8-5.2,8.7c-0.1,1.9-2.1,4.7-0.4,5.1c1.7,0.4,3.6-0.9,3.6-0.9l1.3,2.4c0,0-4.4,0.9-5,2c-0.6,1.1,0.1,9.8,0.1,9.8
					S816.3,1428.1,811.4,1426.7z"/>
				<path class="st37" d="M813.4,1421.6c0,0-22.8-1.2-17.8-7.3c3-3.6,4-5.2,3.2-6.7c-0.9-1.5,0-6.5,1.7-7.9c1.7-1.4-0.8-11,1.1-13.6
					c1.9-2.6,6-8.6,5.2-13.3c-0.9-4.7,0.6-7.1,2.1-11c1.5-3.9-5.2-5.8,1.5-13.1c1.1-1.2,2.8-8.6,1.5-13.5c-1.3-4.9,4.7,1,6.7,6.7
					c1.9,5.7,1.5,15,4.1,17.8c2.6,2.8,6.5,6.6,3,9.2c-3.5,2.6,5.2,9.2,4.1,12.2c-1.1,3-0.9,7.7,0.1,9.2c1,1.5,8.7,3.8,4,9.3
					c-4.7,5.5-1,6.8,1.5,8.5c2.6,1.7,5.4,8.6-2.6,10.3S819,1421.8,813.4,1421.6z"/>
				<g>
					<path class="st38" d="M810.4,1399.8C810.4,1399.8,810.4,1399.8,810.4,1399.8C810.2,1399.9,810.2,1399.8,810.4,1399.8z"/>
				</g>
				<ellipse class="st34" cx="815.8" cy="1426.8" rx="20.9" ry="4"/>
				<path class="st39" d="M835.3,1408.3c-0.9-0.6-1.8-1.1-2.6-1.7c-0.2,1,1.1,3.6-1.3,3.4c-3.6-0.3-3.7-10.3-6.6-6.6
					c-2.9,3.7-13.6,1.9-15.7-0.6c-2.1-2.4,4.5-6.2,4.2-8.9c-0.4-2.7-5.8-1-6.6-3.4c-0.8-2.4,8.5-9.7,6.2-10.9
					c-2.3-1.1-6.2-11.7-6.2-11.8c-0.3,1.5-0.4,3,0,5c0.9,4.7-3.3,10.7-5.2,13.3c-1.9,2.6,0.6,12.2-1.1,13.6
					c-1.7,1.4-2.6,6.4-1.7,7.9c0.9,1.5-0.2,3-3.2,6.7c-5,6.1,17.8,7.3,17.8,7.3c5.6,0.1,11.4-1.3,19.3-3S837.9,1410,835.3,1408.3z"
					/>
				<path class="st40" d="M818.5,1349.7c1.3,7.4-1.4,7,0,9.2c1.4,2.1,5.2,3.2,3.7,4.9c-1.4,1.7-5.3,6.3-2.4,8.7s8,3.3,6.4,8.5
					c-1.6,5.2-5,9-2,10c2.7,0.9,8.7,2.6,11,5.8c0.3-3.4-4.7-5.1-5.5-6.3c-1-1.5-1.2-6.2-0.1-9.2c1.1-3-7.6-9.7-4.1-12.2
					c3.5-2.6-0.4-6.4-3-9.2c-2.6-2.8-2.1-12-4.1-17.8c-1.9-5.7-8-11.7-6.7-6.7c0.4,1.4,0.5,2.9,0.5,4.5
					C814.5,1341.5,817.7,1344.8,818.5,1349.7z"/>
			</g>
			<g>
				<path class="st36" d="M918,1499c0,0,2.3-5.3,1.6-13.4c-0.7-8.1-5.3-11.7-5.3-11.7l1.5-2.1c0,0,5.3,4.7,7.3,3.7
					c1.9-1,8.3-8.7,4.2-16.8c-4.1-8.1-4.1-8.1-4.1-8.1l3.3-0.6c0,0,3.3,7.1,5,7.4c1.7,0.2,3.5-5.7,3.5-5.7l5.9,1.4
					c0,0-8.5,11.5-8.7,14.8c-0.2,3.3-3.5,8-0.6,8.6c2.9,0.6,6-1.5,6-1.5l2.2,4c0,0-7.5,1.5-8.5,3.4c-1,1.9,0.1,16.6,0.1,16.6
					S926.4,1501.3,918,1499z"/>
				<path class="st37" d="M921.4,1490.4c0,0-38.5-2.1-30-12.3c5-6.1,6.8-8.7,5.4-11.2c-1.5-2.5,0-11,2.9-13.3
					c2.9-2.3-1.3-18.6,1.8-23s10.2-14.5,8.7-22.5s1.1-12,3.6-18.5s-8.7-9.8,2.5-22.1c1.9-2.1,4.7-14.5,2.5-22.9s8,1.6,11.2,11.3
					s2.5,25.3,6.9,30c4.4,4.7,11,11.2,5.1,15.6c-5.9,4.4,8.7,15.6,6.9,20.7c-1.8,5.1-1.5,13.1,0.2,15.6c1.7,2.5,14.7,6.5,6.7,15.7
					c-8,9.3-1.8,11.5,2.6,14.4c4.3,2.9,9,14.5-4.4,17.4C940.6,1488.2,930.8,1490.6,921.4,1490.4z"/>
				<g>
					<path class="st38" d="M916.3,1453.5C916.3,1453.5,916.3,1453.5,916.3,1453.5C916,1453.6,916.1,1453.6,916.3,1453.5z"/>
				</g>
				<ellipse class="st34" cx="925.4" cy="1499.1" rx="35.3" ry="6.7"/>
				<path class="st39" d="M958.4,1467.9c-1.4-1-3.1-1.9-4.3-2.9c-0.3,1.7,1.8,6-2.2,5.7c-6-0.5-6.3-17.4-11.1-11.1
					c-4.8,6.3-23,3.1-26.5-1c-3.5-4.1,7.6-10.4,7-15c-0.6-4.6-9.8-1.7-11.1-5.8c-1.3-4.1,14.4-16.4,10.5-18.4
					c-3.9-1.9-10.4-19.7-10.5-19.9c-0.5,2.5-0.7,5.1,0,8.5c1.5,8-5.6,18.1-8.7,22.5c-3.1,4.4,1.1,20.7-1.8,23
					c-2.9,2.3-4.4,10.7-2.9,13.3c1.5,2.5-0.3,5.1-5.4,11.2c-8.4,10.2,30,12.3,30,12.3c9.4,0.2,19.2-2.2,32.6-5.1
					C967.5,1482.4,962.7,1470.8,958.4,1467.9z"/>
				<path class="st40" d="M930.1,1368.9c2.2,12.6-2.4,11.8,0,15.5c2.4,3.6,8.7,5.3,6.3,8.2c-2.4,2.9-8.9,10.6-4.1,14.8
					c4.8,4.1,13.5,5.6,10.9,14.3c-2.7,8.7-8.5,15.2-3.4,16.9c4.6,1.5,14.6,4.3,18.6,9.8c0.4-5.7-7.9-8.6-9.2-10.6
					c-1.7-2.5-2-10.5-0.2-15.6c1.8-5.1-12.8-16.3-6.9-20.7c5.9-4.4-0.7-10.9-5.1-15.6c-4.4-4.7-3.6-20.3-6.9-30
					c-3.3-9.7-13.4-19.7-11.2-11.3c0.6,2.3,0.8,4.9,0.8,7.5C923.2,1355,928.7,1360.6,930.1,1368.9z"/>
			</g>
		</g>
		<g>
			<g>
				<path class="st36" d="M126.7,1461.2c0,0,2.2-5.1,1.5-12.9c-0.7-7.8-5.1-11.3-5.1-11.3l1.4-2c0,0,5.1,4.5,7,3.6
					c1.9-0.9,8-8.4,4.1-16.2s-4-7.8-4-7.8l3.1-0.6c0,0,3.1,6.9,4.8,7.1c1.6,0.2,3.4-5.5,3.4-5.5l5.7,1.4c0,0-8.2,11.1-8.4,14.2
					c-0.2,3.1-3.4,7.7-0.6,8.3c2.8,0.6,5.8-1.4,5.8-1.4l2.1,3.8c0,0-7.2,1.4-8.2,3.3c-0.9,1.9,0.1,16,0.1,16
					S134.7,1463.4,126.7,1461.2z"/>
				<path class="st37" d="M129.9,1452.9c0,0-37-2-28.9-11.9c4.9-5.9,6.6-8.4,5.2-10.8c-1.4-2.4,0-10.6,2.8-12.8
					c2.8-2.2-1.3-18,1.7-22.2c3-4.2,9.8-14,8.4-21.7c-1.4-7.7,1-11.5,3.5-17.8c2.4-6.3-8.4-9.4,2.4-21.3c1.8-2,4.5-14,2.4-22
					c-2.1-8,7.7,1.6,10.8,10.9c3.1,9.3,2.4,24.4,6.6,28.9c4.2,4.5,10.6,10.8,4.9,15c-5.7,4.2,8.4,15,6.6,19.9
					c-1.7,4.9-1.4,12.6,0.2,15c1.6,2.4,14.2,6.2,6.5,15.2c-7.7,8.9-1.7,11,2.5,13.8c4.2,2.8,8.7,14-4.2,16.8
					C148.5,1450.8,139,1453.1,129.9,1452.9z"/>
				<g>
					<path class="st38" d="M125,1417.4C125,1417.4,125,1417.4,125,1417.4C124.8,1417.4,124.8,1417.4,125,1417.4z"/>
				</g>
				<ellipse class="st34" cx="133.8" cy="1461.3" rx="34" ry="6.4"/>
				<path class="st39" d="M165.6,1431.2c-1.4-0.9-3-1.8-4.2-2.8c-0.3,1.6,1.7,5.8-2.1,5.5c-5.8-0.5-6.1-16.8-10.7-10.7
					c-4.7,6.1-22.1,3-25.5-0.9c-3.4-4,7.3-10,6.8-14.4c-0.6-4.4-9.4-1.6-10.7-5.6c-1.3-4,13.8-15.8,10.1-17.7
					c-3.7-1.9-10-19-10.1-19.2c-0.5,2.4-0.6,4.9,0,8.2c1.4,7.7-5.4,17.5-8.4,21.7c-3,4.2,1,19.9-1.7,22.2
					c-2.8,2.2-4.2,10.3-2.8,12.8c1.4,2.4-0.3,4.9-5.2,10.8c-8.1,9.9,28.9,11.9,28.9,11.9c9.1,0.2,18.5-2.1,31.5-4.9
					C174.3,1445.2,169.8,1434,165.6,1431.2z"/>
				<path class="st40" d="M138.3,1335.8c2.1,12.1-2.3,11.4,0,14.9c2.3,3.5,8.4,5.1,6.1,7.9c-2.3,2.8-8.6,10.3-4,14.2
					c4.7,4,13,5.4,10.5,13.7c-2.6,8.4-8.2,14.7-3.3,16.3c4.5,1.5,14.1,4.2,17.9,9.5c0.4-5.5-7.6-8.2-8.9-10.2
					c-1.6-2.4-1.9-10.1-0.2-15c1.7-4.9-12.3-15.7-6.6-19.9c5.7-4.2-0.7-10.5-4.9-15c-4.2-4.5-3.5-19.6-6.6-28.9
					c-3.1-9.3-12.9-19-10.8-10.9c0.6,2.2,0.8,4.7,0.7,7.3C131.7,1322.5,136.9,1327.9,138.3,1335.8z"/>
			</g>
			<g>
				<path class="st36" d="M72,1449.9c0,0,1.9-4.3,1.3-10.9c-0.6-6.6-4.3-9.5-4.3-9.5l1.2-1.7c0,0,4.3,3.8,5.9,3
					c1.6-0.8,6.8-7.1,3.4-13.7c-3.3-6.6-3.3-6.6-3.3-6.6l2.7-0.5c0,0,2.7,5.8,4,6c1.4,0.2,2.9-4.6,2.9-4.6l4.8,1.2
					c0,0-6.9,9.3-7.1,12c-0.2,2.7-2.9,6.5-0.5,7c2.4,0.5,4.9-1.2,4.9-1.2l1.8,3.2c0,0-6.1,1.2-6.9,2.8c-0.8,1.6,0.1,13.5,0.1,13.5
					S78.7,1451.7,72,1449.9z"/>
				<path class="st37" d="M74.7,1442.8c0,0-31.3-1.7-24.4-10c4.1-5,5.5-7.1,4.4-9.1c-1.2-2.1,0-8.9,2.4-10.8s-1.1-15.2,1.5-18.7
					c2.6-3.5,8.3-11.8,7.1-18.3c-1.2-6.5,0.9-9.7,3-15c2.1-5.3-7.1-8,2.1-18c1.6-1.7,3.8-11.8,2.1-18.6c-1.8-6.8,6.5,1.3,9.1,9.2
					c2.7,7.9,2.1,20.6,5.6,24.4c3.5,3.8,8.9,9.1,4.1,12.7c-4.8,3.6,7.1,12.7,5.6,16.8c-1.5,4.1-1.2,10.6,0.1,12.7
					c1.3,2.1,12,5.2,5.5,12.8c-6.5,7.6-1.4,9.3,2.1,11.7c3.5,2.4,7.4,11.8-3.6,14.2C90.4,1441.1,82.4,1443,74.7,1442.8z"/>
				<g>
					<path class="st38" d="M70.6,1412.9C70.6,1412.9,70.6,1412.9,70.6,1412.9C70.4,1412.9,70.4,1412.9,70.6,1412.9z"/>
				</g>
				<ellipse class="st34" cx="78" cy="1449.9" rx="28.7" ry="5.4"/>
				<path class="st39" d="M104.8,1424.6c-1.2-0.8-2.5-1.5-3.5-2.4c-0.3,1.4,1.5,4.9-1.8,4.7c-4.9-0.4-5.1-14.2-9-9
					c-3.9,5.1-18.7,2.6-21.5-0.8c-2.9-3.3,6.2-8.5,5.7-12.2c-0.5-3.7-8-1.4-9-4.7c-1.1-3.3,11.7-13.4,8.5-14.9
					c-3.1-1.6-8.5-16.1-8.5-16.2c-0.4,2-0.5,4.2,0,6.9c1.2,6.5-4.5,14.8-7.1,18.3c-2.6,3.5,0.9,16.8-1.5,18.7
					c-2.4,1.9-3.5,8.7-2.4,10.8c1.2,2.1-0.3,4.2-4.4,9.1c-6.8,8.3,24.4,10,24.4,10c7.7,0.2,15.6-1.8,26.5-4.1
					C112.2,1436.4,108.3,1426.9,104.8,1424.6z"/>
				<path class="st40" d="M81.8,1344c1.8,10.2-2,9.6,0,12.6c2,2.9,7.1,4.3,5.1,6.7c-2,2.4-7.3,8.7-3.3,12c3.9,3.3,11,4.5,8.8,11.6
					c-2.2,7.1-6.9,12.4-2.8,13.8c3.8,1.3,11.9,3.5,15.1,8c0.4-4.6-6.5-7-7.5-8.6c-1.3-2.1-1.6-8.6-0.1-12.7
					c1.5-4.1-10.4-13.3-5.6-16.8c4.8-3.6-0.6-8.8-4.1-12.7c-3.5-3.8-2.9-16.5-5.6-24.4c-2.7-7.9-10.9-16-9.1-9.2
					c0.5,1.9,0.7,4,0.6,6.1C76.2,1332.8,80.6,1337.3,81.8,1344z"/>
			</g>
			<g>
				<path class="st36" d="M21.8,1408.4c0,0,1.5-3.5,1-8.8c-0.5-5.3-3.5-7.7-3.5-7.7l0.9-1.3c0,0,3.5,3.1,4.7,2.4
					c1.3-0.6,5.4-5.7,2.8-11c-2.7-5.3-2.7-5.3-2.7-5.3l2.1-0.4c0,0,2.1,4.7,3.2,4.8c1.1,0.2,2.3-3.7,2.3-3.7l3.9,0.9
					c0,0-5.5,7.5-5.7,9.6c-0.2,2.1-2.3,5.2-0.4,5.6c1.9,0.4,3.9-0.9,3.9-0.9l1.4,2.6c0,0-4.9,0.9-5.5,2.2
					c-0.6,1.3,0.1,10.8,0.1,10.8S27.3,1409.9,21.8,1408.4z"/>
				<path class="st37" d="M24,1402.8c0,0-25.1-1.4-19.6-8.1c3.3-4,4.5-5.7,3.5-7.3c-0.9-1.7,0-7.2,1.9-8.7c1.9-1.5-0.9-12.2,1.2-15
					c2.1-2.8,6.6-9.5,5.7-14.7c-0.9-5.2,0.7-7.8,2.4-12.1c1.7-4.3-5.7-6.4,1.7-14.4c1.2-1.4,3.1-9.5,1.7-14.9
					c-1.4-5.4,5.2,1.1,7.3,7.4c2.1,6.3,1.7,16.5,4.5,19.6c2.8,3.1,7.2,7.3,3.3,10.2c-3.8,2.9,5.7,10.2,4.5,13.5
					c-1.2,3.3-1,8.5,0.1,10.2c1.1,1.7,9.6,4.2,4.4,10.3c-5.2,6.1-1.2,7.5,1.7,9.4c2.8,1.9,5.9,9.5-2.9,11.4
					C36.6,1401.3,30.2,1402.9,24,1402.8z"/>
				<g>
					<path class="st38" d="M20.7,1378.7C20.7,1378.7,20.7,1378.7,20.7,1378.7C20.5,1378.7,20.5,1378.7,20.7,1378.7z"/>
				</g>
				<ellipse class="st34" cx="26.6" cy="1408.5" rx="23" ry="4.4"/>
				<path class="st39" d="M48.2,1388.1c-0.9-0.6-2-1.2-2.8-1.9c-0.2,1.1,1.2,3.9-1.4,3.7c-3.9-0.3-4.1-11.4-7.3-7.3
					c-3.2,4.1-15,2.1-17.3-0.6c-2.3-2.7,5-6.8,4.6-9.8c-0.4-3-6.4-1.1-7.3-3.8c-0.8-2.7,9.4-10.7,6.8-12c-2.5-1.3-6.8-12.9-6.8-13
					c-0.3,1.6-0.4,3.3,0,5.6c0.9,5.2-3.6,11.8-5.7,14.7c-2.1,2.8,0.7,13.5-1.2,15c-1.9,1.5-2.8,7-1.9,8.7c0.9,1.7-0.2,3.3-3.5,7.3
					c-5.5,6.7,19.6,8.1,19.6,8.1c6.2,0.2,12.6-1.4,21.3-3.3C54.1,1397.5,51,1390,48.2,1388.1z"/>
				<path class="st40" d="M29.7,1323.4c1.4,8.2-1.6,7.7,0,10.1c1.6,2.4,5.7,3.5,4.1,5.4c-1.6,1.9-5.8,6.9-2.7,9.6
					c3.2,2.7,8.8,3.6,7.1,9.3c-1.7,5.7-5.5,9.9-2.2,11.1c3,1,9.6,2.8,12.1,6.4c0.3-3.7-5.2-5.6-6-6.9c-1.1-1.7-1.3-6.9-0.1-10.2
					c1.2-3.3-8.3-10.6-4.5-13.5c3.8-2.9-0.5-7.1-3.3-10.2c-2.8-3.1-2.4-13.3-4.5-19.6c-2.1-6.3-8.8-12.9-7.3-7.4
					c0.4,1.5,0.5,3.2,0.5,4.9C25.2,1314.4,28.8,1318,29.7,1323.4z"/>
			</g>
			<g>
				<path class="st36" d="M200.8,1403.7c0,0,1.1-2.5,0.7-6.2c-0.3-3.7-2.5-5.4-2.5-5.4l0.7-0.9c0,0,2.5,2.2,3.3,1.7
					c0.9-0.4,3.8-4,1.9-7.7c-1.9-3.7-1.9-3.7-1.9-3.7l1.5-0.3c0,0,1.5,3.3,2.3,3.4c0.8,0.1,1.6-2.6,1.6-2.6l2.7,0.7
					c0,0-3.9,5.3-4,6.8s-1.6,3.7-0.3,4c1.3,0.3,2.8-0.7,2.8-0.7l1,1.8c0,0-3.5,0.7-3.9,1.6c-0.4,0.9,0.1,7.6,0.1,7.6
					S204.6,1404.8,200.8,1403.7z"/>
				<path class="st37" d="M202.3,1399.8c0,0-17.7-1-13.8-5.7c2.3-2.8,3.1-4,2.5-5.2c-0.7-1.2,0-5,1.3-6.1c1.3-1.1-0.6-8.6,0.8-10.6
					c1.4-2,4.7-6.7,4-10.4c-0.7-3.7,0.5-5.5,1.7-8.5c1.2-3-4-4.5,1.2-10.2c0.9-1,2.2-6.7,1.2-10.5c-1-3.8,3.7,0.8,5.2,5.2
					c1.5,4.5,1.2,11.7,3.2,13.8c2,2.2,5.1,5.2,2.3,7.2c-2.7,2,4,7.2,3.2,9.5c-0.8,2.3-0.7,6,0.1,7.2c0.8,1.2,6.8,3,3.1,7.2
					c-3.7,4.3-0.8,5.3,1.2,6.6c2,1.3,4.2,6.7-2,8C211.2,1398.8,206.7,1399.9,202.3,1399.8z"/>
				<g>
					<path class="st38" d="M200,1382.8C200,1382.8,200,1382.8,200,1382.8C199.8,1382.8,199.9,1382.8,200,1382.8z"/>
				</g>
				<ellipse class="st34" cx="204.2" cy="1403.8" rx="16.2" ry="3.1"/>
				<path class="st39" d="M219.4,1389.4c-0.7-0.4-1.4-0.9-2-1.4c-0.2,0.8,0.8,2.8-1,2.6c-2.8-0.2-2.9-8-5.1-5.1
					c-2.2,2.9-10.6,1.4-12.2-0.4c-1.6-1.9,3.5-4.8,3.2-6.9c-0.3-2.1-4.5-0.8-5.1-2.7c-0.6-1.9,6.6-7.6,4.8-8.5
					c-1.8-0.9-4.8-9.1-4.8-9.2c-0.2,1.1-0.3,2.4,0,3.9c0.7,3.7-2.6,8.4-4,10.4c-1.4,2,0.5,9.5-0.8,10.6c-1.3,1.1-2,4.9-1.3,6.1
					c0.7,1.2-0.2,2.4-2.5,5.2c-3.9,4.7,13.8,5.7,13.8,5.7c4.3,0.1,8.9-1,15-2.3C223.5,1396.1,221.4,1390.7,219.4,1389.4z"/>
				<path class="st40" d="M206.3,1343.8c1,5.8-1.1,5.5,0,7.1c1.1,1.7,4,2.5,2.9,3.8c-1.1,1.3-4.1,4.9-1.9,6.8c2.2,1.9,6.2,2.6,5,6.6
					c-1.2,4-3.9,7-1.6,7.8c2.1,0.7,6.7,2,8.6,4.5c0.2-2.6-3.7-3.9-4.3-4.9c-0.8-1.2-0.9-4.8-0.1-7.2c0.8-2.3-5.9-7.5-3.2-9.5
					c2.7-2-0.3-5-2.3-7.2c-2-2.2-1.7-9.4-3.2-13.8c-1.5-4.5-6.2-9.1-5.2-5.2c0.3,1.1,0.4,2.3,0.4,3.5
					C203.2,1337.4,205.7,1340,206.3,1343.8z"/>
			</g>
			<g>
				<path class="st36" d="M3.3,1425.6c0,0,1.5-3.5,1-8.8c-0.5-5.3-3.5-7.7-3.5-7.7l0.9-1.3c0,0,3.5,3.1,4.7,2.4
					c1.3-0.6,5.4-5.7,2.8-11c-2.7-5.3-2.7-5.3-2.7-5.3l2.1-0.4c0,0,2.1,4.7,3.2,4.8c1.1,0.2,2.3-3.7,2.3-3.7l3.9,0.9
					c0,0-5.5,7.5-5.7,9.6c-0.2,2.1-2.3,5.2-0.4,5.6c1.9,0.4,3.9-0.9,3.9-0.9l1.4,2.6c0,0-4.9,0.9-5.5,2.2
					c-0.6,1.3,0.1,10.8,0.1,10.8S8.7,1427.1,3.3,1425.6z"/>
				<path class="st37" d="M5.5,1420c0,0-25.1-1.4-19.6-8.1c3.3-4,4.5-5.7,3.5-7.3c-0.9-1.7,0-7.2,1.9-8.7c1.9-1.5-0.9-12.2,1.2-15
					c2.1-2.8,6.6-9.5,5.7-14.7s0.7-7.8,2.4-12.1c1.7-4.3-5.7-6.4,1.7-14.4c1.2-1.4,3.1-9.5,1.7-14.9c-1.4-5.4,5.2,1.1,7.3,7.4
					c2.1,6.3,1.7,16.5,4.5,19.6c2.8,3.1,7.2,7.3,3.3,10.2c-3.8,2.9,5.7,10.2,4.5,13.5c-1.2,3.3-1,8.5,0.1,10.2
					c1.1,1.7,9.6,4.2,4.4,10.3c-5.2,6.1-1.2,7.5,1.7,9.4c2.8,1.9,5.9,9.5-2.9,11.4C18,1418.6,11.6,1420.2,5.5,1420z"/>
				<g>
					<path class="st38" d="M2.2,1395.9C2.2,1395.9,2.2,1395.9,2.2,1395.9C2,1396,2,1396,2.2,1395.9z"/>
				</g>
				<path class="st34" d="M31.1,1425.7c0,2.4-10.3,4.4-23,4.4c-12.7,0-23-2-23-4.4c0-2.4,10.3-4.4,23-4.4
					C20.8,1421.3,31.1,1423.3,31.1,1425.7z"/>
				<path class="st39" d="M29.6,1405.3c-0.9-0.6-2-1.2-2.8-1.9c-0.2,1.1,1.2,3.9-1.4,3.7c-3.9-0.3-4.1-11.4-7.3-7.3
					c-3.2,4.1-15,2.1-17.3-0.6c-2.3-2.7,5-6.8,4.6-9.8c-0.4-3-6.4-1.1-7.3-3.8c-0.8-2.7,9.4-10.7,6.8-12c-2.5-1.3-6.8-12.9-6.8-13
					c-0.3,1.6-0.4,3.3,0,5.6c0.9,5.2-3.6,11.8-5.7,14.7c-2.1,2.8,0.7,13.5-1.2,15c-1.9,1.5-2.8,7-1.9,8.7c0.9,1.7-0.2,3.3-3.5,7.3
					c-5.5,6.7,19.6,8.1,19.6,8.1c6.2,0.2,12.6-1.4,21.3-3.3C35.6,1414.8,32.5,1407.2,29.6,1405.3z"/>
				<path class="st40" d="M11.2,1340.7c1.4,8.2-1.6,7.7,0,10.1c1.6,2.4,5.7,3.5,4.1,5.4c-1.6,1.9-5.8,6.9-2.7,9.6
					c3.2,2.7,8.8,3.6,7.1,9.3c-1.7,5.7-5.5,9.9-2.2,11.1c3,1,9.6,2.8,12.1,6.4c0.3-3.7-5.2-5.6-6-6.9c-1.1-1.7-1.3-6.9-0.1-10.2
					c1.2-3.3-8.3-10.6-4.5-13.5c3.8-2.9-0.5-7.1-3.3-10.2c-2.8-3.1-2.4-13.3-4.5-19.6c-2.1-6.3-8.8-12.9-7.3-7.4
					c0.4,1.5,0.5,3.2,0.5,4.9C6.7,1331.6,10.2,1335.3,11.2,1340.7z"/>
			</g>
		</g>
		<rect x="1.6" y="316" class="st26" width="1451" height="1451"/>
	</g>
</g>
</svg>
